%TF.GenerationSoftware,KiCad,Pcbnew,9.0.5*%
%TF.CreationDate,2026-02-11T19:47:49-06:00*%
%TF.ProjectId,ADC,4144432e-6b69-4636-9164-5f7063625858,rev?*%
%TF.SameCoordinates,Original*%
%TF.FileFunction,Paste,Top*%
%TF.FilePolarity,Positive*%
%FSLAX46Y46*%
G04 Gerber Fmt 4.6, Leading zero omitted, Abs format (unit mm)*
G04 Created by KiCad (PCBNEW 9.0.5) date 2026-02-11 19:47:49*
%MOMM*%
%LPD*%
G01*
G04 APERTURE LIST*
G04 Aperture macros list*
%AMRoundRect*
0 Rectangle with rounded corners*
0 $1 Rounding radius*
0 $2 $3 $4 $5 $6 $7 $8 $9 X,Y pos of 4 corners*
0 Add a 4 corners polygon primitive as box body*
4,1,4,$2,$3,$4,$5,$6,$7,$8,$9,$2,$3,0*
0 Add four circle primitives for the rounded corners*
1,1,$1+$1,$2,$3*
1,1,$1+$1,$4,$5*
1,1,$1+$1,$6,$7*
1,1,$1+$1,$8,$9*
0 Add four rect primitives between the rounded corners*
20,1,$1+$1,$2,$3,$4,$5,0*
20,1,$1+$1,$4,$5,$6,$7,0*
20,1,$1+$1,$6,$7,$8,$9,0*
20,1,$1+$1,$8,$9,$2,$3,0*%
G04 Aperture macros list end*
%ADD10RoundRect,0.250000X-0.337500X-0.475000X0.337500X-0.475000X0.337500X0.475000X-0.337500X0.475000X0*%
%ADD11RoundRect,0.250000X-0.250000X0.850000X-0.250000X-0.850000X0.250000X-0.850000X0.250000X0.850000X0*%
%ADD12RoundRect,0.450000X-1.250000X0.450000X-1.250000X-0.450000X1.250000X-0.450000X1.250000X0.450000X0*%
%ADD13RoundRect,0.075000X-0.662500X-0.075000X0.662500X-0.075000X0.662500X0.075000X-0.662500X0.075000X0*%
%ADD14RoundRect,0.075000X-0.075000X-0.662500X0.075000X-0.662500X0.075000X0.662500X-0.075000X0.662500X0*%
%ADD15R,3.200000X1.000000*%
%ADD16RoundRect,0.250000X-0.450000X0.325000X-0.450000X-0.325000X0.450000X-0.325000X0.450000X0.325000X0*%
%ADD17RoundRect,0.250000X-0.475000X0.337500X-0.475000X-0.337500X0.475000X-0.337500X0.475000X0.337500X0*%
%ADD18RoundRect,0.250000X0.475000X-0.337500X0.475000X0.337500X-0.475000X0.337500X-0.475000X-0.337500X0*%
%ADD19RoundRect,0.250000X-0.325000X-0.450000X0.325000X-0.450000X0.325000X0.450000X-0.325000X0.450000X0*%
%ADD20RoundRect,0.302082X0.447918X-0.422917X0.447918X0.422917X-0.447918X0.422917X-0.447918X-0.422917X0*%
%ADD21RoundRect,0.302082X0.447918X-0.422915X0.447918X0.422915X-0.447918X0.422915X-0.447918X-0.422915X0*%
%ADD22RoundRect,0.302080X0.447919X-0.422912X0.447919X0.422912X-0.447919X0.422912X-0.447919X-0.422912X0*%
%ADD23RoundRect,0.150000X-0.875000X-0.150000X0.875000X-0.150000X0.875000X0.150000X-0.875000X0.150000X0*%
%ADD24RoundRect,0.250000X-0.310000X0.970000X-0.310000X-0.970000X0.310000X-0.970000X0.310000X0.970000X0*%
G04 APERTURE END LIST*
D10*
%TO.C,C18*%
X162962500Y-97500000D03*
X165037500Y-97500000D03*
%TD*%
D11*
%TO.C,IC3*%
X191750000Y-108700000D03*
X190250000Y-108700000D03*
X188750000Y-108700000D03*
X187250000Y-108700000D03*
D12*
X189500000Y-115000000D03*
%TD*%
D13*
%TO.C,IC2*%
X144337500Y-87000000D03*
X144337500Y-87500000D03*
X144337500Y-88000000D03*
X144337500Y-88500000D03*
X144337500Y-89000000D03*
X144337500Y-89500000D03*
X144337500Y-90000000D03*
X144337500Y-90500000D03*
X144337500Y-91000000D03*
X144337500Y-91500000D03*
X144337500Y-92000000D03*
X144337500Y-92500000D03*
X144337500Y-93000000D03*
X144337500Y-93500000D03*
X144337500Y-94000000D03*
X144337500Y-94500000D03*
X144337500Y-95000000D03*
X144337500Y-95500000D03*
X144337500Y-96000000D03*
X144337500Y-96500000D03*
X144337500Y-97000000D03*
X144337500Y-97500000D03*
X144337500Y-98000000D03*
X144337500Y-98500000D03*
X144337500Y-99000000D03*
D14*
X146000000Y-100662500D03*
X146500000Y-100662500D03*
X147000000Y-100662500D03*
X147500000Y-100662500D03*
X148000000Y-100662500D03*
X148500000Y-100662500D03*
X149000000Y-100662500D03*
X149500000Y-100662500D03*
X150000000Y-100662500D03*
X150500000Y-100662500D03*
X151000000Y-100662500D03*
X151500000Y-100662500D03*
X152000000Y-100662500D03*
X152500000Y-100662500D03*
X153000000Y-100662500D03*
X153500000Y-100662500D03*
X154000000Y-100662500D03*
X154500000Y-100662500D03*
X155000000Y-100662500D03*
X155500000Y-100662500D03*
X156000000Y-100662500D03*
X156500000Y-100662500D03*
X157000000Y-100662500D03*
X157500000Y-100662500D03*
X158000000Y-100662500D03*
D13*
X159662500Y-99000000D03*
X159662500Y-98500000D03*
X159662500Y-98000000D03*
X159662500Y-97500000D03*
X159662500Y-97000000D03*
X159662500Y-96500000D03*
X159662500Y-96000000D03*
X159662500Y-95500000D03*
X159662500Y-95000000D03*
X159662500Y-94500000D03*
X159662500Y-94000000D03*
X159662500Y-93500000D03*
X159662500Y-93000000D03*
X159662500Y-92500000D03*
X159662500Y-92000000D03*
X159662500Y-91500000D03*
X159662500Y-91000000D03*
X159662500Y-90500000D03*
X159662500Y-90000000D03*
X159662500Y-89500000D03*
X159662500Y-89000000D03*
X159662500Y-88500000D03*
X159662500Y-88000000D03*
X159662500Y-87500000D03*
X159662500Y-87000000D03*
D14*
X158000000Y-85337500D03*
X157500000Y-85337500D03*
X157000000Y-85337500D03*
X156500000Y-85337500D03*
X156000000Y-85337500D03*
X155500000Y-85337500D03*
X155000000Y-85337500D03*
X154500000Y-85337500D03*
X154000000Y-85337500D03*
X153500000Y-85337500D03*
X153000000Y-85337500D03*
X152500000Y-85337500D03*
X152000000Y-85337500D03*
X151500000Y-85337500D03*
X151000000Y-85337500D03*
X150500000Y-85337500D03*
X150000000Y-85337500D03*
X149500000Y-85337500D03*
X149000000Y-85337500D03*
X148500000Y-85337500D03*
X148000000Y-85337500D03*
X147500000Y-85337500D03*
X147000000Y-85337500D03*
X146500000Y-85337500D03*
X146000000Y-85337500D03*
%TD*%
D15*
%TO.C,S2*%
X135700000Y-106500000D03*
X142500000Y-106500000D03*
X135700000Y-110500000D03*
X142500000Y-110500000D03*
%TD*%
D16*
%TO.C,D6*%
X118642857Y-74450000D03*
X118642857Y-76500000D03*
%TD*%
%TO.C,D4*%
X123785714Y-74450000D03*
X123785714Y-76500000D03*
%TD*%
D17*
%TO.C,C24*%
X149490000Y-79925000D03*
X149490000Y-82000000D03*
%TD*%
D16*
%TO.C,D7*%
X116071429Y-74450000D03*
X116071429Y-76500000D03*
%TD*%
D17*
%TO.C,C1*%
X183500000Y-111000000D03*
X183500000Y-113075000D03*
%TD*%
D16*
%TO.C,D5*%
X121214286Y-74450000D03*
X121214286Y-76500000D03*
%TD*%
%TO.C,D8*%
X113500000Y-74450000D03*
X113500000Y-76500000D03*
%TD*%
D18*
%TO.C,C19*%
X165500000Y-87000000D03*
X165500000Y-84925000D03*
%TD*%
%TO.C,C30*%
X193000000Y-85500000D03*
X193000000Y-83425000D03*
%TD*%
D16*
%TO.C,D1*%
X131500000Y-74450000D03*
X131500000Y-76500000D03*
%TD*%
%TO.C,D2*%
X128928571Y-74450000D03*
X128928571Y-76500000D03*
%TD*%
D17*
%TO.C,C15*%
X160500000Y-103462500D03*
X160500000Y-105537500D03*
%TD*%
D11*
%TO.C,IC4*%
X175250000Y-108700000D03*
X173750000Y-108700000D03*
X172250000Y-108700000D03*
X170750000Y-108700000D03*
D12*
X173000000Y-115000000D03*
%TD*%
D10*
%TO.C,C17*%
X162925000Y-100000000D03*
X165000000Y-100000000D03*
%TD*%
D19*
%TO.C,D9*%
X166450000Y-76000000D03*
X168500000Y-76000000D03*
%TD*%
D17*
%TO.C,C4*%
X179000000Y-110962500D03*
X179000000Y-113037500D03*
%TD*%
%TO.C,C3*%
X167000000Y-110925000D03*
X167000000Y-113000000D03*
%TD*%
D18*
%TO.C,C29*%
X190500000Y-85500000D03*
X190500000Y-83425000D03*
%TD*%
D16*
%TO.C,D3*%
X126357143Y-74450000D03*
X126357143Y-76500000D03*
%TD*%
D20*
%TO.C,Y1*%
X150500000Y-115454999D03*
D21*
X153000000Y-115454997D03*
D20*
X153000000Y-113005001D03*
D22*
X150500001Y-113005008D03*
%TD*%
D17*
%TO.C,C2*%
X195500000Y-110962500D03*
X195500000Y-113037500D03*
%TD*%
D23*
%TO.C,IC1*%
X178200000Y-82380000D03*
X178200000Y-83650000D03*
X178200000Y-84920000D03*
X178200000Y-86190000D03*
X178200000Y-87460000D03*
X178200000Y-88730000D03*
X178200000Y-90000000D03*
X178200000Y-91270000D03*
X178200000Y-92540000D03*
X178200000Y-93810000D03*
X187500000Y-93810000D03*
X187500000Y-92540000D03*
X187500000Y-91270000D03*
X187500000Y-90000000D03*
X187500000Y-88730000D03*
X187500000Y-87460000D03*
X187500000Y-86190000D03*
X187500000Y-84920000D03*
X187500000Y-83650000D03*
X187500000Y-82380000D03*
%TD*%
D17*
%TO.C,C16*%
X157990000Y-103462500D03*
X157990000Y-105537500D03*
%TD*%
D19*
%TO.C,D10*%
X175950000Y-76000000D03*
X178000000Y-76000000D03*
%TD*%
D24*
%TO.C,S1*%
X131500000Y-82390000D03*
X128960000Y-82390000D03*
X126420000Y-82390000D03*
X123880000Y-82390000D03*
X121340000Y-82390000D03*
X118800000Y-82390000D03*
X116260000Y-82390000D03*
X113720000Y-82390000D03*
X113720000Y-91000000D03*
X116260000Y-91000000D03*
X118800000Y-91000000D03*
X121340000Y-91000000D03*
X123880000Y-91000000D03*
X126420000Y-91000000D03*
X128960000Y-91000000D03*
X131500000Y-91000000D03*
%TD*%
D18*
%TO.C,C20*%
X163000000Y-87000000D03*
X163000000Y-84925000D03*
%TD*%
D17*
%TO.C,C23*%
X152000000Y-79925000D03*
X152000000Y-82000000D03*
%TD*%
M02*
