%TF.GenerationSoftware,KiCad,Pcbnew,9.0.5*%
%TF.CreationDate,2026-02-11T19:47:49-06:00*%
%TF.ProjectId,ADC,4144432e-6b69-4636-9164-5f7063625858,rev?*%
%TF.SameCoordinates,Original*%
%TF.FileFunction,Legend,Bot*%
%TF.FilePolarity,Positive*%
%FSLAX46Y46*%
G04 Gerber Fmt 4.6, Leading zero omitted, Abs format (unit mm)*
G04 Created by KiCad (PCBNEW 9.0.5) date 2026-02-11 19:47:49*
%MOMM*%
%LPD*%
G01*
G04 APERTURE LIST*
%ADD10C,0.100000*%
%ADD11C,0.150000*%
%ADD12C,0.120000*%
G04 APERTURE END LIST*
D10*
X196243734Y-118824800D02*
X196100877Y-118872419D01*
X196100877Y-118872419D02*
X195862782Y-118872419D01*
X195862782Y-118872419D02*
X195767544Y-118824800D01*
X195767544Y-118824800D02*
X195719925Y-118777180D01*
X195719925Y-118777180D02*
X195672306Y-118681942D01*
X195672306Y-118681942D02*
X195672306Y-118586704D01*
X195672306Y-118586704D02*
X195719925Y-118491466D01*
X195719925Y-118491466D02*
X195767544Y-118443847D01*
X195767544Y-118443847D02*
X195862782Y-118396228D01*
X195862782Y-118396228D02*
X196053258Y-118348609D01*
X196053258Y-118348609D02*
X196148496Y-118300990D01*
X196148496Y-118300990D02*
X196196115Y-118253371D01*
X196196115Y-118253371D02*
X196243734Y-118158133D01*
X196243734Y-118158133D02*
X196243734Y-118062895D01*
X196243734Y-118062895D02*
X196196115Y-117967657D01*
X196196115Y-117967657D02*
X196148496Y-117920038D01*
X196148496Y-117920038D02*
X196053258Y-117872419D01*
X196053258Y-117872419D02*
X195815163Y-117872419D01*
X195815163Y-117872419D02*
X195672306Y-117920038D01*
X194815163Y-118872419D02*
X194815163Y-118348609D01*
X194815163Y-118348609D02*
X194862782Y-118253371D01*
X194862782Y-118253371D02*
X194958020Y-118205752D01*
X194958020Y-118205752D02*
X195148496Y-118205752D01*
X195148496Y-118205752D02*
X195243734Y-118253371D01*
X194815163Y-118824800D02*
X194910401Y-118872419D01*
X194910401Y-118872419D02*
X195148496Y-118872419D01*
X195148496Y-118872419D02*
X195243734Y-118824800D01*
X195243734Y-118824800D02*
X195291353Y-118729561D01*
X195291353Y-118729561D02*
X195291353Y-118634323D01*
X195291353Y-118634323D02*
X195243734Y-118539085D01*
X195243734Y-118539085D02*
X195148496Y-118491466D01*
X195148496Y-118491466D02*
X194910401Y-118491466D01*
X194910401Y-118491466D02*
X194815163Y-118443847D01*
X194338972Y-118872419D02*
X194338972Y-118205752D01*
X194338972Y-118300990D02*
X194291353Y-118253371D01*
X194291353Y-118253371D02*
X194196115Y-118205752D01*
X194196115Y-118205752D02*
X194053258Y-118205752D01*
X194053258Y-118205752D02*
X193958020Y-118253371D01*
X193958020Y-118253371D02*
X193910401Y-118348609D01*
X193910401Y-118348609D02*
X193910401Y-118872419D01*
X193910401Y-118348609D02*
X193862782Y-118253371D01*
X193862782Y-118253371D02*
X193767544Y-118205752D01*
X193767544Y-118205752D02*
X193624687Y-118205752D01*
X193624687Y-118205752D02*
X193529448Y-118253371D01*
X193529448Y-118253371D02*
X193481829Y-118348609D01*
X193481829Y-118348609D02*
X193481829Y-118872419D01*
X192577068Y-118205752D02*
X192577068Y-118872419D01*
X193005639Y-118205752D02*
X193005639Y-118729561D01*
X193005639Y-118729561D02*
X192958020Y-118824800D01*
X192958020Y-118824800D02*
X192862782Y-118872419D01*
X192862782Y-118872419D02*
X192719925Y-118872419D01*
X192719925Y-118872419D02*
X192624687Y-118824800D01*
X192624687Y-118824800D02*
X192577068Y-118777180D01*
X191719925Y-118824800D02*
X191815163Y-118872419D01*
X191815163Y-118872419D02*
X192005639Y-118872419D01*
X192005639Y-118872419D02*
X192100877Y-118824800D01*
X192100877Y-118824800D02*
X192148496Y-118729561D01*
X192148496Y-118729561D02*
X192148496Y-118348609D01*
X192148496Y-118348609D02*
X192100877Y-118253371D01*
X192100877Y-118253371D02*
X192005639Y-118205752D01*
X192005639Y-118205752D02*
X191815163Y-118205752D01*
X191815163Y-118205752D02*
X191719925Y-118253371D01*
X191719925Y-118253371D02*
X191672306Y-118348609D01*
X191672306Y-118348609D02*
X191672306Y-118443847D01*
X191672306Y-118443847D02*
X192148496Y-118539085D01*
X191100877Y-118872419D02*
X191196115Y-118824800D01*
X191196115Y-118824800D02*
X191243734Y-118729561D01*
X191243734Y-118729561D02*
X191243734Y-117872419D01*
X189672305Y-117872419D02*
X189672305Y-118586704D01*
X189672305Y-118586704D02*
X189719924Y-118729561D01*
X189719924Y-118729561D02*
X189815162Y-118824800D01*
X189815162Y-118824800D02*
X189958019Y-118872419D01*
X189958019Y-118872419D02*
X190053257Y-118872419D01*
X189053257Y-118872419D02*
X189148495Y-118824800D01*
X189148495Y-118824800D02*
X189196114Y-118777180D01*
X189196114Y-118777180D02*
X189243733Y-118681942D01*
X189243733Y-118681942D02*
X189243733Y-118396228D01*
X189243733Y-118396228D02*
X189196114Y-118300990D01*
X189196114Y-118300990D02*
X189148495Y-118253371D01*
X189148495Y-118253371D02*
X189053257Y-118205752D01*
X189053257Y-118205752D02*
X188910400Y-118205752D01*
X188910400Y-118205752D02*
X188815162Y-118253371D01*
X188815162Y-118253371D02*
X188767543Y-118300990D01*
X188767543Y-118300990D02*
X188719924Y-118396228D01*
X188719924Y-118396228D02*
X188719924Y-118681942D01*
X188719924Y-118681942D02*
X188767543Y-118777180D01*
X188767543Y-118777180D02*
X188815162Y-118824800D01*
X188815162Y-118824800D02*
X188910400Y-118872419D01*
X188910400Y-118872419D02*
X189053257Y-118872419D01*
X188291352Y-118872419D02*
X188291352Y-117872419D01*
X187862781Y-118872419D02*
X187862781Y-118348609D01*
X187862781Y-118348609D02*
X187910400Y-118253371D01*
X187910400Y-118253371D02*
X188005638Y-118205752D01*
X188005638Y-118205752D02*
X188148495Y-118205752D01*
X188148495Y-118205752D02*
X188243733Y-118253371D01*
X188243733Y-118253371D02*
X188291352Y-118300990D01*
X187386590Y-118205752D02*
X187386590Y-118872419D01*
X187386590Y-118300990D02*
X187338971Y-118253371D01*
X187338971Y-118253371D02*
X187243733Y-118205752D01*
X187243733Y-118205752D02*
X187100876Y-118205752D01*
X187100876Y-118205752D02*
X187005638Y-118253371D01*
X187005638Y-118253371D02*
X186958019Y-118348609D01*
X186958019Y-118348609D02*
X186958019Y-118872419D01*
X186529447Y-118824800D02*
X186434209Y-118872419D01*
X186434209Y-118872419D02*
X186243733Y-118872419D01*
X186243733Y-118872419D02*
X186148495Y-118824800D01*
X186148495Y-118824800D02*
X186100876Y-118729561D01*
X186100876Y-118729561D02*
X186100876Y-118681942D01*
X186100876Y-118681942D02*
X186148495Y-118586704D01*
X186148495Y-118586704D02*
X186243733Y-118539085D01*
X186243733Y-118539085D02*
X186386590Y-118539085D01*
X186386590Y-118539085D02*
X186481828Y-118491466D01*
X186481828Y-118491466D02*
X186529447Y-118396228D01*
X186529447Y-118396228D02*
X186529447Y-118348609D01*
X186529447Y-118348609D02*
X186481828Y-118253371D01*
X186481828Y-118253371D02*
X186386590Y-118205752D01*
X186386590Y-118205752D02*
X186243733Y-118205752D01*
X186243733Y-118205752D02*
X186148495Y-118253371D01*
X185529447Y-118872419D02*
X185624685Y-118824800D01*
X185624685Y-118824800D02*
X185672304Y-118777180D01*
X185672304Y-118777180D02*
X185719923Y-118681942D01*
X185719923Y-118681942D02*
X185719923Y-118396228D01*
X185719923Y-118396228D02*
X185672304Y-118300990D01*
X185672304Y-118300990D02*
X185624685Y-118253371D01*
X185624685Y-118253371D02*
X185529447Y-118205752D01*
X185529447Y-118205752D02*
X185386590Y-118205752D01*
X185386590Y-118205752D02*
X185291352Y-118253371D01*
X185291352Y-118253371D02*
X185243733Y-118300990D01*
X185243733Y-118300990D02*
X185196114Y-118396228D01*
X185196114Y-118396228D02*
X185196114Y-118681942D01*
X185196114Y-118681942D02*
X185243733Y-118777180D01*
X185243733Y-118777180D02*
X185291352Y-118824800D01*
X185291352Y-118824800D02*
X185386590Y-118872419D01*
X185386590Y-118872419D02*
X185529447Y-118872419D01*
X184767542Y-118205752D02*
X184767542Y-118872419D01*
X184767542Y-118300990D02*
X184719923Y-118253371D01*
X184719923Y-118253371D02*
X184624685Y-118205752D01*
X184624685Y-118205752D02*
X184481828Y-118205752D01*
X184481828Y-118205752D02*
X184386590Y-118253371D01*
X184386590Y-118253371D02*
X184338971Y-118348609D01*
X184338971Y-118348609D02*
X184338971Y-118872419D01*
X183148494Y-117967657D02*
X183100875Y-117920038D01*
X183100875Y-117920038D02*
X183005637Y-117872419D01*
X183005637Y-117872419D02*
X182767542Y-117872419D01*
X182767542Y-117872419D02*
X182672304Y-117920038D01*
X182672304Y-117920038D02*
X182624685Y-117967657D01*
X182624685Y-117967657D02*
X182577066Y-118062895D01*
X182577066Y-118062895D02*
X182577066Y-118158133D01*
X182577066Y-118158133D02*
X182624685Y-118300990D01*
X182624685Y-118300990D02*
X183196113Y-118872419D01*
X183196113Y-118872419D02*
X182577066Y-118872419D01*
X181958018Y-117872419D02*
X181862780Y-117872419D01*
X181862780Y-117872419D02*
X181767542Y-117920038D01*
X181767542Y-117920038D02*
X181719923Y-117967657D01*
X181719923Y-117967657D02*
X181672304Y-118062895D01*
X181672304Y-118062895D02*
X181624685Y-118253371D01*
X181624685Y-118253371D02*
X181624685Y-118491466D01*
X181624685Y-118491466D02*
X181672304Y-118681942D01*
X181672304Y-118681942D02*
X181719923Y-118777180D01*
X181719923Y-118777180D02*
X181767542Y-118824800D01*
X181767542Y-118824800D02*
X181862780Y-118872419D01*
X181862780Y-118872419D02*
X181958018Y-118872419D01*
X181958018Y-118872419D02*
X182053256Y-118824800D01*
X182053256Y-118824800D02*
X182100875Y-118777180D01*
X182100875Y-118777180D02*
X182148494Y-118681942D01*
X182148494Y-118681942D02*
X182196113Y-118491466D01*
X182196113Y-118491466D02*
X182196113Y-118253371D01*
X182196113Y-118253371D02*
X182148494Y-118062895D01*
X182148494Y-118062895D02*
X182100875Y-117967657D01*
X182100875Y-117967657D02*
X182053256Y-117920038D01*
X182053256Y-117920038D02*
X181958018Y-117872419D01*
X181243732Y-117967657D02*
X181196113Y-117920038D01*
X181196113Y-117920038D02*
X181100875Y-117872419D01*
X181100875Y-117872419D02*
X180862780Y-117872419D01*
X180862780Y-117872419D02*
X180767542Y-117920038D01*
X180767542Y-117920038D02*
X180719923Y-117967657D01*
X180719923Y-117967657D02*
X180672304Y-118062895D01*
X180672304Y-118062895D02*
X180672304Y-118158133D01*
X180672304Y-118158133D02*
X180719923Y-118300990D01*
X180719923Y-118300990D02*
X181291351Y-118872419D01*
X181291351Y-118872419D02*
X180672304Y-118872419D01*
X179815161Y-117872419D02*
X180005637Y-117872419D01*
X180005637Y-117872419D02*
X180100875Y-117920038D01*
X180100875Y-117920038D02*
X180148494Y-117967657D01*
X180148494Y-117967657D02*
X180243732Y-118110514D01*
X180243732Y-118110514D02*
X180291351Y-118300990D01*
X180291351Y-118300990D02*
X180291351Y-118681942D01*
X180291351Y-118681942D02*
X180243732Y-118777180D01*
X180243732Y-118777180D02*
X180196113Y-118824800D01*
X180196113Y-118824800D02*
X180100875Y-118872419D01*
X180100875Y-118872419D02*
X179910399Y-118872419D01*
X179910399Y-118872419D02*
X179815161Y-118824800D01*
X179815161Y-118824800D02*
X179767542Y-118777180D01*
X179767542Y-118777180D02*
X179719923Y-118681942D01*
X179719923Y-118681942D02*
X179719923Y-118443847D01*
X179719923Y-118443847D02*
X179767542Y-118348609D01*
X179767542Y-118348609D02*
X179815161Y-118300990D01*
X179815161Y-118300990D02*
X179910399Y-118253371D01*
X179910399Y-118253371D02*
X180100875Y-118253371D01*
X180100875Y-118253371D02*
X180196113Y-118300990D01*
X180196113Y-118300990D02*
X180243732Y-118348609D01*
X180243732Y-118348609D02*
X180291351Y-118443847D01*
D11*
X146642857Y-80359580D02*
X146690476Y-80407200D01*
X146690476Y-80407200D02*
X146833333Y-80454819D01*
X146833333Y-80454819D02*
X146928571Y-80454819D01*
X146928571Y-80454819D02*
X147071428Y-80407200D01*
X147071428Y-80407200D02*
X147166666Y-80311961D01*
X147166666Y-80311961D02*
X147214285Y-80216723D01*
X147214285Y-80216723D02*
X147261904Y-80026247D01*
X147261904Y-80026247D02*
X147261904Y-79883390D01*
X147261904Y-79883390D02*
X147214285Y-79692914D01*
X147214285Y-79692914D02*
X147166666Y-79597676D01*
X147166666Y-79597676D02*
X147071428Y-79502438D01*
X147071428Y-79502438D02*
X146928571Y-79454819D01*
X146928571Y-79454819D02*
X146833333Y-79454819D01*
X146833333Y-79454819D02*
X146690476Y-79502438D01*
X146690476Y-79502438D02*
X146642857Y-79550057D01*
X146261904Y-79550057D02*
X146214285Y-79502438D01*
X146214285Y-79502438D02*
X146119047Y-79454819D01*
X146119047Y-79454819D02*
X145880952Y-79454819D01*
X145880952Y-79454819D02*
X145785714Y-79502438D01*
X145785714Y-79502438D02*
X145738095Y-79550057D01*
X145738095Y-79550057D02*
X145690476Y-79645295D01*
X145690476Y-79645295D02*
X145690476Y-79740533D01*
X145690476Y-79740533D02*
X145738095Y-79883390D01*
X145738095Y-79883390D02*
X146309523Y-80454819D01*
X146309523Y-80454819D02*
X145690476Y-80454819D01*
X144833333Y-79454819D02*
X145023809Y-79454819D01*
X145023809Y-79454819D02*
X145119047Y-79502438D01*
X145119047Y-79502438D02*
X145166666Y-79550057D01*
X145166666Y-79550057D02*
X145261904Y-79692914D01*
X145261904Y-79692914D02*
X145309523Y-79883390D01*
X145309523Y-79883390D02*
X145309523Y-80264342D01*
X145309523Y-80264342D02*
X145261904Y-80359580D01*
X145261904Y-80359580D02*
X145214285Y-80407200D01*
X145214285Y-80407200D02*
X145119047Y-80454819D01*
X145119047Y-80454819D02*
X144928571Y-80454819D01*
X144928571Y-80454819D02*
X144833333Y-80407200D01*
X144833333Y-80407200D02*
X144785714Y-80359580D01*
X144785714Y-80359580D02*
X144738095Y-80264342D01*
X144738095Y-80264342D02*
X144738095Y-80026247D01*
X144738095Y-80026247D02*
X144785714Y-79931009D01*
X144785714Y-79931009D02*
X144833333Y-79883390D01*
X144833333Y-79883390D02*
X144928571Y-79835771D01*
X144928571Y-79835771D02*
X145119047Y-79835771D01*
X145119047Y-79835771D02*
X145214285Y-79883390D01*
X145214285Y-79883390D02*
X145261904Y-79931009D01*
X145261904Y-79931009D02*
X145309523Y-80026247D01*
X124454819Y-90833333D02*
X123978628Y-90500000D01*
X124454819Y-90261905D02*
X123454819Y-90261905D01*
X123454819Y-90261905D02*
X123454819Y-90642857D01*
X123454819Y-90642857D02*
X123502438Y-90738095D01*
X123502438Y-90738095D02*
X123550057Y-90785714D01*
X123550057Y-90785714D02*
X123645295Y-90833333D01*
X123645295Y-90833333D02*
X123788152Y-90833333D01*
X123788152Y-90833333D02*
X123883390Y-90785714D01*
X123883390Y-90785714D02*
X123931009Y-90738095D01*
X123931009Y-90738095D02*
X123978628Y-90642857D01*
X123978628Y-90642857D02*
X123978628Y-90261905D01*
X123788152Y-91690476D02*
X124454819Y-91690476D01*
X123407200Y-91452381D02*
X124121485Y-91214286D01*
X124121485Y-91214286D02*
X124121485Y-91833333D01*
X137142857Y-101359580D02*
X137190476Y-101407200D01*
X137190476Y-101407200D02*
X137333333Y-101454819D01*
X137333333Y-101454819D02*
X137428571Y-101454819D01*
X137428571Y-101454819D02*
X137571428Y-101407200D01*
X137571428Y-101407200D02*
X137666666Y-101311961D01*
X137666666Y-101311961D02*
X137714285Y-101216723D01*
X137714285Y-101216723D02*
X137761904Y-101026247D01*
X137761904Y-101026247D02*
X137761904Y-100883390D01*
X137761904Y-100883390D02*
X137714285Y-100692914D01*
X137714285Y-100692914D02*
X137666666Y-100597676D01*
X137666666Y-100597676D02*
X137571428Y-100502438D01*
X137571428Y-100502438D02*
X137428571Y-100454819D01*
X137428571Y-100454819D02*
X137333333Y-100454819D01*
X137333333Y-100454819D02*
X137190476Y-100502438D01*
X137190476Y-100502438D02*
X137142857Y-100550057D01*
X136190476Y-101454819D02*
X136761904Y-101454819D01*
X136476190Y-101454819D02*
X136476190Y-100454819D01*
X136476190Y-100454819D02*
X136571428Y-100597676D01*
X136571428Y-100597676D02*
X136666666Y-100692914D01*
X136666666Y-100692914D02*
X136761904Y-100740533D01*
X135571428Y-100454819D02*
X135476190Y-100454819D01*
X135476190Y-100454819D02*
X135380952Y-100502438D01*
X135380952Y-100502438D02*
X135333333Y-100550057D01*
X135333333Y-100550057D02*
X135285714Y-100645295D01*
X135285714Y-100645295D02*
X135238095Y-100835771D01*
X135238095Y-100835771D02*
X135238095Y-101073866D01*
X135238095Y-101073866D02*
X135285714Y-101264342D01*
X135285714Y-101264342D02*
X135333333Y-101359580D01*
X135333333Y-101359580D02*
X135380952Y-101407200D01*
X135380952Y-101407200D02*
X135476190Y-101454819D01*
X135476190Y-101454819D02*
X135571428Y-101454819D01*
X135571428Y-101454819D02*
X135666666Y-101407200D01*
X135666666Y-101407200D02*
X135714285Y-101359580D01*
X135714285Y-101359580D02*
X135761904Y-101264342D01*
X135761904Y-101264342D02*
X135809523Y-101073866D01*
X135809523Y-101073866D02*
X135809523Y-100835771D01*
X135809523Y-100835771D02*
X135761904Y-100645295D01*
X135761904Y-100645295D02*
X135714285Y-100550057D01*
X135714285Y-100550057D02*
X135666666Y-100502438D01*
X135666666Y-100502438D02*
X135571428Y-100454819D01*
X115454819Y-90833333D02*
X114978628Y-90500000D01*
X115454819Y-90261905D02*
X114454819Y-90261905D01*
X114454819Y-90261905D02*
X114454819Y-90642857D01*
X114454819Y-90642857D02*
X114502438Y-90738095D01*
X114502438Y-90738095D02*
X114550057Y-90785714D01*
X114550057Y-90785714D02*
X114645295Y-90833333D01*
X114645295Y-90833333D02*
X114788152Y-90833333D01*
X114788152Y-90833333D02*
X114883390Y-90785714D01*
X114883390Y-90785714D02*
X114931009Y-90738095D01*
X114931009Y-90738095D02*
X114978628Y-90642857D01*
X114978628Y-90642857D02*
X114978628Y-90261905D01*
X114454819Y-91166667D02*
X114454819Y-91833333D01*
X114454819Y-91833333D02*
X115454819Y-91404762D01*
X126862966Y-78399424D02*
X126386775Y-78066091D01*
X126862966Y-77827996D02*
X125862966Y-77827996D01*
X125862966Y-77827996D02*
X125862966Y-78208948D01*
X125862966Y-78208948D02*
X125910585Y-78304186D01*
X125910585Y-78304186D02*
X125958204Y-78351805D01*
X125958204Y-78351805D02*
X126053442Y-78399424D01*
X126053442Y-78399424D02*
X126196299Y-78399424D01*
X126196299Y-78399424D02*
X126291537Y-78351805D01*
X126291537Y-78351805D02*
X126339156Y-78304186D01*
X126339156Y-78304186D02*
X126386775Y-78208948D01*
X126386775Y-78208948D02*
X126386775Y-77827996D01*
X126862966Y-79351805D02*
X126862966Y-78780377D01*
X126862966Y-79066091D02*
X125862966Y-79066091D01*
X125862966Y-79066091D02*
X126005823Y-78970853D01*
X126005823Y-78970853D02*
X126101061Y-78875615D01*
X126101061Y-78875615D02*
X126148680Y-78780377D01*
X125958204Y-79732758D02*
X125910585Y-79780377D01*
X125910585Y-79780377D02*
X125862966Y-79875615D01*
X125862966Y-79875615D02*
X125862966Y-80113710D01*
X125862966Y-80113710D02*
X125910585Y-80208948D01*
X125910585Y-80208948D02*
X125958204Y-80256567D01*
X125958204Y-80256567D02*
X126053442Y-80304186D01*
X126053442Y-80304186D02*
X126148680Y-80304186D01*
X126148680Y-80304186D02*
X126291537Y-80256567D01*
X126291537Y-80256567D02*
X126862966Y-79685139D01*
X126862966Y-79685139D02*
X126862966Y-80304186D01*
X148166666Y-90859580D02*
X148214285Y-90907200D01*
X148214285Y-90907200D02*
X148357142Y-90954819D01*
X148357142Y-90954819D02*
X148452380Y-90954819D01*
X148452380Y-90954819D02*
X148595237Y-90907200D01*
X148595237Y-90907200D02*
X148690475Y-90811961D01*
X148690475Y-90811961D02*
X148738094Y-90716723D01*
X148738094Y-90716723D02*
X148785713Y-90526247D01*
X148785713Y-90526247D02*
X148785713Y-90383390D01*
X148785713Y-90383390D02*
X148738094Y-90192914D01*
X148738094Y-90192914D02*
X148690475Y-90097676D01*
X148690475Y-90097676D02*
X148595237Y-90002438D01*
X148595237Y-90002438D02*
X148452380Y-89954819D01*
X148452380Y-89954819D02*
X148357142Y-89954819D01*
X148357142Y-89954819D02*
X148214285Y-90002438D01*
X148214285Y-90002438D02*
X148166666Y-90050057D01*
X147833332Y-89954819D02*
X147166666Y-89954819D01*
X147166666Y-89954819D02*
X147595237Y-90954819D01*
X113954819Y-78357142D02*
X113478628Y-78023809D01*
X113954819Y-77785714D02*
X112954819Y-77785714D01*
X112954819Y-77785714D02*
X112954819Y-78166666D01*
X112954819Y-78166666D02*
X113002438Y-78261904D01*
X113002438Y-78261904D02*
X113050057Y-78309523D01*
X113050057Y-78309523D02*
X113145295Y-78357142D01*
X113145295Y-78357142D02*
X113288152Y-78357142D01*
X113288152Y-78357142D02*
X113383390Y-78309523D01*
X113383390Y-78309523D02*
X113431009Y-78261904D01*
X113431009Y-78261904D02*
X113478628Y-78166666D01*
X113478628Y-78166666D02*
X113478628Y-77785714D01*
X113954819Y-79309523D02*
X113954819Y-78738095D01*
X113954819Y-79023809D02*
X112954819Y-79023809D01*
X112954819Y-79023809D02*
X113097676Y-78928571D01*
X113097676Y-78928571D02*
X113192914Y-78833333D01*
X113192914Y-78833333D02*
X113240533Y-78738095D01*
X112954819Y-79642857D02*
X112954819Y-80309523D01*
X112954819Y-80309523D02*
X113954819Y-79880952D01*
X131954819Y-78357142D02*
X131478628Y-78023809D01*
X131954819Y-77785714D02*
X130954819Y-77785714D01*
X130954819Y-77785714D02*
X130954819Y-78166666D01*
X130954819Y-78166666D02*
X131002438Y-78261904D01*
X131002438Y-78261904D02*
X131050057Y-78309523D01*
X131050057Y-78309523D02*
X131145295Y-78357142D01*
X131145295Y-78357142D02*
X131288152Y-78357142D01*
X131288152Y-78357142D02*
X131383390Y-78309523D01*
X131383390Y-78309523D02*
X131431009Y-78261904D01*
X131431009Y-78261904D02*
X131478628Y-78166666D01*
X131478628Y-78166666D02*
X131478628Y-77785714D01*
X131954819Y-79309523D02*
X131954819Y-78738095D01*
X131954819Y-79023809D02*
X130954819Y-79023809D01*
X130954819Y-79023809D02*
X131097676Y-78928571D01*
X131097676Y-78928571D02*
X131192914Y-78833333D01*
X131192914Y-78833333D02*
X131240533Y-78738095D01*
X130954819Y-79928571D02*
X130954819Y-80023809D01*
X130954819Y-80023809D02*
X131002438Y-80119047D01*
X131002438Y-80119047D02*
X131050057Y-80166666D01*
X131050057Y-80166666D02*
X131145295Y-80214285D01*
X131145295Y-80214285D02*
X131335771Y-80261904D01*
X131335771Y-80261904D02*
X131573866Y-80261904D01*
X131573866Y-80261904D02*
X131764342Y-80214285D01*
X131764342Y-80214285D02*
X131859580Y-80166666D01*
X131859580Y-80166666D02*
X131907200Y-80119047D01*
X131907200Y-80119047D02*
X131954819Y-80023809D01*
X131954819Y-80023809D02*
X131954819Y-79928571D01*
X131954819Y-79928571D02*
X131907200Y-79833333D01*
X131907200Y-79833333D02*
X131859580Y-79785714D01*
X131859580Y-79785714D02*
X131764342Y-79738095D01*
X131764342Y-79738095D02*
X131573866Y-79690476D01*
X131573866Y-79690476D02*
X131335771Y-79690476D01*
X131335771Y-79690476D02*
X131145295Y-79738095D01*
X131145295Y-79738095D02*
X131050057Y-79785714D01*
X131050057Y-79785714D02*
X131002438Y-79833333D01*
X131002438Y-79833333D02*
X130954819Y-79928571D01*
X149642857Y-113359580D02*
X149690476Y-113407200D01*
X149690476Y-113407200D02*
X149833333Y-113454819D01*
X149833333Y-113454819D02*
X149928571Y-113454819D01*
X149928571Y-113454819D02*
X150071428Y-113407200D01*
X150071428Y-113407200D02*
X150166666Y-113311961D01*
X150166666Y-113311961D02*
X150214285Y-113216723D01*
X150214285Y-113216723D02*
X150261904Y-113026247D01*
X150261904Y-113026247D02*
X150261904Y-112883390D01*
X150261904Y-112883390D02*
X150214285Y-112692914D01*
X150214285Y-112692914D02*
X150166666Y-112597676D01*
X150166666Y-112597676D02*
X150071428Y-112502438D01*
X150071428Y-112502438D02*
X149928571Y-112454819D01*
X149928571Y-112454819D02*
X149833333Y-112454819D01*
X149833333Y-112454819D02*
X149690476Y-112502438D01*
X149690476Y-112502438D02*
X149642857Y-112550057D01*
X149261904Y-112550057D02*
X149214285Y-112502438D01*
X149214285Y-112502438D02*
X149119047Y-112454819D01*
X149119047Y-112454819D02*
X148880952Y-112454819D01*
X148880952Y-112454819D02*
X148785714Y-112502438D01*
X148785714Y-112502438D02*
X148738095Y-112550057D01*
X148738095Y-112550057D02*
X148690476Y-112645295D01*
X148690476Y-112645295D02*
X148690476Y-112740533D01*
X148690476Y-112740533D02*
X148738095Y-112883390D01*
X148738095Y-112883390D02*
X149309523Y-113454819D01*
X149309523Y-113454819D02*
X148690476Y-113454819D01*
X148119047Y-112883390D02*
X148214285Y-112835771D01*
X148214285Y-112835771D02*
X148261904Y-112788152D01*
X148261904Y-112788152D02*
X148309523Y-112692914D01*
X148309523Y-112692914D02*
X148309523Y-112645295D01*
X148309523Y-112645295D02*
X148261904Y-112550057D01*
X148261904Y-112550057D02*
X148214285Y-112502438D01*
X148214285Y-112502438D02*
X148119047Y-112454819D01*
X148119047Y-112454819D02*
X147928571Y-112454819D01*
X147928571Y-112454819D02*
X147833333Y-112502438D01*
X147833333Y-112502438D02*
X147785714Y-112550057D01*
X147785714Y-112550057D02*
X147738095Y-112645295D01*
X147738095Y-112645295D02*
X147738095Y-112692914D01*
X147738095Y-112692914D02*
X147785714Y-112788152D01*
X147785714Y-112788152D02*
X147833333Y-112835771D01*
X147833333Y-112835771D02*
X147928571Y-112883390D01*
X147928571Y-112883390D02*
X148119047Y-112883390D01*
X148119047Y-112883390D02*
X148214285Y-112931009D01*
X148214285Y-112931009D02*
X148261904Y-112978628D01*
X148261904Y-112978628D02*
X148309523Y-113073866D01*
X148309523Y-113073866D02*
X148309523Y-113264342D01*
X148309523Y-113264342D02*
X148261904Y-113359580D01*
X148261904Y-113359580D02*
X148214285Y-113407200D01*
X148214285Y-113407200D02*
X148119047Y-113454819D01*
X148119047Y-113454819D02*
X147928571Y-113454819D01*
X147928571Y-113454819D02*
X147833333Y-113407200D01*
X147833333Y-113407200D02*
X147785714Y-113359580D01*
X147785714Y-113359580D02*
X147738095Y-113264342D01*
X147738095Y-113264342D02*
X147738095Y-113073866D01*
X147738095Y-113073866D02*
X147785714Y-112978628D01*
X147785714Y-112978628D02*
X147833333Y-112931009D01*
X147833333Y-112931009D02*
X147928571Y-112883390D01*
X133454819Y-90833333D02*
X132978628Y-90500000D01*
X133454819Y-90261905D02*
X132454819Y-90261905D01*
X132454819Y-90261905D02*
X132454819Y-90642857D01*
X132454819Y-90642857D02*
X132502438Y-90738095D01*
X132502438Y-90738095D02*
X132550057Y-90785714D01*
X132550057Y-90785714D02*
X132645295Y-90833333D01*
X132645295Y-90833333D02*
X132788152Y-90833333D01*
X132788152Y-90833333D02*
X132883390Y-90785714D01*
X132883390Y-90785714D02*
X132931009Y-90738095D01*
X132931009Y-90738095D02*
X132978628Y-90642857D01*
X132978628Y-90642857D02*
X132978628Y-90261905D01*
X133454819Y-91785714D02*
X133454819Y-91214286D01*
X133454819Y-91500000D02*
X132454819Y-91500000D01*
X132454819Y-91500000D02*
X132597676Y-91404762D01*
X132597676Y-91404762D02*
X132692914Y-91309524D01*
X132692914Y-91309524D02*
X132740533Y-91214286D01*
X168142857Y-75604819D02*
X168476190Y-75128628D01*
X168714285Y-75604819D02*
X168714285Y-74604819D01*
X168714285Y-74604819D02*
X168333333Y-74604819D01*
X168333333Y-74604819D02*
X168238095Y-74652438D01*
X168238095Y-74652438D02*
X168190476Y-74700057D01*
X168190476Y-74700057D02*
X168142857Y-74795295D01*
X168142857Y-74795295D02*
X168142857Y-74938152D01*
X168142857Y-74938152D02*
X168190476Y-75033390D01*
X168190476Y-75033390D02*
X168238095Y-75081009D01*
X168238095Y-75081009D02*
X168333333Y-75128628D01*
X168333333Y-75128628D02*
X168714285Y-75128628D01*
X167190476Y-75604819D02*
X167761904Y-75604819D01*
X167476190Y-75604819D02*
X167476190Y-74604819D01*
X167476190Y-74604819D02*
X167571428Y-74747676D01*
X167571428Y-74747676D02*
X167666666Y-74842914D01*
X167666666Y-74842914D02*
X167761904Y-74890533D01*
X166619047Y-75033390D02*
X166714285Y-74985771D01*
X166714285Y-74985771D02*
X166761904Y-74938152D01*
X166761904Y-74938152D02*
X166809523Y-74842914D01*
X166809523Y-74842914D02*
X166809523Y-74795295D01*
X166809523Y-74795295D02*
X166761904Y-74700057D01*
X166761904Y-74700057D02*
X166714285Y-74652438D01*
X166714285Y-74652438D02*
X166619047Y-74604819D01*
X166619047Y-74604819D02*
X166428571Y-74604819D01*
X166428571Y-74604819D02*
X166333333Y-74652438D01*
X166333333Y-74652438D02*
X166285714Y-74700057D01*
X166285714Y-74700057D02*
X166238095Y-74795295D01*
X166238095Y-74795295D02*
X166238095Y-74842914D01*
X166238095Y-74842914D02*
X166285714Y-74938152D01*
X166285714Y-74938152D02*
X166333333Y-74985771D01*
X166333333Y-74985771D02*
X166428571Y-75033390D01*
X166428571Y-75033390D02*
X166619047Y-75033390D01*
X166619047Y-75033390D02*
X166714285Y-75081009D01*
X166714285Y-75081009D02*
X166761904Y-75128628D01*
X166761904Y-75128628D02*
X166809523Y-75223866D01*
X166809523Y-75223866D02*
X166809523Y-75414342D01*
X166809523Y-75414342D02*
X166761904Y-75509580D01*
X166761904Y-75509580D02*
X166714285Y-75557200D01*
X166714285Y-75557200D02*
X166619047Y-75604819D01*
X166619047Y-75604819D02*
X166428571Y-75604819D01*
X166428571Y-75604819D02*
X166333333Y-75557200D01*
X166333333Y-75557200D02*
X166285714Y-75509580D01*
X166285714Y-75509580D02*
X166238095Y-75414342D01*
X166238095Y-75414342D02*
X166238095Y-75223866D01*
X166238095Y-75223866D02*
X166285714Y-75128628D01*
X166285714Y-75128628D02*
X166333333Y-75081009D01*
X166333333Y-75081009D02*
X166428571Y-75033390D01*
X152142857Y-100859580D02*
X152190476Y-100907200D01*
X152190476Y-100907200D02*
X152333333Y-100954819D01*
X152333333Y-100954819D02*
X152428571Y-100954819D01*
X152428571Y-100954819D02*
X152571428Y-100907200D01*
X152571428Y-100907200D02*
X152666666Y-100811961D01*
X152666666Y-100811961D02*
X152714285Y-100716723D01*
X152714285Y-100716723D02*
X152761904Y-100526247D01*
X152761904Y-100526247D02*
X152761904Y-100383390D01*
X152761904Y-100383390D02*
X152714285Y-100192914D01*
X152714285Y-100192914D02*
X152666666Y-100097676D01*
X152666666Y-100097676D02*
X152571428Y-100002438D01*
X152571428Y-100002438D02*
X152428571Y-99954819D01*
X152428571Y-99954819D02*
X152333333Y-99954819D01*
X152333333Y-99954819D02*
X152190476Y-100002438D01*
X152190476Y-100002438D02*
X152142857Y-100050057D01*
X151190476Y-100954819D02*
X151761904Y-100954819D01*
X151476190Y-100954819D02*
X151476190Y-99954819D01*
X151476190Y-99954819D02*
X151571428Y-100097676D01*
X151571428Y-100097676D02*
X151666666Y-100192914D01*
X151666666Y-100192914D02*
X151761904Y-100240533D01*
X150238095Y-100954819D02*
X150809523Y-100954819D01*
X150523809Y-100954819D02*
X150523809Y-99954819D01*
X150523809Y-99954819D02*
X150619047Y-100097676D01*
X150619047Y-100097676D02*
X150714285Y-100192914D01*
X150714285Y-100192914D02*
X150809523Y-100240533D01*
X147642857Y-100859580D02*
X147690476Y-100907200D01*
X147690476Y-100907200D02*
X147833333Y-100954819D01*
X147833333Y-100954819D02*
X147928571Y-100954819D01*
X147928571Y-100954819D02*
X148071428Y-100907200D01*
X148071428Y-100907200D02*
X148166666Y-100811961D01*
X148166666Y-100811961D02*
X148214285Y-100716723D01*
X148214285Y-100716723D02*
X148261904Y-100526247D01*
X148261904Y-100526247D02*
X148261904Y-100383390D01*
X148261904Y-100383390D02*
X148214285Y-100192914D01*
X148214285Y-100192914D02*
X148166666Y-100097676D01*
X148166666Y-100097676D02*
X148071428Y-100002438D01*
X148071428Y-100002438D02*
X147928571Y-99954819D01*
X147928571Y-99954819D02*
X147833333Y-99954819D01*
X147833333Y-99954819D02*
X147690476Y-100002438D01*
X147690476Y-100002438D02*
X147642857Y-100050057D01*
X146690476Y-100954819D02*
X147261904Y-100954819D01*
X146976190Y-100954819D02*
X146976190Y-99954819D01*
X146976190Y-99954819D02*
X147071428Y-100097676D01*
X147071428Y-100097676D02*
X147166666Y-100192914D01*
X147166666Y-100192914D02*
X147261904Y-100240533D01*
X146309523Y-100050057D02*
X146261904Y-100002438D01*
X146261904Y-100002438D02*
X146166666Y-99954819D01*
X146166666Y-99954819D02*
X145928571Y-99954819D01*
X145928571Y-99954819D02*
X145833333Y-100002438D01*
X145833333Y-100002438D02*
X145785714Y-100050057D01*
X145785714Y-100050057D02*
X145738095Y-100145295D01*
X145738095Y-100145295D02*
X145738095Y-100240533D01*
X145738095Y-100240533D02*
X145785714Y-100383390D01*
X145785714Y-100383390D02*
X146357142Y-100954819D01*
X146357142Y-100954819D02*
X145738095Y-100954819D01*
X121680912Y-78370064D02*
X121204721Y-78036731D01*
X121680912Y-77798636D02*
X120680912Y-77798636D01*
X120680912Y-77798636D02*
X120680912Y-78179588D01*
X120680912Y-78179588D02*
X120728531Y-78274826D01*
X120728531Y-78274826D02*
X120776150Y-78322445D01*
X120776150Y-78322445D02*
X120871388Y-78370064D01*
X120871388Y-78370064D02*
X121014245Y-78370064D01*
X121014245Y-78370064D02*
X121109483Y-78322445D01*
X121109483Y-78322445D02*
X121157102Y-78274826D01*
X121157102Y-78274826D02*
X121204721Y-78179588D01*
X121204721Y-78179588D02*
X121204721Y-77798636D01*
X121680912Y-79322445D02*
X121680912Y-78751017D01*
X121680912Y-79036731D02*
X120680912Y-79036731D01*
X120680912Y-79036731D02*
X120823769Y-78941493D01*
X120823769Y-78941493D02*
X120919007Y-78846255D01*
X120919007Y-78846255D02*
X120966626Y-78751017D01*
X121014245Y-80179588D02*
X121680912Y-80179588D01*
X120633293Y-79941493D02*
X121347578Y-79703398D01*
X121347578Y-79703398D02*
X121347578Y-80322445D01*
X116526248Y-78357142D02*
X116050057Y-78023809D01*
X116526248Y-77785714D02*
X115526248Y-77785714D01*
X115526248Y-77785714D02*
X115526248Y-78166666D01*
X115526248Y-78166666D02*
X115573867Y-78261904D01*
X115573867Y-78261904D02*
X115621486Y-78309523D01*
X115621486Y-78309523D02*
X115716724Y-78357142D01*
X115716724Y-78357142D02*
X115859581Y-78357142D01*
X115859581Y-78357142D02*
X115954819Y-78309523D01*
X115954819Y-78309523D02*
X116002438Y-78261904D01*
X116002438Y-78261904D02*
X116050057Y-78166666D01*
X116050057Y-78166666D02*
X116050057Y-77785714D01*
X116526248Y-79309523D02*
X116526248Y-78738095D01*
X116526248Y-79023809D02*
X115526248Y-79023809D01*
X115526248Y-79023809D02*
X115669105Y-78928571D01*
X115669105Y-78928571D02*
X115764343Y-78833333D01*
X115764343Y-78833333D02*
X115811962Y-78738095D01*
X115526248Y-80166666D02*
X115526248Y-79976190D01*
X115526248Y-79976190D02*
X115573867Y-79880952D01*
X115573867Y-79880952D02*
X115621486Y-79833333D01*
X115621486Y-79833333D02*
X115764343Y-79738095D01*
X115764343Y-79738095D02*
X115954819Y-79690476D01*
X115954819Y-79690476D02*
X116335771Y-79690476D01*
X116335771Y-79690476D02*
X116431009Y-79738095D01*
X116431009Y-79738095D02*
X116478629Y-79785714D01*
X116478629Y-79785714D02*
X116526248Y-79880952D01*
X116526248Y-79880952D02*
X116526248Y-80071428D01*
X116526248Y-80071428D02*
X116478629Y-80166666D01*
X116478629Y-80166666D02*
X116431009Y-80214285D01*
X116431009Y-80214285D02*
X116335771Y-80261904D01*
X116335771Y-80261904D02*
X116097676Y-80261904D01*
X116097676Y-80261904D02*
X116002438Y-80214285D01*
X116002438Y-80214285D02*
X115954819Y-80166666D01*
X115954819Y-80166666D02*
X115907200Y-80071428D01*
X115907200Y-80071428D02*
X115907200Y-79880952D01*
X115907200Y-79880952D02*
X115954819Y-79785714D01*
X115954819Y-79785714D02*
X116002438Y-79738095D01*
X116002438Y-79738095D02*
X116097676Y-79690476D01*
X157642857Y-87859580D02*
X157690476Y-87907200D01*
X157690476Y-87907200D02*
X157833333Y-87954819D01*
X157833333Y-87954819D02*
X157928571Y-87954819D01*
X157928571Y-87954819D02*
X158071428Y-87907200D01*
X158071428Y-87907200D02*
X158166666Y-87811961D01*
X158166666Y-87811961D02*
X158214285Y-87716723D01*
X158214285Y-87716723D02*
X158261904Y-87526247D01*
X158261904Y-87526247D02*
X158261904Y-87383390D01*
X158261904Y-87383390D02*
X158214285Y-87192914D01*
X158214285Y-87192914D02*
X158166666Y-87097676D01*
X158166666Y-87097676D02*
X158071428Y-87002438D01*
X158071428Y-87002438D02*
X157928571Y-86954819D01*
X157928571Y-86954819D02*
X157833333Y-86954819D01*
X157833333Y-86954819D02*
X157690476Y-87002438D01*
X157690476Y-87002438D02*
X157642857Y-87050057D01*
X157261904Y-87050057D02*
X157214285Y-87002438D01*
X157214285Y-87002438D02*
X157119047Y-86954819D01*
X157119047Y-86954819D02*
X156880952Y-86954819D01*
X156880952Y-86954819D02*
X156785714Y-87002438D01*
X156785714Y-87002438D02*
X156738095Y-87050057D01*
X156738095Y-87050057D02*
X156690476Y-87145295D01*
X156690476Y-87145295D02*
X156690476Y-87240533D01*
X156690476Y-87240533D02*
X156738095Y-87383390D01*
X156738095Y-87383390D02*
X157309523Y-87954819D01*
X157309523Y-87954819D02*
X156690476Y-87954819D01*
X155738095Y-87954819D02*
X156309523Y-87954819D01*
X156023809Y-87954819D02*
X156023809Y-86954819D01*
X156023809Y-86954819D02*
X156119047Y-87097676D01*
X156119047Y-87097676D02*
X156214285Y-87192914D01*
X156214285Y-87192914D02*
X156309523Y-87240533D01*
X158142857Y-93859580D02*
X158190476Y-93907200D01*
X158190476Y-93907200D02*
X158333333Y-93954819D01*
X158333333Y-93954819D02*
X158428571Y-93954819D01*
X158428571Y-93954819D02*
X158571428Y-93907200D01*
X158571428Y-93907200D02*
X158666666Y-93811961D01*
X158666666Y-93811961D02*
X158714285Y-93716723D01*
X158714285Y-93716723D02*
X158761904Y-93526247D01*
X158761904Y-93526247D02*
X158761904Y-93383390D01*
X158761904Y-93383390D02*
X158714285Y-93192914D01*
X158714285Y-93192914D02*
X158666666Y-93097676D01*
X158666666Y-93097676D02*
X158571428Y-93002438D01*
X158571428Y-93002438D02*
X158428571Y-92954819D01*
X158428571Y-92954819D02*
X158333333Y-92954819D01*
X158333333Y-92954819D02*
X158190476Y-93002438D01*
X158190476Y-93002438D02*
X158142857Y-93050057D01*
X157190476Y-93954819D02*
X157761904Y-93954819D01*
X157476190Y-93954819D02*
X157476190Y-92954819D01*
X157476190Y-92954819D02*
X157571428Y-93097676D01*
X157571428Y-93097676D02*
X157666666Y-93192914D01*
X157666666Y-93192914D02*
X157761904Y-93240533D01*
X156333333Y-93288152D02*
X156333333Y-93954819D01*
X156571428Y-92907200D02*
X156809523Y-93621485D01*
X156809523Y-93621485D02*
X156190476Y-93621485D01*
X145142857Y-113359580D02*
X145190476Y-113407200D01*
X145190476Y-113407200D02*
X145333333Y-113454819D01*
X145333333Y-113454819D02*
X145428571Y-113454819D01*
X145428571Y-113454819D02*
X145571428Y-113407200D01*
X145571428Y-113407200D02*
X145666666Y-113311961D01*
X145666666Y-113311961D02*
X145714285Y-113216723D01*
X145714285Y-113216723D02*
X145761904Y-113026247D01*
X145761904Y-113026247D02*
X145761904Y-112883390D01*
X145761904Y-112883390D02*
X145714285Y-112692914D01*
X145714285Y-112692914D02*
X145666666Y-112597676D01*
X145666666Y-112597676D02*
X145571428Y-112502438D01*
X145571428Y-112502438D02*
X145428571Y-112454819D01*
X145428571Y-112454819D02*
X145333333Y-112454819D01*
X145333333Y-112454819D02*
X145190476Y-112502438D01*
X145190476Y-112502438D02*
X145142857Y-112550057D01*
X144761904Y-112550057D02*
X144714285Y-112502438D01*
X144714285Y-112502438D02*
X144619047Y-112454819D01*
X144619047Y-112454819D02*
X144380952Y-112454819D01*
X144380952Y-112454819D02*
X144285714Y-112502438D01*
X144285714Y-112502438D02*
X144238095Y-112550057D01*
X144238095Y-112550057D02*
X144190476Y-112645295D01*
X144190476Y-112645295D02*
X144190476Y-112740533D01*
X144190476Y-112740533D02*
X144238095Y-112883390D01*
X144238095Y-112883390D02*
X144809523Y-113454819D01*
X144809523Y-113454819D02*
X144190476Y-113454819D01*
X143857142Y-112454819D02*
X143190476Y-112454819D01*
X143190476Y-112454819D02*
X143619047Y-113454819D01*
X151666666Y-85859580D02*
X151714285Y-85907200D01*
X151714285Y-85907200D02*
X151857142Y-85954819D01*
X151857142Y-85954819D02*
X151952380Y-85954819D01*
X151952380Y-85954819D02*
X152095237Y-85907200D01*
X152095237Y-85907200D02*
X152190475Y-85811961D01*
X152190475Y-85811961D02*
X152238094Y-85716723D01*
X152238094Y-85716723D02*
X152285713Y-85526247D01*
X152285713Y-85526247D02*
X152285713Y-85383390D01*
X152285713Y-85383390D02*
X152238094Y-85192914D01*
X152238094Y-85192914D02*
X152190475Y-85097676D01*
X152190475Y-85097676D02*
X152095237Y-85002438D01*
X152095237Y-85002438D02*
X151952380Y-84954819D01*
X151952380Y-84954819D02*
X151857142Y-84954819D01*
X151857142Y-84954819D02*
X151714285Y-85002438D01*
X151714285Y-85002438D02*
X151666666Y-85050057D01*
X150761904Y-84954819D02*
X151238094Y-84954819D01*
X151238094Y-84954819D02*
X151285713Y-85431009D01*
X151285713Y-85431009D02*
X151238094Y-85383390D01*
X151238094Y-85383390D02*
X151142856Y-85335771D01*
X151142856Y-85335771D02*
X150904761Y-85335771D01*
X150904761Y-85335771D02*
X150809523Y-85383390D01*
X150809523Y-85383390D02*
X150761904Y-85431009D01*
X150761904Y-85431009D02*
X150714285Y-85526247D01*
X150714285Y-85526247D02*
X150714285Y-85764342D01*
X150714285Y-85764342D02*
X150761904Y-85859580D01*
X150761904Y-85859580D02*
X150809523Y-85907200D01*
X150809523Y-85907200D02*
X150904761Y-85954819D01*
X150904761Y-85954819D02*
X151142856Y-85954819D01*
X151142856Y-85954819D02*
X151238094Y-85907200D01*
X151238094Y-85907200D02*
X151285713Y-85859580D01*
X137099416Y-99098853D02*
X137147035Y-99146473D01*
X137147035Y-99146473D02*
X137289892Y-99194092D01*
X137289892Y-99194092D02*
X137385130Y-99194092D01*
X137385130Y-99194092D02*
X137527987Y-99146473D01*
X137527987Y-99146473D02*
X137623225Y-99051234D01*
X137623225Y-99051234D02*
X137670844Y-98955996D01*
X137670844Y-98955996D02*
X137718463Y-98765520D01*
X137718463Y-98765520D02*
X137718463Y-98622663D01*
X137718463Y-98622663D02*
X137670844Y-98432187D01*
X137670844Y-98432187D02*
X137623225Y-98336949D01*
X137623225Y-98336949D02*
X137527987Y-98241711D01*
X137527987Y-98241711D02*
X137385130Y-98194092D01*
X137385130Y-98194092D02*
X137289892Y-98194092D01*
X137289892Y-98194092D02*
X137147035Y-98241711D01*
X137147035Y-98241711D02*
X137099416Y-98289330D01*
X136623225Y-99194092D02*
X136432749Y-99194092D01*
X136432749Y-99194092D02*
X136337511Y-99146473D01*
X136337511Y-99146473D02*
X136289892Y-99098853D01*
X136289892Y-99098853D02*
X136194654Y-98955996D01*
X136194654Y-98955996D02*
X136147035Y-98765520D01*
X136147035Y-98765520D02*
X136147035Y-98384568D01*
X136147035Y-98384568D02*
X136194654Y-98289330D01*
X136194654Y-98289330D02*
X136242273Y-98241711D01*
X136242273Y-98241711D02*
X136337511Y-98194092D01*
X136337511Y-98194092D02*
X136527987Y-98194092D01*
X136527987Y-98194092D02*
X136623225Y-98241711D01*
X136623225Y-98241711D02*
X136670844Y-98289330D01*
X136670844Y-98289330D02*
X136718463Y-98384568D01*
X136718463Y-98384568D02*
X136718463Y-98622663D01*
X136718463Y-98622663D02*
X136670844Y-98717901D01*
X136670844Y-98717901D02*
X136623225Y-98765520D01*
X136623225Y-98765520D02*
X136527987Y-98813139D01*
X136527987Y-98813139D02*
X136337511Y-98813139D01*
X136337511Y-98813139D02*
X136242273Y-98765520D01*
X136242273Y-98765520D02*
X136194654Y-98717901D01*
X136194654Y-98717901D02*
X136147035Y-98622663D01*
X127454819Y-90833333D02*
X126978628Y-90500000D01*
X127454819Y-90261905D02*
X126454819Y-90261905D01*
X126454819Y-90261905D02*
X126454819Y-90642857D01*
X126454819Y-90642857D02*
X126502438Y-90738095D01*
X126502438Y-90738095D02*
X126550057Y-90785714D01*
X126550057Y-90785714D02*
X126645295Y-90833333D01*
X126645295Y-90833333D02*
X126788152Y-90833333D01*
X126788152Y-90833333D02*
X126883390Y-90785714D01*
X126883390Y-90785714D02*
X126931009Y-90738095D01*
X126931009Y-90738095D02*
X126978628Y-90642857D01*
X126978628Y-90642857D02*
X126978628Y-90261905D01*
X126454819Y-91166667D02*
X126454819Y-91785714D01*
X126454819Y-91785714D02*
X126835771Y-91452381D01*
X126835771Y-91452381D02*
X126835771Y-91595238D01*
X126835771Y-91595238D02*
X126883390Y-91690476D01*
X126883390Y-91690476D02*
X126931009Y-91738095D01*
X126931009Y-91738095D02*
X127026247Y-91785714D01*
X127026247Y-91785714D02*
X127264342Y-91785714D01*
X127264342Y-91785714D02*
X127359580Y-91738095D01*
X127359580Y-91738095D02*
X127407200Y-91690476D01*
X127407200Y-91690476D02*
X127454819Y-91595238D01*
X127454819Y-91595238D02*
X127454819Y-91309524D01*
X127454819Y-91309524D02*
X127407200Y-91214286D01*
X127407200Y-91214286D02*
X127359580Y-91166667D01*
X121454819Y-90833333D02*
X120978628Y-90500000D01*
X121454819Y-90261905D02*
X120454819Y-90261905D01*
X120454819Y-90261905D02*
X120454819Y-90642857D01*
X120454819Y-90642857D02*
X120502438Y-90738095D01*
X120502438Y-90738095D02*
X120550057Y-90785714D01*
X120550057Y-90785714D02*
X120645295Y-90833333D01*
X120645295Y-90833333D02*
X120788152Y-90833333D01*
X120788152Y-90833333D02*
X120883390Y-90785714D01*
X120883390Y-90785714D02*
X120931009Y-90738095D01*
X120931009Y-90738095D02*
X120978628Y-90642857D01*
X120978628Y-90642857D02*
X120978628Y-90261905D01*
X120454819Y-91738095D02*
X120454819Y-91261905D01*
X120454819Y-91261905D02*
X120931009Y-91214286D01*
X120931009Y-91214286D02*
X120883390Y-91261905D01*
X120883390Y-91261905D02*
X120835771Y-91357143D01*
X120835771Y-91357143D02*
X120835771Y-91595238D01*
X120835771Y-91595238D02*
X120883390Y-91690476D01*
X120883390Y-91690476D02*
X120931009Y-91738095D01*
X120931009Y-91738095D02*
X121026247Y-91785714D01*
X121026247Y-91785714D02*
X121264342Y-91785714D01*
X121264342Y-91785714D02*
X121359580Y-91738095D01*
X121359580Y-91738095D02*
X121407200Y-91690476D01*
X121407200Y-91690476D02*
X121454819Y-91595238D01*
X121454819Y-91595238D02*
X121454819Y-91357143D01*
X121454819Y-91357143D02*
X121407200Y-91261905D01*
X121407200Y-91261905D02*
X121359580Y-91214286D01*
X154142857Y-87859580D02*
X154190476Y-87907200D01*
X154190476Y-87907200D02*
X154333333Y-87954819D01*
X154333333Y-87954819D02*
X154428571Y-87954819D01*
X154428571Y-87954819D02*
X154571428Y-87907200D01*
X154571428Y-87907200D02*
X154666666Y-87811961D01*
X154666666Y-87811961D02*
X154714285Y-87716723D01*
X154714285Y-87716723D02*
X154761904Y-87526247D01*
X154761904Y-87526247D02*
X154761904Y-87383390D01*
X154761904Y-87383390D02*
X154714285Y-87192914D01*
X154714285Y-87192914D02*
X154666666Y-87097676D01*
X154666666Y-87097676D02*
X154571428Y-87002438D01*
X154571428Y-87002438D02*
X154428571Y-86954819D01*
X154428571Y-86954819D02*
X154333333Y-86954819D01*
X154333333Y-86954819D02*
X154190476Y-87002438D01*
X154190476Y-87002438D02*
X154142857Y-87050057D01*
X153761904Y-87050057D02*
X153714285Y-87002438D01*
X153714285Y-87002438D02*
X153619047Y-86954819D01*
X153619047Y-86954819D02*
X153380952Y-86954819D01*
X153380952Y-86954819D02*
X153285714Y-87002438D01*
X153285714Y-87002438D02*
X153238095Y-87050057D01*
X153238095Y-87050057D02*
X153190476Y-87145295D01*
X153190476Y-87145295D02*
X153190476Y-87240533D01*
X153190476Y-87240533D02*
X153238095Y-87383390D01*
X153238095Y-87383390D02*
X153809523Y-87954819D01*
X153809523Y-87954819D02*
X153190476Y-87954819D01*
X152809523Y-87050057D02*
X152761904Y-87002438D01*
X152761904Y-87002438D02*
X152666666Y-86954819D01*
X152666666Y-86954819D02*
X152428571Y-86954819D01*
X152428571Y-86954819D02*
X152333333Y-87002438D01*
X152333333Y-87002438D02*
X152285714Y-87050057D01*
X152285714Y-87050057D02*
X152238095Y-87145295D01*
X152238095Y-87145295D02*
X152238095Y-87240533D01*
X152238095Y-87240533D02*
X152285714Y-87383390D01*
X152285714Y-87383390D02*
X152857142Y-87954819D01*
X152857142Y-87954819D02*
X152238095Y-87954819D01*
X129454819Y-78357142D02*
X128978628Y-78023809D01*
X129454819Y-77785714D02*
X128454819Y-77785714D01*
X128454819Y-77785714D02*
X128454819Y-78166666D01*
X128454819Y-78166666D02*
X128502438Y-78261904D01*
X128502438Y-78261904D02*
X128550057Y-78309523D01*
X128550057Y-78309523D02*
X128645295Y-78357142D01*
X128645295Y-78357142D02*
X128788152Y-78357142D01*
X128788152Y-78357142D02*
X128883390Y-78309523D01*
X128883390Y-78309523D02*
X128931009Y-78261904D01*
X128931009Y-78261904D02*
X128978628Y-78166666D01*
X128978628Y-78166666D02*
X128978628Y-77785714D01*
X129454819Y-79309523D02*
X129454819Y-78738095D01*
X129454819Y-79023809D02*
X128454819Y-79023809D01*
X128454819Y-79023809D02*
X128597676Y-78928571D01*
X128597676Y-78928571D02*
X128692914Y-78833333D01*
X128692914Y-78833333D02*
X128740533Y-78738095D01*
X129454819Y-80261904D02*
X129454819Y-79690476D01*
X129454819Y-79976190D02*
X128454819Y-79976190D01*
X128454819Y-79976190D02*
X128597676Y-79880952D01*
X128597676Y-79880952D02*
X128692914Y-79785714D01*
X128692914Y-79785714D02*
X128740533Y-79690476D01*
X177642857Y-75604819D02*
X177976190Y-75128628D01*
X178214285Y-75604819D02*
X178214285Y-74604819D01*
X178214285Y-74604819D02*
X177833333Y-74604819D01*
X177833333Y-74604819D02*
X177738095Y-74652438D01*
X177738095Y-74652438D02*
X177690476Y-74700057D01*
X177690476Y-74700057D02*
X177642857Y-74795295D01*
X177642857Y-74795295D02*
X177642857Y-74938152D01*
X177642857Y-74938152D02*
X177690476Y-75033390D01*
X177690476Y-75033390D02*
X177738095Y-75081009D01*
X177738095Y-75081009D02*
X177833333Y-75128628D01*
X177833333Y-75128628D02*
X178214285Y-75128628D01*
X176690476Y-75604819D02*
X177261904Y-75604819D01*
X176976190Y-75604819D02*
X176976190Y-74604819D01*
X176976190Y-74604819D02*
X177071428Y-74747676D01*
X177071428Y-74747676D02*
X177166666Y-74842914D01*
X177166666Y-74842914D02*
X177261904Y-74890533D01*
X176214285Y-75604819D02*
X176023809Y-75604819D01*
X176023809Y-75604819D02*
X175928571Y-75557200D01*
X175928571Y-75557200D02*
X175880952Y-75509580D01*
X175880952Y-75509580D02*
X175785714Y-75366723D01*
X175785714Y-75366723D02*
X175738095Y-75176247D01*
X175738095Y-75176247D02*
X175738095Y-74795295D01*
X175738095Y-74795295D02*
X175785714Y-74700057D01*
X175785714Y-74700057D02*
X175833333Y-74652438D01*
X175833333Y-74652438D02*
X175928571Y-74604819D01*
X175928571Y-74604819D02*
X176119047Y-74604819D01*
X176119047Y-74604819D02*
X176214285Y-74652438D01*
X176214285Y-74652438D02*
X176261904Y-74700057D01*
X176261904Y-74700057D02*
X176309523Y-74795295D01*
X176309523Y-74795295D02*
X176309523Y-75033390D01*
X176309523Y-75033390D02*
X176261904Y-75128628D01*
X176261904Y-75128628D02*
X176214285Y-75176247D01*
X176214285Y-75176247D02*
X176119047Y-75223866D01*
X176119047Y-75223866D02*
X175928571Y-75223866D01*
X175928571Y-75223866D02*
X175833333Y-75176247D01*
X175833333Y-75176247D02*
X175785714Y-75128628D01*
X175785714Y-75128628D02*
X175738095Y-75033390D01*
X147666666Y-85859580D02*
X147714285Y-85907200D01*
X147714285Y-85907200D02*
X147857142Y-85954819D01*
X147857142Y-85954819D02*
X147952380Y-85954819D01*
X147952380Y-85954819D02*
X148095237Y-85907200D01*
X148095237Y-85907200D02*
X148190475Y-85811961D01*
X148190475Y-85811961D02*
X148238094Y-85716723D01*
X148238094Y-85716723D02*
X148285713Y-85526247D01*
X148285713Y-85526247D02*
X148285713Y-85383390D01*
X148285713Y-85383390D02*
X148238094Y-85192914D01*
X148238094Y-85192914D02*
X148190475Y-85097676D01*
X148190475Y-85097676D02*
X148095237Y-85002438D01*
X148095237Y-85002438D02*
X147952380Y-84954819D01*
X147952380Y-84954819D02*
X147857142Y-84954819D01*
X147857142Y-84954819D02*
X147714285Y-85002438D01*
X147714285Y-85002438D02*
X147666666Y-85050057D01*
X146809523Y-84954819D02*
X146999999Y-84954819D01*
X146999999Y-84954819D02*
X147095237Y-85002438D01*
X147095237Y-85002438D02*
X147142856Y-85050057D01*
X147142856Y-85050057D02*
X147238094Y-85192914D01*
X147238094Y-85192914D02*
X147285713Y-85383390D01*
X147285713Y-85383390D02*
X147285713Y-85764342D01*
X147285713Y-85764342D02*
X147238094Y-85859580D01*
X147238094Y-85859580D02*
X147190475Y-85907200D01*
X147190475Y-85907200D02*
X147095237Y-85954819D01*
X147095237Y-85954819D02*
X146904761Y-85954819D01*
X146904761Y-85954819D02*
X146809523Y-85907200D01*
X146809523Y-85907200D02*
X146761904Y-85859580D01*
X146761904Y-85859580D02*
X146714285Y-85764342D01*
X146714285Y-85764342D02*
X146714285Y-85526247D01*
X146714285Y-85526247D02*
X146761904Y-85431009D01*
X146761904Y-85431009D02*
X146809523Y-85383390D01*
X146809523Y-85383390D02*
X146904761Y-85335771D01*
X146904761Y-85335771D02*
X147095237Y-85335771D01*
X147095237Y-85335771D02*
X147190475Y-85383390D01*
X147190475Y-85383390D02*
X147238094Y-85431009D01*
X147238094Y-85431009D02*
X147285713Y-85526247D01*
X130454819Y-90833333D02*
X129978628Y-90500000D01*
X130454819Y-90261905D02*
X129454819Y-90261905D01*
X129454819Y-90261905D02*
X129454819Y-90642857D01*
X129454819Y-90642857D02*
X129502438Y-90738095D01*
X129502438Y-90738095D02*
X129550057Y-90785714D01*
X129550057Y-90785714D02*
X129645295Y-90833333D01*
X129645295Y-90833333D02*
X129788152Y-90833333D01*
X129788152Y-90833333D02*
X129883390Y-90785714D01*
X129883390Y-90785714D02*
X129931009Y-90738095D01*
X129931009Y-90738095D02*
X129978628Y-90642857D01*
X129978628Y-90642857D02*
X129978628Y-90261905D01*
X129550057Y-91214286D02*
X129502438Y-91261905D01*
X129502438Y-91261905D02*
X129454819Y-91357143D01*
X129454819Y-91357143D02*
X129454819Y-91595238D01*
X129454819Y-91595238D02*
X129502438Y-91690476D01*
X129502438Y-91690476D02*
X129550057Y-91738095D01*
X129550057Y-91738095D02*
X129645295Y-91785714D01*
X129645295Y-91785714D02*
X129740533Y-91785714D01*
X129740533Y-91785714D02*
X129883390Y-91738095D01*
X129883390Y-91738095D02*
X130454819Y-91166667D01*
X130454819Y-91166667D02*
X130454819Y-91785714D01*
X130666666Y-105304819D02*
X130999999Y-104828628D01*
X131238094Y-105304819D02*
X131238094Y-104304819D01*
X131238094Y-104304819D02*
X130857142Y-104304819D01*
X130857142Y-104304819D02*
X130761904Y-104352438D01*
X130761904Y-104352438D02*
X130714285Y-104400057D01*
X130714285Y-104400057D02*
X130666666Y-104495295D01*
X130666666Y-104495295D02*
X130666666Y-104638152D01*
X130666666Y-104638152D02*
X130714285Y-104733390D01*
X130714285Y-104733390D02*
X130761904Y-104781009D01*
X130761904Y-104781009D02*
X130857142Y-104828628D01*
X130857142Y-104828628D02*
X131238094Y-104828628D01*
X130190475Y-105304819D02*
X129999999Y-105304819D01*
X129999999Y-105304819D02*
X129904761Y-105257200D01*
X129904761Y-105257200D02*
X129857142Y-105209580D01*
X129857142Y-105209580D02*
X129761904Y-105066723D01*
X129761904Y-105066723D02*
X129714285Y-104876247D01*
X129714285Y-104876247D02*
X129714285Y-104495295D01*
X129714285Y-104495295D02*
X129761904Y-104400057D01*
X129761904Y-104400057D02*
X129809523Y-104352438D01*
X129809523Y-104352438D02*
X129904761Y-104304819D01*
X129904761Y-104304819D02*
X130095237Y-104304819D01*
X130095237Y-104304819D02*
X130190475Y-104352438D01*
X130190475Y-104352438D02*
X130238094Y-104400057D01*
X130238094Y-104400057D02*
X130285713Y-104495295D01*
X130285713Y-104495295D02*
X130285713Y-104733390D01*
X130285713Y-104733390D02*
X130238094Y-104828628D01*
X130238094Y-104828628D02*
X130190475Y-104876247D01*
X130190475Y-104876247D02*
X130095237Y-104923866D01*
X130095237Y-104923866D02*
X129904761Y-104923866D01*
X129904761Y-104923866D02*
X129809523Y-104876247D01*
X129809523Y-104876247D02*
X129761904Y-104828628D01*
X129761904Y-104828628D02*
X129714285Y-104733390D01*
X112454819Y-90833333D02*
X111978628Y-90500000D01*
X112454819Y-90261905D02*
X111454819Y-90261905D01*
X111454819Y-90261905D02*
X111454819Y-90642857D01*
X111454819Y-90642857D02*
X111502438Y-90738095D01*
X111502438Y-90738095D02*
X111550057Y-90785714D01*
X111550057Y-90785714D02*
X111645295Y-90833333D01*
X111645295Y-90833333D02*
X111788152Y-90833333D01*
X111788152Y-90833333D02*
X111883390Y-90785714D01*
X111883390Y-90785714D02*
X111931009Y-90738095D01*
X111931009Y-90738095D02*
X111978628Y-90642857D01*
X111978628Y-90642857D02*
X111978628Y-90261905D01*
X111883390Y-91404762D02*
X111835771Y-91309524D01*
X111835771Y-91309524D02*
X111788152Y-91261905D01*
X111788152Y-91261905D02*
X111692914Y-91214286D01*
X111692914Y-91214286D02*
X111645295Y-91214286D01*
X111645295Y-91214286D02*
X111550057Y-91261905D01*
X111550057Y-91261905D02*
X111502438Y-91309524D01*
X111502438Y-91309524D02*
X111454819Y-91404762D01*
X111454819Y-91404762D02*
X111454819Y-91595238D01*
X111454819Y-91595238D02*
X111502438Y-91690476D01*
X111502438Y-91690476D02*
X111550057Y-91738095D01*
X111550057Y-91738095D02*
X111645295Y-91785714D01*
X111645295Y-91785714D02*
X111692914Y-91785714D01*
X111692914Y-91785714D02*
X111788152Y-91738095D01*
X111788152Y-91738095D02*
X111835771Y-91690476D01*
X111835771Y-91690476D02*
X111883390Y-91595238D01*
X111883390Y-91595238D02*
X111883390Y-91404762D01*
X111883390Y-91404762D02*
X111931009Y-91309524D01*
X111931009Y-91309524D02*
X111978628Y-91261905D01*
X111978628Y-91261905D02*
X112073866Y-91214286D01*
X112073866Y-91214286D02*
X112264342Y-91214286D01*
X112264342Y-91214286D02*
X112359580Y-91261905D01*
X112359580Y-91261905D02*
X112407200Y-91309524D01*
X112407200Y-91309524D02*
X112454819Y-91404762D01*
X112454819Y-91404762D02*
X112454819Y-91595238D01*
X112454819Y-91595238D02*
X112407200Y-91690476D01*
X112407200Y-91690476D02*
X112359580Y-91738095D01*
X112359580Y-91738095D02*
X112264342Y-91785714D01*
X112264342Y-91785714D02*
X112073866Y-91785714D01*
X112073866Y-91785714D02*
X111978628Y-91738095D01*
X111978628Y-91738095D02*
X111931009Y-91690476D01*
X111931009Y-91690476D02*
X111883390Y-91595238D01*
X150666666Y-90859580D02*
X150714285Y-90907200D01*
X150714285Y-90907200D02*
X150857142Y-90954819D01*
X150857142Y-90954819D02*
X150952380Y-90954819D01*
X150952380Y-90954819D02*
X151095237Y-90907200D01*
X151095237Y-90907200D02*
X151190475Y-90811961D01*
X151190475Y-90811961D02*
X151238094Y-90716723D01*
X151238094Y-90716723D02*
X151285713Y-90526247D01*
X151285713Y-90526247D02*
X151285713Y-90383390D01*
X151285713Y-90383390D02*
X151238094Y-90192914D01*
X151238094Y-90192914D02*
X151190475Y-90097676D01*
X151190475Y-90097676D02*
X151095237Y-90002438D01*
X151095237Y-90002438D02*
X150952380Y-89954819D01*
X150952380Y-89954819D02*
X150857142Y-89954819D01*
X150857142Y-89954819D02*
X150714285Y-90002438D01*
X150714285Y-90002438D02*
X150666666Y-90050057D01*
X150095237Y-90383390D02*
X150190475Y-90335771D01*
X150190475Y-90335771D02*
X150238094Y-90288152D01*
X150238094Y-90288152D02*
X150285713Y-90192914D01*
X150285713Y-90192914D02*
X150285713Y-90145295D01*
X150285713Y-90145295D02*
X150238094Y-90050057D01*
X150238094Y-90050057D02*
X150190475Y-90002438D01*
X150190475Y-90002438D02*
X150095237Y-89954819D01*
X150095237Y-89954819D02*
X149904761Y-89954819D01*
X149904761Y-89954819D02*
X149809523Y-90002438D01*
X149809523Y-90002438D02*
X149761904Y-90050057D01*
X149761904Y-90050057D02*
X149714285Y-90145295D01*
X149714285Y-90145295D02*
X149714285Y-90192914D01*
X149714285Y-90192914D02*
X149761904Y-90288152D01*
X149761904Y-90288152D02*
X149809523Y-90335771D01*
X149809523Y-90335771D02*
X149904761Y-90383390D01*
X149904761Y-90383390D02*
X150095237Y-90383390D01*
X150095237Y-90383390D02*
X150190475Y-90431009D01*
X150190475Y-90431009D02*
X150238094Y-90478628D01*
X150238094Y-90478628D02*
X150285713Y-90573866D01*
X150285713Y-90573866D02*
X150285713Y-90764342D01*
X150285713Y-90764342D02*
X150238094Y-90859580D01*
X150238094Y-90859580D02*
X150190475Y-90907200D01*
X150190475Y-90907200D02*
X150095237Y-90954819D01*
X150095237Y-90954819D02*
X149904761Y-90954819D01*
X149904761Y-90954819D02*
X149809523Y-90907200D01*
X149809523Y-90907200D02*
X149761904Y-90859580D01*
X149761904Y-90859580D02*
X149714285Y-90764342D01*
X149714285Y-90764342D02*
X149714285Y-90573866D01*
X149714285Y-90573866D02*
X149761904Y-90478628D01*
X149761904Y-90478628D02*
X149809523Y-90431009D01*
X149809523Y-90431009D02*
X149904761Y-90383390D01*
X154142857Y-93859580D02*
X154190476Y-93907200D01*
X154190476Y-93907200D02*
X154333333Y-93954819D01*
X154333333Y-93954819D02*
X154428571Y-93954819D01*
X154428571Y-93954819D02*
X154571428Y-93907200D01*
X154571428Y-93907200D02*
X154666666Y-93811961D01*
X154666666Y-93811961D02*
X154714285Y-93716723D01*
X154714285Y-93716723D02*
X154761904Y-93526247D01*
X154761904Y-93526247D02*
X154761904Y-93383390D01*
X154761904Y-93383390D02*
X154714285Y-93192914D01*
X154714285Y-93192914D02*
X154666666Y-93097676D01*
X154666666Y-93097676D02*
X154571428Y-93002438D01*
X154571428Y-93002438D02*
X154428571Y-92954819D01*
X154428571Y-92954819D02*
X154333333Y-92954819D01*
X154333333Y-92954819D02*
X154190476Y-93002438D01*
X154190476Y-93002438D02*
X154142857Y-93050057D01*
X153190476Y-93954819D02*
X153761904Y-93954819D01*
X153476190Y-93954819D02*
X153476190Y-92954819D01*
X153476190Y-92954819D02*
X153571428Y-93097676D01*
X153571428Y-93097676D02*
X153666666Y-93192914D01*
X153666666Y-93192914D02*
X153761904Y-93240533D01*
X152857142Y-92954819D02*
X152238095Y-92954819D01*
X152238095Y-92954819D02*
X152571428Y-93335771D01*
X152571428Y-93335771D02*
X152428571Y-93335771D01*
X152428571Y-93335771D02*
X152333333Y-93383390D01*
X152333333Y-93383390D02*
X152285714Y-93431009D01*
X152285714Y-93431009D02*
X152238095Y-93526247D01*
X152238095Y-93526247D02*
X152238095Y-93764342D01*
X152238095Y-93764342D02*
X152285714Y-93859580D01*
X152285714Y-93859580D02*
X152333333Y-93907200D01*
X152333333Y-93907200D02*
X152428571Y-93954819D01*
X152428571Y-93954819D02*
X152714285Y-93954819D01*
X152714285Y-93954819D02*
X152809523Y-93907200D01*
X152809523Y-93907200D02*
X152857142Y-93859580D01*
X142142857Y-80359580D02*
X142190476Y-80407200D01*
X142190476Y-80407200D02*
X142333333Y-80454819D01*
X142333333Y-80454819D02*
X142428571Y-80454819D01*
X142428571Y-80454819D02*
X142571428Y-80407200D01*
X142571428Y-80407200D02*
X142666666Y-80311961D01*
X142666666Y-80311961D02*
X142714285Y-80216723D01*
X142714285Y-80216723D02*
X142761904Y-80026247D01*
X142761904Y-80026247D02*
X142761904Y-79883390D01*
X142761904Y-79883390D02*
X142714285Y-79692914D01*
X142714285Y-79692914D02*
X142666666Y-79597676D01*
X142666666Y-79597676D02*
X142571428Y-79502438D01*
X142571428Y-79502438D02*
X142428571Y-79454819D01*
X142428571Y-79454819D02*
X142333333Y-79454819D01*
X142333333Y-79454819D02*
X142190476Y-79502438D01*
X142190476Y-79502438D02*
X142142857Y-79550057D01*
X141761904Y-79550057D02*
X141714285Y-79502438D01*
X141714285Y-79502438D02*
X141619047Y-79454819D01*
X141619047Y-79454819D02*
X141380952Y-79454819D01*
X141380952Y-79454819D02*
X141285714Y-79502438D01*
X141285714Y-79502438D02*
X141238095Y-79550057D01*
X141238095Y-79550057D02*
X141190476Y-79645295D01*
X141190476Y-79645295D02*
X141190476Y-79740533D01*
X141190476Y-79740533D02*
X141238095Y-79883390D01*
X141238095Y-79883390D02*
X141809523Y-80454819D01*
X141809523Y-80454819D02*
X141190476Y-80454819D01*
X140285714Y-79454819D02*
X140761904Y-79454819D01*
X140761904Y-79454819D02*
X140809523Y-79931009D01*
X140809523Y-79931009D02*
X140761904Y-79883390D01*
X140761904Y-79883390D02*
X140666666Y-79835771D01*
X140666666Y-79835771D02*
X140428571Y-79835771D01*
X140428571Y-79835771D02*
X140333333Y-79883390D01*
X140333333Y-79883390D02*
X140285714Y-79931009D01*
X140285714Y-79931009D02*
X140238095Y-80026247D01*
X140238095Y-80026247D02*
X140238095Y-80264342D01*
X140238095Y-80264342D02*
X140285714Y-80359580D01*
X140285714Y-80359580D02*
X140333333Y-80407200D01*
X140333333Y-80407200D02*
X140428571Y-80454819D01*
X140428571Y-80454819D02*
X140666666Y-80454819D01*
X140666666Y-80454819D02*
X140761904Y-80407200D01*
X140761904Y-80407200D02*
X140809523Y-80359580D01*
X118954819Y-78357142D02*
X118478628Y-78023809D01*
X118954819Y-77785714D02*
X117954819Y-77785714D01*
X117954819Y-77785714D02*
X117954819Y-78166666D01*
X117954819Y-78166666D02*
X118002438Y-78261904D01*
X118002438Y-78261904D02*
X118050057Y-78309523D01*
X118050057Y-78309523D02*
X118145295Y-78357142D01*
X118145295Y-78357142D02*
X118288152Y-78357142D01*
X118288152Y-78357142D02*
X118383390Y-78309523D01*
X118383390Y-78309523D02*
X118431009Y-78261904D01*
X118431009Y-78261904D02*
X118478628Y-78166666D01*
X118478628Y-78166666D02*
X118478628Y-77785714D01*
X118954819Y-79309523D02*
X118954819Y-78738095D01*
X118954819Y-79023809D02*
X117954819Y-79023809D01*
X117954819Y-79023809D02*
X118097676Y-78928571D01*
X118097676Y-78928571D02*
X118192914Y-78833333D01*
X118192914Y-78833333D02*
X118240533Y-78738095D01*
X117954819Y-80214285D02*
X117954819Y-79738095D01*
X117954819Y-79738095D02*
X118431009Y-79690476D01*
X118431009Y-79690476D02*
X118383390Y-79738095D01*
X118383390Y-79738095D02*
X118335771Y-79833333D01*
X118335771Y-79833333D02*
X118335771Y-80071428D01*
X118335771Y-80071428D02*
X118383390Y-80166666D01*
X118383390Y-80166666D02*
X118431009Y-80214285D01*
X118431009Y-80214285D02*
X118526247Y-80261904D01*
X118526247Y-80261904D02*
X118764342Y-80261904D01*
X118764342Y-80261904D02*
X118859580Y-80214285D01*
X118859580Y-80214285D02*
X118907200Y-80166666D01*
X118907200Y-80166666D02*
X118954819Y-80071428D01*
X118954819Y-80071428D02*
X118954819Y-79833333D01*
X118954819Y-79833333D02*
X118907200Y-79738095D01*
X118907200Y-79738095D02*
X118859580Y-79690476D01*
X118454819Y-90833333D02*
X117978628Y-90500000D01*
X118454819Y-90261905D02*
X117454819Y-90261905D01*
X117454819Y-90261905D02*
X117454819Y-90642857D01*
X117454819Y-90642857D02*
X117502438Y-90738095D01*
X117502438Y-90738095D02*
X117550057Y-90785714D01*
X117550057Y-90785714D02*
X117645295Y-90833333D01*
X117645295Y-90833333D02*
X117788152Y-90833333D01*
X117788152Y-90833333D02*
X117883390Y-90785714D01*
X117883390Y-90785714D02*
X117931009Y-90738095D01*
X117931009Y-90738095D02*
X117978628Y-90642857D01*
X117978628Y-90642857D02*
X117978628Y-90261905D01*
X117454819Y-91690476D02*
X117454819Y-91500000D01*
X117454819Y-91500000D02*
X117502438Y-91404762D01*
X117502438Y-91404762D02*
X117550057Y-91357143D01*
X117550057Y-91357143D02*
X117692914Y-91261905D01*
X117692914Y-91261905D02*
X117883390Y-91214286D01*
X117883390Y-91214286D02*
X118264342Y-91214286D01*
X118264342Y-91214286D02*
X118359580Y-91261905D01*
X118359580Y-91261905D02*
X118407200Y-91309524D01*
X118407200Y-91309524D02*
X118454819Y-91404762D01*
X118454819Y-91404762D02*
X118454819Y-91595238D01*
X118454819Y-91595238D02*
X118407200Y-91690476D01*
X118407200Y-91690476D02*
X118359580Y-91738095D01*
X118359580Y-91738095D02*
X118264342Y-91785714D01*
X118264342Y-91785714D02*
X118026247Y-91785714D01*
X118026247Y-91785714D02*
X117931009Y-91738095D01*
X117931009Y-91738095D02*
X117883390Y-91690476D01*
X117883390Y-91690476D02*
X117835771Y-91595238D01*
X117835771Y-91595238D02*
X117835771Y-91404762D01*
X117835771Y-91404762D02*
X117883390Y-91309524D01*
X117883390Y-91309524D02*
X117931009Y-91261905D01*
X117931009Y-91261905D02*
X118026247Y-91214286D01*
X124235239Y-78399424D02*
X123759048Y-78066091D01*
X124235239Y-77827996D02*
X123235239Y-77827996D01*
X123235239Y-77827996D02*
X123235239Y-78208948D01*
X123235239Y-78208948D02*
X123282858Y-78304186D01*
X123282858Y-78304186D02*
X123330477Y-78351805D01*
X123330477Y-78351805D02*
X123425715Y-78399424D01*
X123425715Y-78399424D02*
X123568572Y-78399424D01*
X123568572Y-78399424D02*
X123663810Y-78351805D01*
X123663810Y-78351805D02*
X123711429Y-78304186D01*
X123711429Y-78304186D02*
X123759048Y-78208948D01*
X123759048Y-78208948D02*
X123759048Y-77827996D01*
X124235239Y-79351805D02*
X124235239Y-78780377D01*
X124235239Y-79066091D02*
X123235239Y-79066091D01*
X123235239Y-79066091D02*
X123378096Y-78970853D01*
X123378096Y-78970853D02*
X123473334Y-78875615D01*
X123473334Y-78875615D02*
X123520953Y-78780377D01*
X123235239Y-79685139D02*
X123235239Y-80304186D01*
X123235239Y-80304186D02*
X123616191Y-79970853D01*
X123616191Y-79970853D02*
X123616191Y-80113710D01*
X123616191Y-80113710D02*
X123663810Y-80208948D01*
X123663810Y-80208948D02*
X123711429Y-80256567D01*
X123711429Y-80256567D02*
X123806667Y-80304186D01*
X123806667Y-80304186D02*
X124044762Y-80304186D01*
X124044762Y-80304186D02*
X124140000Y-80256567D01*
X124140000Y-80256567D02*
X124187620Y-80208948D01*
X124187620Y-80208948D02*
X124235239Y-80113710D01*
X124235239Y-80113710D02*
X124235239Y-79827996D01*
X124235239Y-79827996D02*
X124187620Y-79732758D01*
X124187620Y-79732758D02*
X124140000Y-79685139D01*
D12*
%TO.C,C26*%
X144265000Y-82201248D02*
X144265000Y-82723752D01*
X145735000Y-82201248D02*
X145735000Y-82723752D01*
%TO.C,R4*%
X123265000Y-87772936D02*
X123265000Y-88227064D01*
X124735000Y-87772936D02*
X124735000Y-88227064D01*
%TO.C,C10*%
X140223752Y-100265000D02*
X139701248Y-100265000D01*
X140223752Y-101735000D02*
X139701248Y-101735000D01*
%TO.C,R7*%
X114265000Y-87772936D02*
X114265000Y-88227064D01*
X115735000Y-87772936D02*
X115735000Y-88227064D01*
%TO.C,R12*%
X125622143Y-75272936D02*
X125622143Y-75727064D01*
X127092143Y-75272936D02*
X127092143Y-75727064D01*
%TO.C,C7*%
X147265000Y-92776248D02*
X147265000Y-93298752D01*
X148735000Y-92776248D02*
X148735000Y-93298752D01*
%TO.C,R17*%
X112765000Y-75272936D02*
X112765000Y-75727064D01*
X114235000Y-75272936D02*
X114235000Y-75727064D01*
%TO.C,R10*%
X130765000Y-75272936D02*
X130765000Y-75727064D01*
X132235000Y-75272936D02*
X132235000Y-75727064D01*
%TO.C,C28*%
X147265000Y-115201248D02*
X147265000Y-115723752D01*
X148735000Y-115201248D02*
X148735000Y-115723752D01*
%TO.C,R1*%
X132265000Y-87772936D02*
X132265000Y-88227064D01*
X133735000Y-87772936D02*
X133735000Y-88227064D01*
%TO.C,R18*%
X167272936Y-72765000D02*
X167727064Y-72765000D01*
X167272936Y-74235000D02*
X167727064Y-74235000D01*
%TO.C,C11*%
X149765000Y-98261252D02*
X149765000Y-97738748D01*
X151235000Y-98261252D02*
X151235000Y-97738748D01*
%TO.C,C12*%
X147265000Y-98298752D02*
X147265000Y-97776248D01*
X148735000Y-98298752D02*
X148735000Y-97776248D01*
%TO.C,R14*%
X120479286Y-75272936D02*
X120479286Y-75727064D01*
X121949286Y-75272936D02*
X121949286Y-75727064D01*
%TO.C,R16*%
X115265000Y-75272936D02*
X115265000Y-75727064D01*
X116735000Y-75272936D02*
X116735000Y-75727064D01*
%TO.C,C21*%
X155765000Y-90223752D02*
X155765000Y-89701248D01*
X157235000Y-90223752D02*
X157235000Y-89701248D01*
%TO.C,C14*%
X155765000Y-96223752D02*
X155765000Y-95701248D01*
X157235000Y-96223752D02*
X157235000Y-95701248D01*
%TO.C,C27*%
X144765000Y-115201248D02*
X144765000Y-115723752D01*
X146235000Y-115201248D02*
X146235000Y-115723752D01*
%TO.C,C5*%
X149765000Y-88223752D02*
X149765000Y-87701248D01*
X151235000Y-88223752D02*
X151235000Y-87701248D01*
%TO.C,C9*%
X140223752Y-97977500D02*
X139701248Y-97977500D01*
X140223752Y-99447500D02*
X139701248Y-99447500D01*
%TO.C,R3*%
X126265000Y-87772936D02*
X126265000Y-88227064D01*
X127735000Y-87772936D02*
X127735000Y-88227064D01*
%TO.C,R5*%
X120265000Y-87772936D02*
X120265000Y-88227064D01*
X121735000Y-87772936D02*
X121735000Y-88227064D01*
%TO.C,C22*%
X153255000Y-90223752D02*
X153255000Y-89701248D01*
X154725000Y-90223752D02*
X154725000Y-89701248D01*
%TO.C,R11*%
X128193571Y-75272936D02*
X128193571Y-75727064D01*
X129663571Y-75272936D02*
X129663571Y-75727064D01*
%TO.C,R19*%
X176772936Y-72765000D02*
X177227064Y-72765000D01*
X176772936Y-74235000D02*
X177227064Y-74235000D01*
%TO.C,C6*%
X147255000Y-88223752D02*
X147255000Y-87701248D01*
X148725000Y-88223752D02*
X148725000Y-87701248D01*
%TO.C,R2*%
X129265000Y-87772936D02*
X129265000Y-88227064D01*
X130735000Y-87772936D02*
X130735000Y-88227064D01*
%TO.C,R9*%
X130727064Y-105765000D02*
X130272936Y-105765000D01*
X130727064Y-107235000D02*
X130272936Y-107235000D01*
%TO.C,R8*%
X111265000Y-87772936D02*
X111265000Y-88227064D01*
X112735000Y-87772936D02*
X112735000Y-88227064D01*
%TO.C,C8*%
X149765000Y-92776248D02*
X149765000Y-93298752D01*
X151235000Y-92776248D02*
X151235000Y-93298752D01*
%TO.C,C13*%
X153265000Y-96223752D02*
X153265000Y-95701248D01*
X154735000Y-96223752D02*
X154735000Y-95701248D01*
%TO.C,C25*%
X141765000Y-82201248D02*
X141765000Y-82723752D01*
X143235000Y-82201248D02*
X143235000Y-82723752D01*
%TO.C,R15*%
X117907857Y-75272936D02*
X117907857Y-75727064D01*
X119377857Y-75272936D02*
X119377857Y-75727064D01*
%TO.C,R6*%
X117265000Y-87772936D02*
X117265000Y-88227064D01*
X118735000Y-87772936D02*
X118735000Y-88227064D01*
%TO.C,R13*%
X123050714Y-75272936D02*
X123050714Y-75727064D01*
X124520714Y-75272936D02*
X124520714Y-75727064D01*
%TD*%
M02*
