%TF.GenerationSoftware,KiCad,Pcbnew,9.0.5*%
%TF.CreationDate,2026-02-11T19:47:49-06:00*%
%TF.ProjectId,ADC,4144432e-6b69-4636-9164-5f7063625858,rev?*%
%TF.SameCoordinates,Original*%
%TF.FileFunction,Copper,L2,Bot*%
%TF.FilePolarity,Positive*%
%FSLAX46Y46*%
G04 Gerber Fmt 4.6, Leading zero omitted, Abs format (unit mm)*
G04 Created by KiCad (PCBNEW 9.0.5) date 2026-02-11 19:47:49*
%MOMM*%
%LPD*%
G01*
G04 APERTURE LIST*
G04 Aperture macros list*
%AMRoundRect*
0 Rectangle with rounded corners*
0 $1 Rounding radius*
0 $2 $3 $4 $5 $6 $7 $8 $9 X,Y pos of 4 corners*
0 Add a 4 corners polygon primitive as box body*
4,1,4,$2,$3,$4,$5,$6,$7,$8,$9,$2,$3,0*
0 Add four circle primitives for the rounded corners*
1,1,$1+$1,$2,$3*
1,1,$1+$1,$4,$5*
1,1,$1+$1,$6,$7*
1,1,$1+$1,$8,$9*
0 Add four rect primitives between the rounded corners*
20,1,$1+$1,$2,$3,$4,$5,0*
20,1,$1+$1,$4,$5,$6,$7,0*
20,1,$1+$1,$6,$7,$8,$9,0*
20,1,$1+$1,$8,$9,$2,$3,0*%
G04 Aperture macros list end*
%TA.AperFunction,ComponentPad*%
%ADD10C,3.800000*%
%TD*%
%TA.AperFunction,ComponentPad*%
%ADD11R,2.500000X2.500000*%
%TD*%
%TA.AperFunction,ComponentPad*%
%ADD12R,1.700000X1.700000*%
%TD*%
%TA.AperFunction,ComponentPad*%
%ADD13C,1.700000*%
%TD*%
%TA.AperFunction,SMDPad,CuDef*%
%ADD14RoundRect,0.250000X-0.475000X0.337500X-0.475000X-0.337500X0.475000X-0.337500X0.475000X0.337500X0*%
%TD*%
%TA.AperFunction,SMDPad,CuDef*%
%ADD15RoundRect,0.250000X-0.450000X0.350000X-0.450000X-0.350000X0.450000X-0.350000X0.450000X0.350000X0*%
%TD*%
%TA.AperFunction,SMDPad,CuDef*%
%ADD16RoundRect,0.250000X0.337500X0.475000X-0.337500X0.475000X-0.337500X-0.475000X0.337500X-0.475000X0*%
%TD*%
%TA.AperFunction,SMDPad,CuDef*%
%ADD17RoundRect,0.250000X-0.350000X-0.450000X0.350000X-0.450000X0.350000X0.450000X-0.350000X0.450000X0*%
%TD*%
%TA.AperFunction,SMDPad,CuDef*%
%ADD18RoundRect,0.250000X0.475000X-0.337500X0.475000X0.337500X-0.475000X0.337500X-0.475000X-0.337500X0*%
%TD*%
%TA.AperFunction,SMDPad,CuDef*%
%ADD19RoundRect,0.250000X0.350000X0.450000X-0.350000X0.450000X-0.350000X-0.450000X0.350000X-0.450000X0*%
%TD*%
%TA.AperFunction,ViaPad*%
%ADD20C,0.600000*%
%TD*%
%TA.AperFunction,Conductor*%
%ADD21C,0.350000*%
%TD*%
%TA.AperFunction,Conductor*%
%ADD22C,0.250000*%
%TD*%
G04 APERTURE END LIST*
D10*
%TO.P,,1*%
%TO.N,GND*%
X103500000Y-117500000D03*
%TD*%
%TO.P,,1*%
%TO.N,GND*%
X199000000Y-117500000D03*
%TD*%
%TO.P,,1*%
%TO.N,GND*%
X199000000Y-73000000D03*
%TD*%
%TO.P,REF\u002A\u002A,1*%
%TO.N,GND*%
X103500000Y-73000000D03*
%TD*%
D11*
%TO.P,TP4,1,1*%
%TO.N,GND*%
X104500000Y-111000000D03*
%TD*%
%TO.P,TP1,1,1*%
%TO.N,VCC*%
X199000000Y-80000000D03*
%TD*%
D12*
%TO.P,J1,1,Pin_1*%
%TO.N,3.3V*%
X157700000Y-73500000D03*
D13*
%TO.P,J1,2,Pin_2*%
%TO.N,GND*%
X155160000Y-73500000D03*
%TO.P,J1,3,Pin_3*%
%TO.N,TCK*%
X152620000Y-73500000D03*
%TO.P,J1,4,Pin_4*%
%TO.N,TDO*%
X150080000Y-73500000D03*
%TO.P,J1,5,Pin_5*%
%TO.N,TDI*%
X147540000Y-73500000D03*
%TO.P,J1,6,Pin_6*%
%TO.N,TMS*%
X145000000Y-73500000D03*
%TD*%
D11*
%TO.P,TP3,1,1*%
%TO.N,Vin*%
X104500000Y-80000000D03*
%TD*%
%TO.P,TP2,1,1*%
%TO.N,GND*%
X199000000Y-111000000D03*
%TD*%
D14*
%TO.P,C26,1*%
%TO.N,GND*%
X145000000Y-81425000D03*
%TO.P,C26,2*%
%TO.N,3.3V*%
X145000000Y-83500000D03*
%TD*%
D15*
%TO.P,R4,1*%
%TO.N,Net-(R4-Pad1)*%
X124000000Y-87000000D03*
%TO.P,R4,2*%
%TO.N,GND*%
X124000000Y-89000000D03*
%TD*%
D16*
%TO.P,C10,1*%
%TO.N,3.3V*%
X141000000Y-101000000D03*
%TO.P,C10,2*%
%TO.N,GND*%
X138925000Y-101000000D03*
%TD*%
D15*
%TO.P,R7,1*%
%TO.N,Net-(R7-Pad1)*%
X115000000Y-87000000D03*
%TO.P,R7,2*%
%TO.N,GND*%
X115000000Y-89000000D03*
%TD*%
%TO.P,R12,1*%
%TO.N,Net-(D3-K)*%
X126357143Y-74500000D03*
%TO.P,R12,2*%
%TO.N,GND*%
X126357143Y-76500000D03*
%TD*%
D14*
%TO.P,C7,1*%
%TO.N,3.3V*%
X148000000Y-92000000D03*
%TO.P,C7,2*%
%TO.N,GND*%
X148000000Y-94075000D03*
%TD*%
D15*
%TO.P,R17,1*%
%TO.N,Net-(D8-K)*%
X113500000Y-74500000D03*
%TO.P,R17,2*%
%TO.N,GND*%
X113500000Y-76500000D03*
%TD*%
%TO.P,R10,1*%
%TO.N,Net-(D1-K)*%
X131500000Y-74500000D03*
%TO.P,R10,2*%
%TO.N,GND*%
X131500000Y-76500000D03*
%TD*%
D14*
%TO.P,C28,1*%
%TO.N,3.3V*%
X148000000Y-114425000D03*
%TO.P,C28,2*%
%TO.N,GND*%
X148000000Y-116500000D03*
%TD*%
D15*
%TO.P,R1,1*%
%TO.N,Net-(R1-Pad1)*%
X133000000Y-87000000D03*
%TO.P,R1,2*%
%TO.N,GND*%
X133000000Y-89000000D03*
%TD*%
D17*
%TO.P,R18,1*%
%TO.N,Net-(D9-K)*%
X166500000Y-73500000D03*
%TO.P,R18,2*%
%TO.N,GND*%
X168500000Y-73500000D03*
%TD*%
D18*
%TO.P,C11,1*%
%TO.N,3.3V*%
X150500000Y-99037500D03*
%TO.P,C11,2*%
%TO.N,GND*%
X150500000Y-96962500D03*
%TD*%
%TO.P,C12,1*%
%TO.N,3.3V*%
X148000000Y-99075000D03*
%TO.P,C12,2*%
%TO.N,GND*%
X148000000Y-97000000D03*
%TD*%
D15*
%TO.P,R14,1*%
%TO.N,Net-(D5-K)*%
X121214286Y-74500000D03*
%TO.P,R14,2*%
%TO.N,GND*%
X121214286Y-76500000D03*
%TD*%
%TO.P,R16,1*%
%TO.N,Net-(D7-K)*%
X116000000Y-74500000D03*
%TO.P,R16,2*%
%TO.N,GND*%
X116000000Y-76500000D03*
%TD*%
D18*
%TO.P,C21,1*%
%TO.N,GND*%
X156500000Y-91000000D03*
%TO.P,C21,2*%
%TO.N,3.3V*%
X156500000Y-88925000D03*
%TD*%
%TO.P,C14,1*%
%TO.N,3.3V*%
X156500000Y-97000000D03*
%TO.P,C14,2*%
%TO.N,GND*%
X156500000Y-94925000D03*
%TD*%
D14*
%TO.P,C27,1*%
%TO.N,3.3V*%
X145500000Y-114425000D03*
%TO.P,C27,2*%
%TO.N,GND*%
X145500000Y-116500000D03*
%TD*%
D18*
%TO.P,C5,1*%
%TO.N,3.3V*%
X150500000Y-89000000D03*
%TO.P,C5,2*%
%TO.N,GND*%
X150500000Y-86925000D03*
%TD*%
D16*
%TO.P,C9,1*%
%TO.N,3.3V*%
X141000000Y-98712500D03*
%TO.P,C9,2*%
%TO.N,GND*%
X138925000Y-98712500D03*
%TD*%
D15*
%TO.P,R3,1*%
%TO.N,Net-(R3-Pad1)*%
X127000000Y-87000000D03*
%TO.P,R3,2*%
%TO.N,GND*%
X127000000Y-89000000D03*
%TD*%
%TO.P,R5,1*%
%TO.N,Net-(R5-Pad1)*%
X121000000Y-87000000D03*
%TO.P,R5,2*%
%TO.N,GND*%
X121000000Y-89000000D03*
%TD*%
D18*
%TO.P,C22,1*%
%TO.N,GND*%
X153990000Y-91000000D03*
%TO.P,C22,2*%
%TO.N,3.3V*%
X153990000Y-88925000D03*
%TD*%
D15*
%TO.P,R11,1*%
%TO.N,Net-(D2-K)*%
X128928571Y-74500000D03*
%TO.P,R11,2*%
%TO.N,GND*%
X128928571Y-76500000D03*
%TD*%
D17*
%TO.P,R19,1*%
%TO.N,Net-(D10-K)*%
X176000000Y-73500000D03*
%TO.P,R19,2*%
%TO.N,GND*%
X178000000Y-73500000D03*
%TD*%
D18*
%TO.P,C6,1*%
%TO.N,3.3V*%
X147990000Y-89000000D03*
%TO.P,C6,2*%
%TO.N,GND*%
X147990000Y-86925000D03*
%TD*%
D15*
%TO.P,R2,1*%
%TO.N,Net-(R2-Pad1)*%
X130000000Y-87000000D03*
%TO.P,R2,2*%
%TO.N,GND*%
X130000000Y-89000000D03*
%TD*%
D19*
%TO.P,R9,1*%
%TO.N,Net-(S2-COM_1)*%
X131500000Y-106500000D03*
%TO.P,R9,2*%
%TO.N,GND*%
X129500000Y-106500000D03*
%TD*%
D15*
%TO.P,R8,1*%
%TO.N,Net-(R8-Pad1)*%
X112000000Y-87000000D03*
%TO.P,R8,2*%
%TO.N,GND*%
X112000000Y-89000000D03*
%TD*%
D14*
%TO.P,C8,1*%
%TO.N,3.3V*%
X150500000Y-92000000D03*
%TO.P,C8,2*%
%TO.N,GND*%
X150500000Y-94075000D03*
%TD*%
D18*
%TO.P,C13,1*%
%TO.N,3.3V*%
X154000000Y-97000000D03*
%TO.P,C13,2*%
%TO.N,GND*%
X154000000Y-94925000D03*
%TD*%
D14*
%TO.P,C25,1*%
%TO.N,GND*%
X142500000Y-81425000D03*
%TO.P,C25,2*%
%TO.N,3.3V*%
X142500000Y-83500000D03*
%TD*%
D15*
%TO.P,R15,1*%
%TO.N,Net-(D6-K)*%
X118642857Y-74500000D03*
%TO.P,R15,2*%
%TO.N,GND*%
X118642857Y-76500000D03*
%TD*%
%TO.P,R6,1*%
%TO.N,Net-(R6-Pad1)*%
X118000000Y-87000000D03*
%TO.P,R6,2*%
%TO.N,GND*%
X118000000Y-89000000D03*
%TD*%
%TO.P,R13,1*%
%TO.N,Net-(D4-K)*%
X123785714Y-74500000D03*
%TO.P,R13,2*%
%TO.N,GND*%
X123785714Y-76500000D03*
%TD*%
D20*
%TO.N,GND*%
X200060000Y-113680000D03*
X200060000Y-108600000D03*
X200060000Y-106060000D03*
X200060000Y-103520000D03*
X200060000Y-100980000D03*
X200060000Y-98440000D03*
X200060000Y-95900000D03*
X200060000Y-93360000D03*
X200060000Y-90820000D03*
X200060000Y-88280000D03*
X200060000Y-85740000D03*
X200060000Y-83200000D03*
X200060000Y-78120000D03*
X200060000Y-75580000D03*
X197520000Y-113680000D03*
X197520000Y-108600000D03*
X197520000Y-106060000D03*
X197520000Y-103520000D03*
X197520000Y-100980000D03*
X197520000Y-95900000D03*
X197520000Y-93360000D03*
X197520000Y-90820000D03*
X197520000Y-88280000D03*
X197520000Y-85740000D03*
X197520000Y-83200000D03*
X197520000Y-78120000D03*
X197520000Y-75580000D03*
X194980000Y-118760000D03*
X194980000Y-116220000D03*
X194980000Y-106060000D03*
X194980000Y-103520000D03*
X194980000Y-98440000D03*
X194980000Y-95900000D03*
X194980000Y-80660000D03*
X194980000Y-78120000D03*
X194980000Y-75580000D03*
X194980000Y-73040000D03*
X192440000Y-118760000D03*
X192440000Y-116220000D03*
X192440000Y-113680000D03*
X192440000Y-111140000D03*
X192440000Y-100980000D03*
X192440000Y-98440000D03*
X192440000Y-90820000D03*
X192440000Y-88280000D03*
X192440000Y-80660000D03*
X192440000Y-78120000D03*
X192440000Y-75580000D03*
X192440000Y-73040000D03*
X189900000Y-118760000D03*
X189900000Y-111140000D03*
X189900000Y-106060000D03*
X189900000Y-103520000D03*
X189900000Y-100980000D03*
X189900000Y-93360000D03*
X189900000Y-90820000D03*
X189900000Y-88280000D03*
X189900000Y-80660000D03*
X189900000Y-78120000D03*
X189900000Y-75580000D03*
X189900000Y-73040000D03*
X187360000Y-118760000D03*
X187360000Y-106060000D03*
X187360000Y-103520000D03*
X187360000Y-100980000D03*
X187360000Y-95900000D03*
X187360000Y-78120000D03*
X187360000Y-75580000D03*
X187360000Y-73040000D03*
X184820000Y-118760000D03*
X184820000Y-116220000D03*
X184820000Y-113680000D03*
X184820000Y-108600000D03*
X184820000Y-106060000D03*
X184820000Y-103520000D03*
X184820000Y-100980000D03*
X184820000Y-98440000D03*
X184820000Y-95900000D03*
X184820000Y-83200000D03*
X184820000Y-80660000D03*
X184820000Y-75580000D03*
X184820000Y-73040000D03*
X182280000Y-118760000D03*
X182280000Y-116220000D03*
X182280000Y-103520000D03*
X182280000Y-100980000D03*
X182280000Y-98440000D03*
X182280000Y-85740000D03*
X182280000Y-83200000D03*
X182280000Y-80660000D03*
X182280000Y-78120000D03*
X182280000Y-73040000D03*
X179740000Y-118760000D03*
X179740000Y-108600000D03*
X179740000Y-100980000D03*
X179740000Y-80660000D03*
X179740000Y-78120000D03*
X179740000Y-73040000D03*
X177200000Y-118760000D03*
X177200000Y-116220000D03*
X177200000Y-113680000D03*
X177200000Y-111140000D03*
X177200000Y-106060000D03*
X177200000Y-98440000D03*
X177200000Y-80660000D03*
X177200000Y-78120000D03*
X174660000Y-118760000D03*
X174660000Y-111140000D03*
X174660000Y-103520000D03*
X174660000Y-80660000D03*
X174660000Y-78120000D03*
X172120000Y-118760000D03*
X172120000Y-106060000D03*
X172120000Y-103520000D03*
X169580000Y-118760000D03*
X169580000Y-116220000D03*
X169580000Y-113680000D03*
X169580000Y-108600000D03*
X169580000Y-106060000D03*
X169580000Y-100980000D03*
X169580000Y-98440000D03*
X169580000Y-80660000D03*
X169580000Y-78120000D03*
X167040000Y-118760000D03*
X167040000Y-116220000D03*
X167040000Y-103520000D03*
X167040000Y-100980000D03*
X167040000Y-98440000D03*
X167040000Y-83200000D03*
X167040000Y-80660000D03*
X164500000Y-118760000D03*
X164500000Y-103520000D03*
X164500000Y-83200000D03*
X164500000Y-78120000D03*
X161960000Y-118760000D03*
X161960000Y-116220000D03*
X161960000Y-113680000D03*
X161960000Y-111140000D03*
X161960000Y-108600000D03*
X161960000Y-106060000D03*
X161960000Y-80660000D03*
X161960000Y-75580000D03*
X161960000Y-73040000D03*
X159420000Y-118760000D03*
X159420000Y-116220000D03*
X159420000Y-113680000D03*
X159420000Y-111140000D03*
X159420000Y-108600000D03*
X159420000Y-83200000D03*
X159420000Y-78120000D03*
X159420000Y-75580000D03*
X156880000Y-118760000D03*
X156880000Y-116220000D03*
X156880000Y-113680000D03*
X156880000Y-111140000D03*
X156880000Y-108600000D03*
X156880000Y-93360000D03*
X156880000Y-80660000D03*
X156880000Y-75580000D03*
X154340000Y-118760000D03*
X154340000Y-116220000D03*
X154340000Y-113680000D03*
X154340000Y-111140000D03*
X154340000Y-108600000D03*
X154340000Y-106060000D03*
X154340000Y-103520000D03*
X154340000Y-98440000D03*
X154340000Y-93360000D03*
X154340000Y-83200000D03*
X154340000Y-80660000D03*
X154340000Y-78120000D03*
X154340000Y-75580000D03*
X151800000Y-118760000D03*
X151800000Y-111140000D03*
X151800000Y-103520000D03*
X151800000Y-95900000D03*
X151800000Y-93360000D03*
X151800000Y-90820000D03*
X151800000Y-78120000D03*
X151800000Y-75580000D03*
X149260000Y-118760000D03*
X149260000Y-111140000D03*
X149260000Y-106060000D03*
X149260000Y-103520000D03*
X149260000Y-90820000D03*
X146720000Y-118760000D03*
X146720000Y-111140000D03*
X146720000Y-108600000D03*
X146720000Y-106060000D03*
X146720000Y-103520000D03*
X146720000Y-95900000D03*
X146720000Y-93360000D03*
X146720000Y-90820000D03*
X146720000Y-78120000D03*
X144180000Y-118760000D03*
X144180000Y-116220000D03*
X144180000Y-113680000D03*
X144180000Y-100980000D03*
X144180000Y-78120000D03*
X144180000Y-75580000D03*
X141640000Y-118760000D03*
X141640000Y-116220000D03*
X141640000Y-113680000D03*
X141640000Y-108600000D03*
X141640000Y-103520000D03*
X141640000Y-90820000D03*
X141640000Y-78120000D03*
X141640000Y-75580000D03*
X141640000Y-73040000D03*
X139100000Y-118760000D03*
X139100000Y-116220000D03*
X139100000Y-113680000D03*
X139100000Y-108600000D03*
X139100000Y-103520000D03*
X139100000Y-90820000D03*
X139100000Y-88280000D03*
X139100000Y-78120000D03*
X139100000Y-75580000D03*
X139100000Y-73040000D03*
X136560000Y-118760000D03*
X136560000Y-116220000D03*
X136560000Y-113680000D03*
X136560000Y-108600000D03*
X136560000Y-103520000D03*
X136560000Y-100980000D03*
X136560000Y-98440000D03*
X136560000Y-90820000D03*
X136560000Y-88280000D03*
X136560000Y-85740000D03*
X136560000Y-75580000D03*
X136560000Y-73040000D03*
X134020000Y-118760000D03*
X134020000Y-116220000D03*
X134020000Y-113680000D03*
X134020000Y-108600000D03*
X134020000Y-103520000D03*
X134020000Y-100980000D03*
X134020000Y-98440000D03*
X134020000Y-90820000D03*
X134020000Y-85740000D03*
X134020000Y-83200000D03*
X134020000Y-75580000D03*
X134020000Y-73040000D03*
X131480000Y-118760000D03*
X131480000Y-116220000D03*
X131480000Y-113680000D03*
X131480000Y-111140000D03*
X131480000Y-108600000D03*
X131480000Y-103520000D03*
X131480000Y-100980000D03*
X131480000Y-98440000D03*
X131480000Y-88280000D03*
X131480000Y-85740000D03*
X128940000Y-118760000D03*
X128940000Y-116220000D03*
X128940000Y-113680000D03*
X128940000Y-111140000D03*
X128940000Y-108600000D03*
X128940000Y-103520000D03*
X128940000Y-100980000D03*
X128940000Y-98440000D03*
X128940000Y-85740000D03*
X126400000Y-118760000D03*
X126400000Y-116220000D03*
X126400000Y-113680000D03*
X126400000Y-111140000D03*
X126400000Y-108600000D03*
X126400000Y-106060000D03*
X126400000Y-103520000D03*
X126400000Y-100980000D03*
X126400000Y-98440000D03*
X123860000Y-118760000D03*
X123860000Y-116220000D03*
X123860000Y-113680000D03*
X123860000Y-111140000D03*
X123860000Y-108600000D03*
X123860000Y-106060000D03*
X123860000Y-103520000D03*
X123860000Y-100980000D03*
X123860000Y-98440000D03*
X121320000Y-118760000D03*
X121320000Y-116220000D03*
X121320000Y-113680000D03*
X121320000Y-111140000D03*
X121320000Y-108600000D03*
X121320000Y-106060000D03*
X121320000Y-103520000D03*
X121320000Y-100980000D03*
X121320000Y-98440000D03*
X121320000Y-95900000D03*
X118780000Y-118760000D03*
X118780000Y-116220000D03*
X118780000Y-113680000D03*
X118780000Y-111140000D03*
X118780000Y-108600000D03*
X118780000Y-106060000D03*
X118780000Y-103520000D03*
X118780000Y-100980000D03*
X118780000Y-98440000D03*
X118780000Y-95900000D03*
X116240000Y-118760000D03*
X116240000Y-116220000D03*
X116240000Y-113680000D03*
X116240000Y-111140000D03*
X116240000Y-108600000D03*
X116240000Y-106060000D03*
X116240000Y-103520000D03*
X116240000Y-100980000D03*
X116240000Y-98440000D03*
X116240000Y-95900000D03*
X116240000Y-85740000D03*
X113700000Y-118760000D03*
X113700000Y-116220000D03*
X113700000Y-113680000D03*
X113700000Y-111140000D03*
X113700000Y-108600000D03*
X113700000Y-106060000D03*
X113700000Y-103520000D03*
X113700000Y-100980000D03*
X113700000Y-98440000D03*
X113700000Y-95900000D03*
X113700000Y-88280000D03*
X113700000Y-85740000D03*
X111160000Y-118760000D03*
X111160000Y-116220000D03*
X111160000Y-113680000D03*
X111160000Y-111140000D03*
X111160000Y-108600000D03*
X111160000Y-106060000D03*
X111160000Y-103520000D03*
X111160000Y-100980000D03*
X111160000Y-98440000D03*
X111160000Y-95900000D03*
X111160000Y-93360000D03*
X111160000Y-90820000D03*
X111160000Y-83200000D03*
X111160000Y-80660000D03*
X111160000Y-78120000D03*
X111160000Y-75580000D03*
X111160000Y-73040000D03*
X108620000Y-118760000D03*
X108620000Y-116220000D03*
X108620000Y-113680000D03*
X108620000Y-111140000D03*
X108620000Y-108600000D03*
X108620000Y-106060000D03*
X108620000Y-103520000D03*
X108620000Y-100980000D03*
X108620000Y-98440000D03*
X108620000Y-95900000D03*
X108620000Y-93360000D03*
X108620000Y-90820000D03*
X108620000Y-88280000D03*
X108620000Y-85740000D03*
X108620000Y-83200000D03*
X108620000Y-80660000D03*
X108620000Y-78120000D03*
X108620000Y-75580000D03*
X106080000Y-118760000D03*
X106080000Y-116220000D03*
X106080000Y-113680000D03*
X106080000Y-108600000D03*
X106080000Y-106060000D03*
X106080000Y-103520000D03*
X106080000Y-100980000D03*
X106080000Y-98440000D03*
X106080000Y-95900000D03*
X106080000Y-93360000D03*
X106080000Y-90820000D03*
X106080000Y-88280000D03*
X106080000Y-85740000D03*
X106080000Y-83200000D03*
X106080000Y-78120000D03*
X106080000Y-73040000D03*
X103540000Y-113680000D03*
X103540000Y-108600000D03*
X103540000Y-106060000D03*
X103540000Y-103520000D03*
X103540000Y-100980000D03*
X103540000Y-98440000D03*
X103540000Y-95900000D03*
X103540000Y-93360000D03*
X103540000Y-90820000D03*
X103540000Y-88280000D03*
X103540000Y-85740000D03*
X103540000Y-83200000D03*
X103540000Y-78120000D03*
X103540000Y-75580000D03*
%TO.N,3.3V*%
X148000000Y-113000000D03*
X145000000Y-85000000D03*
X156000000Y-87000000D03*
X164000000Y-115000000D03*
X156000000Y-99000000D03*
X146075000Y-99075000D03*
X142500000Y-98000000D03*
X182500000Y-107500000D03*
X146500000Y-92000000D03*
X146500000Y-89000000D03*
%TO.N,Net-(D1-K)*%
X131500000Y-72500000D03*
%TO.N,Net-(D2-K)*%
X128928571Y-72500000D03*
%TO.N,Net-(D3-K)*%
X126357143Y-72500000D03*
%TO.N,Net-(D4-K)*%
X123785714Y-72500000D03*
%TO.N,Net-(D5-K)*%
X121214286Y-72500000D03*
%TO.N,Net-(D6-K)*%
X118642857Y-72500000D03*
%TO.N,Net-(D7-K)*%
X116000000Y-72500000D03*
%TO.N,Net-(D8-K)*%
X113500000Y-72500000D03*
%TO.N,Net-(D9-K)*%
X164000000Y-73500000D03*
%TO.N,Net-(D10-K)*%
X173500000Y-73500000D03*
%TO.N,TDI*%
X147000000Y-81500000D03*
X148790000Y-83210000D03*
%TO.N,TMS*%
X151500000Y-84000000D03*
%TO.N,Net-(R1-Pad1)*%
X133000000Y-85000000D03*
%TO.N,Net-(R2-Pad1)*%
X130000000Y-85000000D03*
%TO.N,Net-(R3-Pad1)*%
X127000000Y-85000000D03*
%TO.N,Net-(R4-Pad1)*%
X123880000Y-84880000D03*
%TO.N,Net-(R5-Pad1)*%
X121000000Y-85000000D03*
%TO.N,Net-(R6-Pad1)*%
X118000000Y-85000000D03*
%TO.N,Net-(R7-Pad1)*%
X115000000Y-85000000D03*
%TO.N,Net-(R8-Pad1)*%
X112000000Y-85000000D03*
%TO.N,Net-(S2-COM_1)*%
X133000000Y-106500000D03*
%TD*%
D21*
%TO.N,3.3V*%
X154000000Y-97000000D02*
X154075000Y-97075000D01*
X146075000Y-99075000D02*
X150462500Y-99075000D01*
X153990000Y-88925000D02*
X150575000Y-88925000D01*
X148000000Y-114425000D02*
X148000000Y-113000000D01*
X141000000Y-101287500D02*
X141000000Y-98712500D01*
X148000000Y-114425000D02*
X163425000Y-114425000D01*
X157500000Y-96000000D02*
X156500000Y-97000000D01*
X150500000Y-92000000D02*
X146500000Y-92000000D01*
X145000000Y-83500000D02*
X145000000Y-85000000D01*
X156500000Y-88925000D02*
X156500000Y-88000000D01*
X141000000Y-98712500D02*
X141787500Y-98712500D01*
X145500000Y-114425000D02*
X148000000Y-114425000D01*
X156000000Y-98500000D02*
X156000000Y-99000000D01*
X149267502Y-97807498D02*
X148000000Y-99075000D01*
X156500000Y-97000000D02*
X156500000Y-98000000D01*
X153990000Y-88925000D02*
X156500000Y-88925000D01*
X156500000Y-88000000D02*
X156000000Y-87500000D01*
X145500000Y-105500000D02*
X145500000Y-114425000D01*
X156500000Y-98000000D02*
X156000000Y-98500000D01*
X141000000Y-101000000D02*
X145500000Y-105500000D01*
X150500000Y-99037500D02*
X151962500Y-99037500D01*
X147990000Y-89000000D02*
X150565000Y-89000000D01*
X150462500Y-99075000D02*
X150500000Y-99037500D01*
X147990000Y-89000000D02*
X146500000Y-89000000D01*
X158000000Y-96000000D02*
X157500000Y-96000000D01*
X149267502Y-93267502D02*
X149267502Y-97807498D01*
X154075000Y-97075000D02*
X156425000Y-97075000D01*
X147990000Y-91990000D02*
X148000000Y-92000000D01*
X171000000Y-96000000D02*
X158000000Y-96000000D01*
X156425000Y-97075000D02*
X156500000Y-97000000D01*
X141787500Y-98712500D02*
X142500000Y-98000000D01*
X163425000Y-114425000D02*
X164000000Y-115000000D01*
X142500000Y-83500000D02*
X145000000Y-83500000D01*
X147990000Y-89000000D02*
X147990000Y-91990000D01*
X150575000Y-88925000D02*
X150500000Y-89000000D01*
X151962500Y-99037500D02*
X154000000Y-97000000D01*
X156000000Y-87500000D02*
X156000000Y-87000000D01*
X182500000Y-107500000D02*
X171000000Y-96000000D01*
X148000000Y-92000000D02*
X149267502Y-93267502D01*
D22*
%TO.N,Net-(D1-K)*%
X131500000Y-74500000D02*
X131500000Y-72500000D01*
%TO.N,Net-(D2-K)*%
X128928571Y-74500000D02*
X128928571Y-72500000D01*
%TO.N,Net-(D3-K)*%
X126357143Y-74500000D02*
X126357143Y-72500000D01*
%TO.N,Net-(D4-K)*%
X123785714Y-74500000D02*
X123785714Y-72500000D01*
%TO.N,Net-(D5-K)*%
X121214286Y-74500000D02*
X121214286Y-72500000D01*
%TO.N,Net-(D6-K)*%
X118642857Y-74500000D02*
X118642857Y-72500000D01*
%TO.N,Net-(D7-K)*%
X116000000Y-74500000D02*
X116000000Y-72500000D01*
%TO.N,Net-(D8-K)*%
X113500000Y-74500000D02*
X113500000Y-72500000D01*
%TO.N,Net-(D9-K)*%
X166500000Y-73500000D02*
X164000000Y-73500000D01*
%TO.N,Net-(D10-K)*%
X176000000Y-73500000D02*
X173500000Y-73500000D01*
%TO.N,TDI*%
X147080000Y-81500000D02*
X148790000Y-83210000D01*
X147000000Y-81500000D02*
X147080000Y-81500000D01*
%TO.N,TMS*%
X151500000Y-84000000D02*
X151500000Y-83125000D01*
X150500000Y-79000000D02*
X145000000Y-73500000D01*
X150500000Y-82125000D02*
X150500000Y-79000000D01*
X151500000Y-83125000D02*
X150500000Y-82125000D01*
%TO.N,Net-(R1-Pad1)*%
X133000000Y-85000000D02*
X133000000Y-87000000D01*
%TO.N,Net-(R2-Pad1)*%
X130000000Y-85000000D02*
X130000000Y-87000000D01*
%TO.N,Net-(R3-Pad1)*%
X127000000Y-85000000D02*
X127000000Y-87000000D01*
%TO.N,Net-(R4-Pad1)*%
X123880000Y-84880000D02*
X123880000Y-86880000D01*
X123880000Y-86880000D02*
X124000000Y-87000000D01*
%TO.N,Net-(R5-Pad1)*%
X121000000Y-85000000D02*
X121000000Y-87000000D01*
%TO.N,Net-(R6-Pad1)*%
X118000000Y-85000000D02*
X118000000Y-87000000D01*
%TO.N,Net-(R7-Pad1)*%
X115000000Y-85000000D02*
X115000000Y-87000000D01*
%TO.N,Net-(R8-Pad1)*%
X112000000Y-85000000D02*
X112000000Y-87000000D01*
%TO.N,Net-(S2-COM_1)*%
X131500000Y-106500000D02*
X133000000Y-106500000D01*
%TD*%
%TA.AperFunction,Conductor*%
%TO.N,GND*%
G36*
X201264493Y-70502882D02*
G01*
X201321480Y-70514218D01*
X201366175Y-70532730D01*
X201406272Y-70559522D01*
X201412164Y-70565414D01*
X201416896Y-70567474D01*
X201440476Y-70593726D01*
X201467267Y-70633822D01*
X201485781Y-70678517D01*
X201489126Y-70695335D01*
X201497117Y-70735505D01*
X201499500Y-70759696D01*
X201499500Y-119740302D01*
X201497117Y-119764494D01*
X201485781Y-119821481D01*
X201482591Y-119829182D01*
X201482499Y-119834341D01*
X201467267Y-119866179D01*
X201440481Y-119906268D01*
X201406269Y-119940479D01*
X201371975Y-119963394D01*
X201366179Y-119967267D01*
X201321482Y-119985781D01*
X201291578Y-119991729D01*
X201264491Y-119997117D01*
X201240303Y-119999500D01*
X101259697Y-119999500D01*
X101235507Y-119997117D01*
X101217334Y-119993502D01*
X101178518Y-119985781D01*
X101133822Y-119967267D01*
X101093727Y-119940477D01*
X101059522Y-119906272D01*
X101032730Y-119866175D01*
X101014218Y-119821481D01*
X101002881Y-119764485D01*
X101000500Y-119740302D01*
X101000500Y-116887486D01*
X144275001Y-116887486D01*
X144285494Y-116990197D01*
X144340641Y-117156619D01*
X144340643Y-117156624D01*
X144432684Y-117305845D01*
X144556654Y-117429815D01*
X144705875Y-117521856D01*
X144705880Y-117521858D01*
X144872302Y-117577005D01*
X144872309Y-117577006D01*
X144975019Y-117587499D01*
X145249999Y-117587499D01*
X145750000Y-117587499D01*
X146024972Y-117587499D01*
X146024986Y-117587498D01*
X146127697Y-117577005D01*
X146294119Y-117521858D01*
X146294124Y-117521856D01*
X146443345Y-117429815D01*
X146567315Y-117305845D01*
X146644461Y-117180773D01*
X146696409Y-117134049D01*
X146765372Y-117122826D01*
X146829454Y-117150670D01*
X146855539Y-117180773D01*
X146932684Y-117305845D01*
X147056654Y-117429815D01*
X147205875Y-117521856D01*
X147205880Y-117521858D01*
X147372302Y-117577005D01*
X147372309Y-117577006D01*
X147475019Y-117587499D01*
X147749999Y-117587499D01*
X148250000Y-117587499D01*
X148524972Y-117587499D01*
X148524986Y-117587498D01*
X148627697Y-117577005D01*
X148794119Y-117521858D01*
X148794124Y-117521856D01*
X148943345Y-117429815D01*
X149067315Y-117305845D01*
X149159356Y-117156624D01*
X149159358Y-117156619D01*
X149214505Y-116990197D01*
X149214506Y-116990190D01*
X149224999Y-116887486D01*
X149225000Y-116887473D01*
X149225000Y-116750000D01*
X148250000Y-116750000D01*
X148250000Y-117587499D01*
X147749999Y-117587499D01*
X147750000Y-117587498D01*
X147750000Y-116750000D01*
X145750000Y-116750000D01*
X145750000Y-117587499D01*
X145249999Y-117587499D01*
X145250000Y-117587498D01*
X145250000Y-116750000D01*
X144275001Y-116750000D01*
X144275001Y-116887486D01*
X101000500Y-116887486D01*
X101000500Y-109702155D01*
X102750000Y-109702155D01*
X102750000Y-110750000D01*
X103951518Y-110750000D01*
X103940889Y-110768409D01*
X103900000Y-110921009D01*
X103900000Y-111078991D01*
X103940889Y-111231591D01*
X103951518Y-111250000D01*
X102750000Y-111250000D01*
X102750000Y-112297844D01*
X102756401Y-112357372D01*
X102756403Y-112357379D01*
X102806645Y-112492086D01*
X102806649Y-112492093D01*
X102892809Y-112607187D01*
X102892812Y-112607190D01*
X103007906Y-112693350D01*
X103007913Y-112693354D01*
X103142620Y-112743596D01*
X103142627Y-112743598D01*
X103202155Y-112749999D01*
X103202172Y-112750000D01*
X104250000Y-112750000D01*
X104250000Y-111548482D01*
X104268409Y-111559111D01*
X104421009Y-111600000D01*
X104578991Y-111600000D01*
X104731591Y-111559111D01*
X104750000Y-111548482D01*
X104750000Y-112750000D01*
X105797828Y-112750000D01*
X105797844Y-112749999D01*
X105857372Y-112743598D01*
X105857379Y-112743596D01*
X105992086Y-112693354D01*
X105992093Y-112693350D01*
X106107187Y-112607190D01*
X106107190Y-112607187D01*
X106193350Y-112492093D01*
X106193354Y-112492086D01*
X106243596Y-112357379D01*
X106243598Y-112357372D01*
X106249999Y-112297844D01*
X106250000Y-112297827D01*
X106250000Y-111250000D01*
X105048482Y-111250000D01*
X105059111Y-111231591D01*
X105100000Y-111078991D01*
X105100000Y-110921009D01*
X105059111Y-110768409D01*
X105048482Y-110750000D01*
X106250000Y-110750000D01*
X106250000Y-109702172D01*
X106249999Y-109702155D01*
X106243598Y-109642627D01*
X106243596Y-109642620D01*
X106193354Y-109507913D01*
X106193350Y-109507906D01*
X106107190Y-109392812D01*
X106107187Y-109392809D01*
X105992093Y-109306649D01*
X105992086Y-109306645D01*
X105857379Y-109256403D01*
X105857372Y-109256401D01*
X105797844Y-109250000D01*
X104750000Y-109250000D01*
X104750000Y-110451517D01*
X104731591Y-110440889D01*
X104578991Y-110400000D01*
X104421009Y-110400000D01*
X104268409Y-110440889D01*
X104250000Y-110451517D01*
X104250000Y-109250000D01*
X103202155Y-109250000D01*
X103142627Y-109256401D01*
X103142620Y-109256403D01*
X103007913Y-109306645D01*
X103007906Y-109306649D01*
X102892812Y-109392809D01*
X102892809Y-109392812D01*
X102806649Y-109507906D01*
X102806645Y-109507913D01*
X102756403Y-109642620D01*
X102756401Y-109642627D01*
X102750000Y-109702155D01*
X101000500Y-109702155D01*
X101000500Y-106999986D01*
X128400001Y-106999986D01*
X128410494Y-107102697D01*
X128465641Y-107269119D01*
X128465643Y-107269124D01*
X128557684Y-107418345D01*
X128681654Y-107542315D01*
X128830875Y-107634356D01*
X128830880Y-107634358D01*
X128997302Y-107689505D01*
X128997309Y-107689506D01*
X129100019Y-107699999D01*
X129249999Y-107699999D01*
X129250000Y-107699998D01*
X129250000Y-106750000D01*
X128400001Y-106750000D01*
X128400001Y-106999986D01*
X101000500Y-106999986D01*
X101000500Y-106000013D01*
X128400000Y-106000013D01*
X128400000Y-106250000D01*
X129250000Y-106250000D01*
X129250000Y-105300000D01*
X129750000Y-105300000D01*
X129750000Y-107699999D01*
X129899972Y-107699999D01*
X129899986Y-107699998D01*
X130002697Y-107689505D01*
X130169119Y-107634358D01*
X130169124Y-107634356D01*
X130318342Y-107542317D01*
X130411964Y-107448695D01*
X130473287Y-107415210D01*
X130542979Y-107420194D01*
X130587327Y-107448695D01*
X130681344Y-107542712D01*
X130830666Y-107634814D01*
X130997203Y-107689999D01*
X131099991Y-107700500D01*
X131900008Y-107700499D01*
X131900016Y-107700498D01*
X131900019Y-107700498D01*
X131956302Y-107694748D01*
X132002797Y-107689999D01*
X132169334Y-107634814D01*
X132318656Y-107542712D01*
X132442712Y-107418656D01*
X132526329Y-107283089D01*
X132578277Y-107236365D01*
X132647239Y-107225142D01*
X132679318Y-107233624D01*
X132766503Y-107269737D01*
X132921153Y-107300499D01*
X132921156Y-107300500D01*
X132921158Y-107300500D01*
X133078844Y-107300500D01*
X133078845Y-107300499D01*
X133233497Y-107269737D01*
X133379179Y-107209394D01*
X133510289Y-107121789D01*
X133621789Y-107010289D01*
X133709394Y-106879179D01*
X133769737Y-106733497D01*
X133800500Y-106578842D01*
X133800500Y-106421158D01*
X133800500Y-106421155D01*
X133800499Y-106421153D01*
X133769738Y-106266510D01*
X133769737Y-106266503D01*
X133762901Y-106250000D01*
X133709397Y-106120827D01*
X133709390Y-106120814D01*
X133621789Y-105989711D01*
X133621786Y-105989707D01*
X133510292Y-105878213D01*
X133510288Y-105878210D01*
X133379185Y-105790609D01*
X133379172Y-105790602D01*
X133233501Y-105730264D01*
X133233489Y-105730261D01*
X133078845Y-105699500D01*
X133078842Y-105699500D01*
X132921158Y-105699500D01*
X132921155Y-105699500D01*
X132766510Y-105730261D01*
X132766507Y-105730262D01*
X132766506Y-105730262D01*
X132766503Y-105730263D01*
X132691396Y-105761372D01*
X132679320Y-105766375D01*
X132609850Y-105773843D01*
X132547371Y-105742567D01*
X132526329Y-105716910D01*
X132442712Y-105581344D01*
X132318656Y-105457288D01*
X132169334Y-105365186D01*
X132002797Y-105310001D01*
X132002795Y-105310000D01*
X131900010Y-105299500D01*
X131099998Y-105299500D01*
X131099980Y-105299501D01*
X130997203Y-105310000D01*
X130997200Y-105310001D01*
X130830668Y-105365185D01*
X130830663Y-105365187D01*
X130681345Y-105457287D01*
X130587327Y-105551305D01*
X130526003Y-105584789D01*
X130456312Y-105579805D01*
X130411965Y-105551304D01*
X130318345Y-105457684D01*
X130169124Y-105365643D01*
X130169119Y-105365641D01*
X130002697Y-105310494D01*
X130002690Y-105310493D01*
X129899986Y-105300000D01*
X129750000Y-105300000D01*
X129250000Y-105300000D01*
X129100027Y-105300000D01*
X129100012Y-105300001D01*
X128997302Y-105310494D01*
X128830880Y-105365641D01*
X128830875Y-105365643D01*
X128681654Y-105457684D01*
X128557684Y-105581654D01*
X128465643Y-105730875D01*
X128465641Y-105730880D01*
X128410494Y-105897302D01*
X128410493Y-105897309D01*
X128400000Y-106000013D01*
X101000500Y-106000013D01*
X101000500Y-101524986D01*
X137837501Y-101524986D01*
X137847994Y-101627697D01*
X137903141Y-101794119D01*
X137903143Y-101794124D01*
X137995184Y-101943345D01*
X138119154Y-102067315D01*
X138268375Y-102159356D01*
X138268380Y-102159358D01*
X138434802Y-102214505D01*
X138434809Y-102214506D01*
X138537519Y-102224999D01*
X138674999Y-102224999D01*
X138675000Y-102224998D01*
X138675000Y-101250000D01*
X137837501Y-101250000D01*
X137837501Y-101524986D01*
X101000500Y-101524986D01*
X101000500Y-100475013D01*
X137837500Y-100475013D01*
X137837500Y-100750000D01*
X138675000Y-100750000D01*
X138675000Y-98962500D01*
X137837501Y-98962500D01*
X137837501Y-99237486D01*
X137847994Y-99340197D01*
X137903141Y-99506619D01*
X137903143Y-99506624D01*
X137995184Y-99655845D01*
X138107908Y-99768569D01*
X138141393Y-99829892D01*
X138136409Y-99899584D01*
X138107908Y-99943931D01*
X137995184Y-100056654D01*
X137903143Y-100205875D01*
X137903141Y-100205880D01*
X137847994Y-100372302D01*
X137847993Y-100372309D01*
X137837500Y-100475013D01*
X101000500Y-100475013D01*
X101000500Y-98187513D01*
X137837500Y-98187513D01*
X137837500Y-98462500D01*
X138675000Y-98462500D01*
X138675000Y-97487500D01*
X139175000Y-97487500D01*
X139175000Y-102224999D01*
X139312472Y-102224999D01*
X139312486Y-102224998D01*
X139415197Y-102214505D01*
X139581619Y-102159358D01*
X139581624Y-102159356D01*
X139730845Y-102067315D01*
X139854818Y-101943342D01*
X139856665Y-101940348D01*
X139858469Y-101938724D01*
X139859298Y-101937677D01*
X139859476Y-101937818D01*
X139908610Y-101893621D01*
X139977573Y-101882396D01*
X140041656Y-101910236D01*
X140067743Y-101940341D01*
X140069788Y-101943656D01*
X140193844Y-102067712D01*
X140343166Y-102159814D01*
X140509703Y-102214999D01*
X140612491Y-102225500D01*
X141218836Y-102225499D01*
X141285875Y-102245183D01*
X141306517Y-102261818D01*
X144788181Y-105743482D01*
X144821666Y-105804805D01*
X144824500Y-105831163D01*
X144824500Y-113273767D01*
X144804815Y-113340806D01*
X144752011Y-113386561D01*
X144739506Y-113391472D01*
X144705671Y-113402684D01*
X144705663Y-113402687D01*
X144556342Y-113494789D01*
X144432289Y-113618842D01*
X144340187Y-113768163D01*
X144340186Y-113768166D01*
X144285001Y-113934703D01*
X144285001Y-113934704D01*
X144285000Y-113934704D01*
X144274500Y-114037483D01*
X144274500Y-114812501D01*
X144274501Y-114812519D01*
X144285000Y-114915296D01*
X144285001Y-114915299D01*
X144286941Y-114921153D01*
X144340186Y-115081834D01*
X144432288Y-115231156D01*
X144556344Y-115355212D01*
X144559628Y-115357237D01*
X144559653Y-115357253D01*
X144561445Y-115359246D01*
X144562011Y-115359693D01*
X144561934Y-115359789D01*
X144606379Y-115409199D01*
X144617603Y-115478161D01*
X144589761Y-115542244D01*
X144559665Y-115568326D01*
X144556660Y-115570179D01*
X144556655Y-115570183D01*
X144432684Y-115694154D01*
X144340643Y-115843375D01*
X144340641Y-115843380D01*
X144285494Y-116009802D01*
X144285493Y-116009809D01*
X144275000Y-116112513D01*
X144275000Y-116250000D01*
X149224999Y-116250000D01*
X149224999Y-116112528D01*
X149224998Y-116112513D01*
X149214505Y-116009802D01*
X149159358Y-115843380D01*
X149159356Y-115843375D01*
X149067315Y-115694154D01*
X148943344Y-115570183D01*
X148943341Y-115570181D01*
X148940339Y-115568329D01*
X148938713Y-115566521D01*
X148937677Y-115565702D01*
X148937817Y-115565524D01*
X148893617Y-115516380D01*
X148882397Y-115447417D01*
X148910243Y-115383336D01*
X148940344Y-115357254D01*
X148943656Y-115355212D01*
X149067712Y-115231156D01*
X149111970Y-115159402D01*
X149163917Y-115112679D01*
X149217508Y-115100500D01*
X163093837Y-115100500D01*
X163123277Y-115109144D01*
X163153264Y-115115668D01*
X163158279Y-115119422D01*
X163160876Y-115120185D01*
X163181518Y-115136819D01*
X163191762Y-115147063D01*
X163225247Y-115208386D01*
X163225698Y-115210551D01*
X163230261Y-115233493D01*
X163230263Y-115233499D01*
X163290602Y-115379172D01*
X163290609Y-115379185D01*
X163378210Y-115510288D01*
X163378213Y-115510292D01*
X163489707Y-115621786D01*
X163489711Y-115621789D01*
X163620814Y-115709390D01*
X163620827Y-115709397D01*
X163766498Y-115769735D01*
X163766503Y-115769737D01*
X163921153Y-115800499D01*
X163921156Y-115800500D01*
X163921158Y-115800500D01*
X164078844Y-115800500D01*
X164078845Y-115800499D01*
X164233497Y-115769737D01*
X164379179Y-115709394D01*
X164510289Y-115621789D01*
X164621789Y-115510289D01*
X164709394Y-115379179D01*
X164769737Y-115233497D01*
X164800500Y-115078842D01*
X164800500Y-114921158D01*
X164800500Y-114921155D01*
X164800499Y-114921153D01*
X164778888Y-114812508D01*
X164769737Y-114766503D01*
X164769735Y-114766498D01*
X164709397Y-114620827D01*
X164709390Y-114620814D01*
X164621789Y-114489711D01*
X164621786Y-114489707D01*
X164510292Y-114378213D01*
X164510288Y-114378210D01*
X164379185Y-114290609D01*
X164379172Y-114290602D01*
X164233499Y-114230263D01*
X164233493Y-114230261D01*
X164210551Y-114225698D01*
X164148640Y-114193312D01*
X164147063Y-114191762D01*
X163855609Y-113900307D01*
X163855605Y-113900304D01*
X163744975Y-113826383D01*
X163744965Y-113826378D01*
X163622036Y-113775459D01*
X163622028Y-113775457D01*
X163491535Y-113749500D01*
X163491531Y-113749500D01*
X149217508Y-113749500D01*
X149150469Y-113729815D01*
X149111969Y-113690597D01*
X149067712Y-113618844D01*
X148943656Y-113494788D01*
X148851904Y-113438195D01*
X148808796Y-113411606D01*
X148762072Y-113359658D01*
X148750849Y-113290695D01*
X148759330Y-113258619D01*
X148769737Y-113233497D01*
X148800500Y-113078842D01*
X148800500Y-112921158D01*
X148800500Y-112921155D01*
X148800499Y-112921153D01*
X148769738Y-112766510D01*
X148769737Y-112766503D01*
X148739438Y-112693354D01*
X148709397Y-112620827D01*
X148709390Y-112620814D01*
X148621789Y-112489711D01*
X148621786Y-112489707D01*
X148510292Y-112378213D01*
X148510288Y-112378210D01*
X148379185Y-112290609D01*
X148379172Y-112290602D01*
X148233501Y-112230264D01*
X148233489Y-112230261D01*
X148078845Y-112199500D01*
X148078842Y-112199500D01*
X147921158Y-112199500D01*
X147921155Y-112199500D01*
X147766510Y-112230261D01*
X147766498Y-112230264D01*
X147620827Y-112290602D01*
X147620814Y-112290609D01*
X147489711Y-112378210D01*
X147489707Y-112378213D01*
X147378213Y-112489707D01*
X147378210Y-112489711D01*
X147290609Y-112620814D01*
X147290602Y-112620827D01*
X147230264Y-112766498D01*
X147230261Y-112766510D01*
X147199500Y-112921153D01*
X147199500Y-113078846D01*
X147230261Y-113233489D01*
X147230263Y-113233497D01*
X147240668Y-113258617D01*
X147248136Y-113328086D01*
X147216860Y-113390565D01*
X147191203Y-113411607D01*
X147056342Y-113494789D01*
X146932289Y-113618842D01*
X146888031Y-113690597D01*
X146880443Y-113697421D01*
X146876205Y-113706703D01*
X146854905Y-113720391D01*
X146836083Y-113737321D01*
X146824447Y-113739965D01*
X146817427Y-113744477D01*
X146782492Y-113749500D01*
X146717508Y-113749500D01*
X146650469Y-113729815D01*
X146611969Y-113690597D01*
X146567712Y-113618844D01*
X146443656Y-113494788D01*
X146350888Y-113437569D01*
X146294336Y-113402687D01*
X146294335Y-113402686D01*
X146294334Y-113402686D01*
X146294328Y-113402684D01*
X146260494Y-113391472D01*
X146203050Y-113351699D01*
X146176228Y-113287183D01*
X146175500Y-113273767D01*
X146175500Y-109702155D01*
X197250000Y-109702155D01*
X197250000Y-110750000D01*
X198451518Y-110750000D01*
X198440889Y-110768409D01*
X198400000Y-110921009D01*
X198400000Y-111078991D01*
X198440889Y-111231591D01*
X198451518Y-111250000D01*
X197250000Y-111250000D01*
X197250000Y-112297844D01*
X197256401Y-112357372D01*
X197256403Y-112357379D01*
X197306645Y-112492086D01*
X197306649Y-112492093D01*
X197392809Y-112607187D01*
X197392812Y-112607190D01*
X197507906Y-112693350D01*
X197507913Y-112693354D01*
X197642620Y-112743596D01*
X197642627Y-112743598D01*
X197702155Y-112749999D01*
X197702172Y-112750000D01*
X198750000Y-112750000D01*
X198750000Y-111548482D01*
X198768409Y-111559111D01*
X198921009Y-111600000D01*
X199078991Y-111600000D01*
X199231591Y-111559111D01*
X199250000Y-111548482D01*
X199250000Y-112750000D01*
X200297828Y-112750000D01*
X200297844Y-112749999D01*
X200357372Y-112743598D01*
X200357379Y-112743596D01*
X200492086Y-112693354D01*
X200492093Y-112693350D01*
X200607187Y-112607190D01*
X200607190Y-112607187D01*
X200693350Y-112492093D01*
X200693354Y-112492086D01*
X200743596Y-112357379D01*
X200743598Y-112357372D01*
X200749999Y-112297844D01*
X200750000Y-112297827D01*
X200750000Y-111250000D01*
X199548482Y-111250000D01*
X199559111Y-111231591D01*
X199600000Y-111078991D01*
X199600000Y-110921009D01*
X199559111Y-110768409D01*
X199548482Y-110750000D01*
X200750000Y-110750000D01*
X200750000Y-109702172D01*
X200749999Y-109702155D01*
X200743598Y-109642627D01*
X200743596Y-109642620D01*
X200693354Y-109507913D01*
X200693350Y-109507906D01*
X200607190Y-109392812D01*
X200607187Y-109392809D01*
X200492093Y-109306649D01*
X200492086Y-109306645D01*
X200357379Y-109256403D01*
X200357372Y-109256401D01*
X200297844Y-109250000D01*
X199250000Y-109250000D01*
X199250000Y-110451517D01*
X199231591Y-110440889D01*
X199078991Y-110400000D01*
X198921009Y-110400000D01*
X198768409Y-110440889D01*
X198750000Y-110451517D01*
X198750000Y-109250000D01*
X197702155Y-109250000D01*
X197642627Y-109256401D01*
X197642620Y-109256403D01*
X197507913Y-109306645D01*
X197507906Y-109306649D01*
X197392812Y-109392809D01*
X197392809Y-109392812D01*
X197306649Y-109507906D01*
X197306645Y-109507913D01*
X197256403Y-109642620D01*
X197256401Y-109642627D01*
X197250000Y-109702155D01*
X146175500Y-109702155D01*
X146175500Y-105433466D01*
X146149541Y-105302969D01*
X146149540Y-105302968D01*
X146149540Y-105302964D01*
X146098620Y-105180031D01*
X146024695Y-105069394D01*
X145930606Y-104975305D01*
X142124318Y-101169017D01*
X142090833Y-101107694D01*
X142087999Y-101081336D01*
X142087999Y-100474998D01*
X142087998Y-100474981D01*
X142077499Y-100372203D01*
X142077498Y-100372200D01*
X142022314Y-100205666D01*
X141930212Y-100056344D01*
X141817799Y-99943931D01*
X141784314Y-99882608D01*
X141789298Y-99812916D01*
X141817799Y-99768569D01*
X141873369Y-99712999D01*
X141930212Y-99656156D01*
X142022314Y-99506834D01*
X142067996Y-99368974D01*
X142107767Y-99311531D01*
X142116797Y-99304886D01*
X142218106Y-99237195D01*
X142459147Y-98996153D01*
X145274500Y-98996153D01*
X145274500Y-99153846D01*
X145305261Y-99308489D01*
X145305264Y-99308501D01*
X145365602Y-99454172D01*
X145365609Y-99454185D01*
X145453210Y-99585288D01*
X145453213Y-99585292D01*
X145564707Y-99696786D01*
X145564711Y-99696789D01*
X145695814Y-99784390D01*
X145695827Y-99784397D01*
X145841334Y-99844667D01*
X145841503Y-99844737D01*
X145978095Y-99871907D01*
X145996153Y-99875499D01*
X145996156Y-99875500D01*
X145996158Y-99875500D01*
X146153844Y-99875500D01*
X146153845Y-99875499D01*
X146308497Y-99844737D01*
X146454179Y-99784394D01*
X146467791Y-99775299D01*
X146473628Y-99771399D01*
X146491674Y-99765747D01*
X146507585Y-99755523D01*
X146538542Y-99751071D01*
X146540305Y-99750520D01*
X146542520Y-99750500D01*
X146782492Y-99750500D01*
X146849531Y-99770185D01*
X146888029Y-99809401D01*
X146932288Y-99881156D01*
X147056344Y-100005212D01*
X147205666Y-100097314D01*
X147372203Y-100152499D01*
X147474991Y-100163000D01*
X148525008Y-100162999D01*
X148525016Y-100162998D01*
X148525019Y-100162998D01*
X148581302Y-100157248D01*
X148627797Y-100152499D01*
X148794334Y-100097314D01*
X148943656Y-100005212D01*
X149067712Y-99881156D01*
X149111970Y-99809402D01*
X149119556Y-99802578D01*
X149123795Y-99793297D01*
X149145094Y-99779608D01*
X149163917Y-99762679D01*
X149175552Y-99760034D01*
X149182573Y-99755523D01*
X149217508Y-99750500D01*
X149305622Y-99750500D01*
X149372661Y-99770185D01*
X149411159Y-99809401D01*
X149432288Y-99843656D01*
X149556344Y-99967712D01*
X149705666Y-100059814D01*
X149872203Y-100114999D01*
X149974991Y-100125500D01*
X151025008Y-100125499D01*
X151025016Y-100125498D01*
X151025019Y-100125498D01*
X151102315Y-100117602D01*
X151127797Y-100114999D01*
X151294334Y-100059814D01*
X151443656Y-99967712D01*
X151567712Y-99843656D01*
X151611970Y-99771902D01*
X151663917Y-99725179D01*
X151717508Y-99713000D01*
X152029032Y-99713000D01*
X152029033Y-99712999D01*
X152159536Y-99687041D01*
X152282469Y-99636120D01*
X152393106Y-99562195D01*
X153830982Y-98124317D01*
X153892305Y-98090833D01*
X153918663Y-98087999D01*
X154525002Y-98087999D01*
X154525008Y-98087999D01*
X154627797Y-98077499D01*
X154794334Y-98022314D01*
X154943656Y-97930212D01*
X155067712Y-97806156D01*
X155067715Y-97806150D01*
X155072193Y-97800489D01*
X155073704Y-97801684D01*
X155077535Y-97793297D01*
X155098838Y-97779606D01*
X155117665Y-97762675D01*
X155129296Y-97760032D01*
X155136313Y-97755523D01*
X155171248Y-97750500D01*
X155328752Y-97750500D01*
X155395791Y-97770185D01*
X155426531Y-97801497D01*
X155427807Y-97800489D01*
X155432288Y-97806156D01*
X155497734Y-97871602D01*
X155531219Y-97932925D01*
X155526235Y-98002617D01*
X155497736Y-98046963D01*
X155475302Y-98069397D01*
X155401383Y-98180024D01*
X155401378Y-98180034D01*
X155350459Y-98302963D01*
X155350457Y-98302971D01*
X155324500Y-98433464D01*
X155324500Y-98532479D01*
X155304815Y-98599518D01*
X155303602Y-98601370D01*
X155290609Y-98620814D01*
X155290602Y-98620827D01*
X155230264Y-98766498D01*
X155230261Y-98766510D01*
X155199500Y-98921153D01*
X155199500Y-99078846D01*
X155230261Y-99233489D01*
X155230264Y-99233501D01*
X155290602Y-99379172D01*
X155290609Y-99379185D01*
X155378210Y-99510288D01*
X155378213Y-99510292D01*
X155489707Y-99621786D01*
X155489711Y-99621789D01*
X155620814Y-99709390D01*
X155620827Y-99709397D01*
X155749463Y-99762679D01*
X155766503Y-99769737D01*
X155921153Y-99800499D01*
X155921156Y-99800500D01*
X155921158Y-99800500D01*
X156078844Y-99800500D01*
X156078845Y-99800499D01*
X156233497Y-99769737D01*
X156379179Y-99709394D01*
X156510289Y-99621789D01*
X156621789Y-99510289D01*
X156709394Y-99379179D01*
X156769737Y-99233497D01*
X156800500Y-99078842D01*
X156800500Y-98921158D01*
X156800500Y-98921155D01*
X156769239Y-98763998D01*
X156775466Y-98694406D01*
X156803172Y-98652127D01*
X157024695Y-98430606D01*
X157053190Y-98387960D01*
X157098620Y-98319969D01*
X157117454Y-98274500D01*
X157149541Y-98197036D01*
X157162446Y-98132153D01*
X157194830Y-98070246D01*
X157245059Y-98038641D01*
X157294334Y-98022314D01*
X157443656Y-97930212D01*
X157567712Y-97806156D01*
X157659814Y-97656834D01*
X157714999Y-97490297D01*
X157725500Y-97387509D01*
X157725499Y-96799499D01*
X157745183Y-96732461D01*
X157797987Y-96686706D01*
X157849499Y-96675500D01*
X157933469Y-96675500D01*
X170668837Y-96675500D01*
X170735876Y-96695185D01*
X170756518Y-96711819D01*
X181691762Y-107647063D01*
X181725247Y-107708386D01*
X181725698Y-107710551D01*
X181730261Y-107733493D01*
X181730263Y-107733499D01*
X181790602Y-107879172D01*
X181790609Y-107879185D01*
X181878210Y-108010288D01*
X181878213Y-108010292D01*
X181989707Y-108121786D01*
X181989711Y-108121789D01*
X182120814Y-108209390D01*
X182120827Y-108209397D01*
X182266498Y-108269735D01*
X182266503Y-108269737D01*
X182421153Y-108300499D01*
X182421156Y-108300500D01*
X182421158Y-108300500D01*
X182578844Y-108300500D01*
X182578845Y-108300499D01*
X182733497Y-108269737D01*
X182879179Y-108209394D01*
X183010289Y-108121789D01*
X183121789Y-108010289D01*
X183209394Y-107879179D01*
X183269737Y-107733497D01*
X183300500Y-107578842D01*
X183300500Y-107421158D01*
X183300500Y-107421155D01*
X183300499Y-107421153D01*
X183269738Y-107266510D01*
X183269737Y-107266503D01*
X183209794Y-107121786D01*
X183209397Y-107120827D01*
X183209390Y-107120814D01*
X183121789Y-106989711D01*
X183121786Y-106989707D01*
X183010292Y-106878213D01*
X183010288Y-106878210D01*
X182879185Y-106790609D01*
X182879172Y-106790602D01*
X182733499Y-106730263D01*
X182733493Y-106730261D01*
X182710551Y-106725698D01*
X182648640Y-106693312D01*
X182647063Y-106691762D01*
X171430609Y-95475307D01*
X171430605Y-95475304D01*
X171319975Y-95401383D01*
X171319965Y-95401378D01*
X171197036Y-95350459D01*
X171197028Y-95350457D01*
X171066535Y-95324500D01*
X171066531Y-95324500D01*
X158066531Y-95324500D01*
X157849000Y-95324500D01*
X157781961Y-95304815D01*
X157736206Y-95252011D01*
X157725000Y-95200500D01*
X157725000Y-95175000D01*
X152775001Y-95175000D01*
X152775001Y-95312486D01*
X152785494Y-95415197D01*
X152840641Y-95581619D01*
X152840643Y-95581624D01*
X152932684Y-95730845D01*
X153056655Y-95854816D01*
X153056659Y-95854819D01*
X153059656Y-95856668D01*
X153061279Y-95858472D01*
X153062323Y-95859298D01*
X153062181Y-95859476D01*
X153106381Y-95908616D01*
X153117602Y-95977579D01*
X153089759Y-96041661D01*
X153059661Y-96067741D01*
X153056349Y-96069783D01*
X153056343Y-96069788D01*
X152932289Y-96193842D01*
X152840187Y-96343163D01*
X152840185Y-96343168D01*
X152840115Y-96343380D01*
X152785001Y-96509703D01*
X152785001Y-96509704D01*
X152785000Y-96509704D01*
X152774500Y-96612483D01*
X152774500Y-97218836D01*
X152754815Y-97285875D01*
X152738181Y-97306517D01*
X151772315Y-98272383D01*
X151710992Y-98305868D01*
X151641300Y-98300884D01*
X151585367Y-98259012D01*
X151579096Y-98249800D01*
X151567712Y-98231344D01*
X151443657Y-98107289D01*
X151443656Y-98107288D01*
X151440342Y-98105243D01*
X151438546Y-98103248D01*
X151437989Y-98102807D01*
X151438064Y-98102711D01*
X151393618Y-98053297D01*
X151382397Y-97984334D01*
X151410240Y-97920252D01*
X151440348Y-97894165D01*
X151443342Y-97892318D01*
X151567315Y-97768345D01*
X151659356Y-97619124D01*
X151659358Y-97619119D01*
X151714505Y-97452697D01*
X151714506Y-97452690D01*
X151724999Y-97349986D01*
X151725000Y-97349973D01*
X151725000Y-97212500D01*
X150067002Y-97212500D01*
X149999963Y-97192815D01*
X149954208Y-97140011D01*
X149943002Y-97088500D01*
X149943002Y-96836500D01*
X149962687Y-96769461D01*
X150015491Y-96723706D01*
X150067002Y-96712500D01*
X150250000Y-96712500D01*
X150750000Y-96712500D01*
X151724999Y-96712500D01*
X151724999Y-96575028D01*
X151724998Y-96575013D01*
X151714505Y-96472302D01*
X151659358Y-96305880D01*
X151659356Y-96305875D01*
X151567315Y-96156654D01*
X151443345Y-96032684D01*
X151294124Y-95940643D01*
X151294119Y-95940641D01*
X151127697Y-95885494D01*
X151127690Y-95885493D01*
X151024986Y-95875000D01*
X150750000Y-95875000D01*
X150750000Y-96712500D01*
X150250000Y-96712500D01*
X150250000Y-95875000D01*
X150067002Y-95875000D01*
X149999963Y-95855315D01*
X149954208Y-95802511D01*
X149943002Y-95751000D01*
X149943002Y-95286499D01*
X149962687Y-95219460D01*
X150015491Y-95173705D01*
X150067002Y-95162499D01*
X150249999Y-95162499D01*
X150750000Y-95162499D01*
X151024972Y-95162499D01*
X151024986Y-95162498D01*
X151127697Y-95152005D01*
X151294119Y-95096858D01*
X151294124Y-95096856D01*
X151443345Y-95004815D01*
X151567315Y-94880845D01*
X151659356Y-94731624D01*
X151659358Y-94731619D01*
X151714505Y-94565197D01*
X151714506Y-94565190D01*
X151717334Y-94537513D01*
X152775000Y-94537513D01*
X152775000Y-94675000D01*
X153750000Y-94675000D01*
X154250000Y-94675000D01*
X156250000Y-94675000D01*
X156750000Y-94675000D01*
X157724999Y-94675000D01*
X157724999Y-94537528D01*
X157724998Y-94537513D01*
X157714505Y-94434802D01*
X157659358Y-94268380D01*
X157659356Y-94268375D01*
X157567315Y-94119154D01*
X157443345Y-93995184D01*
X157294124Y-93903143D01*
X157294119Y-93903141D01*
X157127697Y-93847994D01*
X157127690Y-93847993D01*
X157024986Y-93837500D01*
X156750000Y-93837500D01*
X156750000Y-94675000D01*
X156250000Y-94675000D01*
X156250000Y-93837500D01*
X155975029Y-93837500D01*
X155975012Y-93837501D01*
X155872302Y-93847994D01*
X155705880Y-93903141D01*
X155705875Y-93903143D01*
X155556654Y-93995184D01*
X155432683Y-94119155D01*
X155432680Y-94119159D01*
X155355538Y-94244226D01*
X155303590Y-94290951D01*
X155234628Y-94302172D01*
X155170546Y-94274329D01*
X155144462Y-94244226D01*
X155067319Y-94119159D01*
X155067316Y-94119155D01*
X154943345Y-93995184D01*
X154794124Y-93903143D01*
X154794119Y-93903141D01*
X154627697Y-93847994D01*
X154627690Y-93847993D01*
X154524986Y-93837500D01*
X154250000Y-93837500D01*
X154250000Y-94675000D01*
X153750000Y-94675000D01*
X153750000Y-93837500D01*
X153475029Y-93837500D01*
X153475012Y-93837501D01*
X153372302Y-93847994D01*
X153205880Y-93903141D01*
X153205875Y-93903143D01*
X153056654Y-93995184D01*
X152932684Y-94119154D01*
X152840643Y-94268375D01*
X152840641Y-94268380D01*
X152785494Y-94434802D01*
X152785493Y-94434809D01*
X152775000Y-94537513D01*
X151717334Y-94537513D01*
X151718944Y-94521760D01*
X151718944Y-94521759D01*
X151724999Y-94462488D01*
X151725000Y-94462473D01*
X151725000Y-94325000D01*
X150750000Y-94325000D01*
X150750000Y-95162499D01*
X150249999Y-95162499D01*
X150250000Y-95162498D01*
X150250000Y-94325000D01*
X150067002Y-94325000D01*
X149999963Y-94305315D01*
X149954208Y-94252511D01*
X149943002Y-94201000D01*
X149943002Y-93949000D01*
X149962687Y-93881961D01*
X150015491Y-93836206D01*
X150067002Y-93825000D01*
X151724999Y-93825000D01*
X151724999Y-93687528D01*
X151724998Y-93687513D01*
X151714505Y-93584802D01*
X151659358Y-93418380D01*
X151659356Y-93418375D01*
X151567315Y-93269154D01*
X151443344Y-93145183D01*
X151443341Y-93145181D01*
X151440339Y-93143329D01*
X151438713Y-93141521D01*
X151437677Y-93140702D01*
X151437817Y-93140524D01*
X151393617Y-93091380D01*
X151382397Y-93022417D01*
X151410243Y-92958336D01*
X151440344Y-92932254D01*
X151443656Y-92930212D01*
X151567712Y-92806156D01*
X151659814Y-92656834D01*
X151714999Y-92490297D01*
X151725500Y-92387509D01*
X151725499Y-91612492D01*
X151714999Y-91509703D01*
X151674500Y-91387486D01*
X152765001Y-91387486D01*
X152775494Y-91490197D01*
X152830641Y-91656619D01*
X152830643Y-91656624D01*
X152922684Y-91805845D01*
X153046654Y-91929815D01*
X153195875Y-92021856D01*
X153195880Y-92021858D01*
X153362302Y-92077005D01*
X153362309Y-92077006D01*
X153465019Y-92087499D01*
X153739999Y-92087499D01*
X154240000Y-92087499D01*
X154514972Y-92087499D01*
X154514986Y-92087498D01*
X154617697Y-92077005D01*
X154784119Y-92021858D01*
X154784124Y-92021856D01*
X154933345Y-91929815D01*
X155057315Y-91805845D01*
X155139461Y-91672666D01*
X155191409Y-91625942D01*
X155260372Y-91614719D01*
X155324454Y-91642563D01*
X155350539Y-91672666D01*
X155432684Y-91805845D01*
X155556654Y-91929815D01*
X155705875Y-92021856D01*
X155705880Y-92021858D01*
X155872302Y-92077005D01*
X155872309Y-92077006D01*
X155975019Y-92087499D01*
X156249999Y-92087499D01*
X156750000Y-92087499D01*
X157024972Y-92087499D01*
X157024986Y-92087498D01*
X157127697Y-92077005D01*
X157294119Y-92021858D01*
X157294124Y-92021856D01*
X157443345Y-91929815D01*
X157567315Y-91805845D01*
X157659356Y-91656624D01*
X157659358Y-91656619D01*
X157714505Y-91490197D01*
X157714506Y-91490190D01*
X157724999Y-91387486D01*
X157725000Y-91387473D01*
X157725000Y-91250000D01*
X156750000Y-91250000D01*
X156750000Y-92087499D01*
X156249999Y-92087499D01*
X156250000Y-92087498D01*
X156250000Y-91250000D01*
X154240000Y-91250000D01*
X154240000Y-92087499D01*
X153739999Y-92087499D01*
X153740000Y-92087498D01*
X153740000Y-91250000D01*
X152765001Y-91250000D01*
X152765001Y-91387486D01*
X151674500Y-91387486D01*
X151659814Y-91343166D01*
X151567712Y-91193844D01*
X151443656Y-91069788D01*
X151294334Y-90977686D01*
X151127797Y-90922501D01*
X151127795Y-90922500D01*
X151025010Y-90912000D01*
X149974998Y-90912000D01*
X149974980Y-90912001D01*
X149872203Y-90922500D01*
X149872200Y-90922501D01*
X149705668Y-90977685D01*
X149705663Y-90977687D01*
X149556342Y-91069789D01*
X149432289Y-91193842D01*
X149432288Y-91193844D01*
X149389181Y-91263733D01*
X149388031Y-91265597D01*
X149380443Y-91272421D01*
X149376205Y-91281703D01*
X149354905Y-91295391D01*
X149336083Y-91312321D01*
X149324447Y-91314965D01*
X149317427Y-91319477D01*
X149282492Y-91324500D01*
X149217508Y-91324500D01*
X149150469Y-91304815D01*
X149111969Y-91265597D01*
X149110821Y-91263735D01*
X149067712Y-91193844D01*
X148943656Y-91069788D01*
X148794334Y-90977686D01*
X148750494Y-90963158D01*
X148693050Y-90923385D01*
X148666228Y-90858869D01*
X148665500Y-90845453D01*
X148665500Y-90151232D01*
X148685185Y-90084193D01*
X148737989Y-90038438D01*
X148750495Y-90033526D01*
X148784334Y-90022314D01*
X148933656Y-89930212D01*
X149057712Y-89806156D01*
X149101970Y-89734402D01*
X149109556Y-89727578D01*
X149113795Y-89718297D01*
X149135094Y-89704608D01*
X149153917Y-89687679D01*
X149165552Y-89685034D01*
X149172573Y-89680523D01*
X149207508Y-89675500D01*
X149282492Y-89675500D01*
X149349531Y-89695185D01*
X149388029Y-89734401D01*
X149432288Y-89806156D01*
X149556344Y-89930212D01*
X149705666Y-90022314D01*
X149872203Y-90077499D01*
X149974991Y-90088000D01*
X151025008Y-90087999D01*
X151025016Y-90087998D01*
X151025019Y-90087998D01*
X151081302Y-90082248D01*
X151127797Y-90077499D01*
X151294334Y-90022314D01*
X151443656Y-89930212D01*
X151567712Y-89806156D01*
X151658229Y-89659402D01*
X151710177Y-89612679D01*
X151763768Y-89600500D01*
X152772492Y-89600500D01*
X152839531Y-89620185D01*
X152878029Y-89659401D01*
X152922288Y-89731156D01*
X153046344Y-89855212D01*
X153049628Y-89857237D01*
X153049653Y-89857253D01*
X153051445Y-89859246D01*
X153052011Y-89859693D01*
X153051934Y-89859789D01*
X153096379Y-89909199D01*
X153107603Y-89978161D01*
X153079761Y-90042244D01*
X153049665Y-90068326D01*
X153046660Y-90070179D01*
X153046655Y-90070183D01*
X152922684Y-90194154D01*
X152830643Y-90343375D01*
X152830641Y-90343380D01*
X152775494Y-90509802D01*
X152775493Y-90509809D01*
X152765000Y-90612513D01*
X152765000Y-90750000D01*
X157724999Y-90750000D01*
X157724999Y-90612528D01*
X157724998Y-90612513D01*
X157714505Y-90509802D01*
X157659358Y-90343380D01*
X157659356Y-90343375D01*
X157567315Y-90194154D01*
X157443344Y-90070183D01*
X157443341Y-90070181D01*
X157440339Y-90068329D01*
X157438713Y-90066521D01*
X157437677Y-90065702D01*
X157437817Y-90065524D01*
X157393617Y-90016380D01*
X157382397Y-89947417D01*
X157410243Y-89883336D01*
X157440344Y-89857254D01*
X157443656Y-89855212D01*
X157567712Y-89731156D01*
X157659814Y-89581834D01*
X157714999Y-89415297D01*
X157725500Y-89312509D01*
X157725499Y-88537492D01*
X157714999Y-88434703D01*
X157659814Y-88268166D01*
X157567712Y-88118844D01*
X157443656Y-87994788D01*
X157339600Y-87930606D01*
X157294336Y-87902687D01*
X157294335Y-87902686D01*
X157294334Y-87902686D01*
X157227990Y-87880701D01*
X157227828Y-87880589D01*
X157227632Y-87880582D01*
X157199118Y-87860711D01*
X157170546Y-87840928D01*
X157170415Y-87840708D01*
X157170309Y-87840634D01*
X157169803Y-87839676D01*
X157152353Y-87810249D01*
X157149718Y-87803858D01*
X157149541Y-87802964D01*
X157110782Y-87709394D01*
X157098620Y-87680031D01*
X157032867Y-87581624D01*
X157024698Y-87569398D01*
X157024697Y-87569397D01*
X157024695Y-87569394D01*
X156930606Y-87475305D01*
X156803175Y-87347874D01*
X156769690Y-87286551D01*
X156769239Y-87236001D01*
X156800500Y-87078844D01*
X156800500Y-86921155D01*
X156800499Y-86921153D01*
X156769738Y-86766510D01*
X156769737Y-86766503D01*
X156731836Y-86675000D01*
X156709397Y-86620827D01*
X156709390Y-86620814D01*
X156621789Y-86489711D01*
X156621786Y-86489707D01*
X156510292Y-86378213D01*
X156510288Y-86378210D01*
X156379185Y-86290609D01*
X156379172Y-86290602D01*
X156233501Y-86230264D01*
X156233489Y-86230261D01*
X156078845Y-86199500D01*
X156078842Y-86199500D01*
X155921158Y-86199500D01*
X155921155Y-86199500D01*
X155766510Y-86230261D01*
X155766498Y-86230264D01*
X155620827Y-86290602D01*
X155620814Y-86290609D01*
X155489711Y-86378210D01*
X155489707Y-86378213D01*
X155378213Y-86489707D01*
X155378210Y-86489711D01*
X155290609Y-86620814D01*
X155290602Y-86620827D01*
X155230264Y-86766498D01*
X155230261Y-86766510D01*
X155199500Y-86921153D01*
X155199500Y-87078846D01*
X155230261Y-87233489D01*
X155230264Y-87233501D01*
X155290603Y-87379174D01*
X155290604Y-87379175D01*
X155290606Y-87379179D01*
X155303602Y-87398628D01*
X155324480Y-87465305D01*
X155324500Y-87467519D01*
X155324500Y-87566535D01*
X155350457Y-87697028D01*
X155350459Y-87697036D01*
X155401378Y-87819965D01*
X155401383Y-87819975D01*
X155476934Y-87933045D01*
X155497812Y-87999723D01*
X155479327Y-88067103D01*
X155473546Y-88075646D01*
X155468047Y-88083083D01*
X155432288Y-88118844D01*
X155385298Y-88195027D01*
X155382206Y-88199210D01*
X155358344Y-88217297D01*
X155336083Y-88237321D01*
X155330152Y-88238668D01*
X155326526Y-88241418D01*
X155313663Y-88242416D01*
X155282492Y-88249500D01*
X155207508Y-88249500D01*
X155140469Y-88229815D01*
X155101969Y-88190597D01*
X155096453Y-88181654D01*
X155057712Y-88118844D01*
X154933656Y-87994788D01*
X154829600Y-87930606D01*
X154784336Y-87902687D01*
X154784331Y-87902685D01*
X154724177Y-87882752D01*
X154617797Y-87847501D01*
X154617795Y-87847500D01*
X154515010Y-87837000D01*
X153464998Y-87837000D01*
X153464980Y-87837001D01*
X153362203Y-87847500D01*
X153362200Y-87847501D01*
X153195668Y-87902685D01*
X153195663Y-87902687D01*
X153046342Y-87994789D01*
X152922289Y-88118842D01*
X152878031Y-88190597D01*
X152826083Y-88237321D01*
X152772492Y-88249500D01*
X151671248Y-88249500D01*
X151604209Y-88229815D01*
X151584239Y-88213848D01*
X151573569Y-88203339D01*
X151567712Y-88193844D01*
X151443656Y-88069788D01*
X151428416Y-88060388D01*
X151418431Y-88050554D01*
X151407990Y-88031776D01*
X151393618Y-88015797D01*
X151391347Y-88001842D01*
X151384479Y-87989489D01*
X151385848Y-87968041D01*
X151382397Y-87946834D01*
X151388030Y-87933868D01*
X151388931Y-87919761D01*
X151401677Y-87902459D01*
X151410240Y-87882752D01*
X151426708Y-87868482D01*
X151430373Y-87863509D01*
X151434083Y-87862092D01*
X151440348Y-87856665D01*
X151443342Y-87854818D01*
X151567315Y-87730845D01*
X151659356Y-87581624D01*
X151659358Y-87581619D01*
X151714505Y-87415197D01*
X151714506Y-87415190D01*
X151724999Y-87312486D01*
X151725000Y-87312473D01*
X151725000Y-87175000D01*
X146765001Y-87175000D01*
X146765001Y-87312486D01*
X146775494Y-87415197D01*
X146830641Y-87581619D01*
X146830643Y-87581624D01*
X146922684Y-87730845D01*
X147046655Y-87854816D01*
X147046659Y-87854819D01*
X147049656Y-87856668D01*
X147051279Y-87858472D01*
X147052323Y-87859298D01*
X147052181Y-87859476D01*
X147096381Y-87908616D01*
X147107602Y-87977579D01*
X147079759Y-88041661D01*
X147072051Y-88050076D01*
X147061874Y-88060208D01*
X147046344Y-88069788D01*
X146922288Y-88193844D01*
X146913733Y-88207713D01*
X146903365Y-88218037D01*
X146884998Y-88228014D01*
X146869457Y-88241992D01*
X146854915Y-88244357D01*
X146841970Y-88251390D01*
X146821125Y-88249853D01*
X146800494Y-88253210D01*
X146774929Y-88246449D01*
X146772289Y-88246255D01*
X146771255Y-88245478D01*
X146768423Y-88244729D01*
X146733498Y-88230263D01*
X146733488Y-88230260D01*
X146578845Y-88199500D01*
X146578842Y-88199500D01*
X146421158Y-88199500D01*
X146421155Y-88199500D01*
X146266510Y-88230261D01*
X146266498Y-88230264D01*
X146120827Y-88290602D01*
X146120814Y-88290609D01*
X145989711Y-88378210D01*
X145989707Y-88378213D01*
X145878213Y-88489707D01*
X145878210Y-88489711D01*
X145790609Y-88620814D01*
X145790602Y-88620827D01*
X145730264Y-88766498D01*
X145730261Y-88766510D01*
X145699500Y-88921153D01*
X145699500Y-89078846D01*
X145730261Y-89233489D01*
X145730264Y-89233501D01*
X145790602Y-89379172D01*
X145790609Y-89379185D01*
X145878210Y-89510288D01*
X145878213Y-89510292D01*
X145989707Y-89621786D01*
X145989711Y-89621789D01*
X146120814Y-89709390D01*
X146120827Y-89709397D01*
X146266498Y-89769735D01*
X146266503Y-89769737D01*
X146421153Y-89800499D01*
X146421156Y-89800500D01*
X146421158Y-89800500D01*
X146578844Y-89800500D01*
X146578845Y-89800499D01*
X146733497Y-89769737D01*
X146768421Y-89755270D01*
X146837889Y-89747802D01*
X146900368Y-89779077D01*
X146921410Y-89804732D01*
X146922288Y-89806156D01*
X147046344Y-89930212D01*
X147195666Y-90022314D01*
X147229500Y-90033525D01*
X147286947Y-90073296D01*
X147313772Y-90137811D01*
X147314500Y-90151232D01*
X147314500Y-90852080D01*
X147294815Y-90919119D01*
X147242011Y-90964874D01*
X147229507Y-90969785D01*
X147205667Y-90977685D01*
X147056342Y-91069789D01*
X146932288Y-91193843D01*
X146932283Y-91193849D01*
X146929373Y-91198568D01*
X146877423Y-91245290D01*
X146808460Y-91256509D01*
X146776387Y-91248028D01*
X146733497Y-91230263D01*
X146733489Y-91230261D01*
X146578845Y-91199500D01*
X146578842Y-91199500D01*
X146421158Y-91199500D01*
X146421155Y-91199500D01*
X146266510Y-91230261D01*
X146266498Y-91230264D01*
X146120827Y-91290602D01*
X146120814Y-91290609D01*
X145989711Y-91378210D01*
X145989707Y-91378213D01*
X145878213Y-91489707D01*
X145878210Y-91489711D01*
X145790609Y-91620814D01*
X145790602Y-91620827D01*
X145730264Y-91766498D01*
X145730261Y-91766510D01*
X145699500Y-91921153D01*
X145699500Y-92078846D01*
X145730261Y-92233489D01*
X145730264Y-92233501D01*
X145790602Y-92379172D01*
X145790609Y-92379185D01*
X145878210Y-92510288D01*
X145878213Y-92510292D01*
X145989707Y-92621786D01*
X145989711Y-92621789D01*
X146120814Y-92709390D01*
X146120827Y-92709397D01*
X146223614Y-92751972D01*
X146266503Y-92769737D01*
X146421153Y-92800499D01*
X146421156Y-92800500D01*
X146421158Y-92800500D01*
X146578844Y-92800500D01*
X146578845Y-92800499D01*
X146733497Y-92769737D01*
X146776385Y-92751971D01*
X146845852Y-92744502D01*
X146908332Y-92775776D01*
X146911658Y-92778989D01*
X146921817Y-92789180D01*
X146932288Y-92806156D01*
X147056344Y-92930212D01*
X147072078Y-92939917D01*
X147082379Y-92950250D01*
X147092382Y-92968638D01*
X147106379Y-92984199D01*
X147108740Y-92998709D01*
X147115767Y-93011626D01*
X147114240Y-93032502D01*
X147117603Y-93053161D01*
X147111744Y-93066646D01*
X147110672Y-93081310D01*
X147098101Y-93098047D01*
X147089761Y-93117244D01*
X147072353Y-93132329D01*
X147068713Y-93137177D01*
X147065297Y-93138444D01*
X147059665Y-93143326D01*
X147056660Y-93145179D01*
X147056655Y-93145183D01*
X146932684Y-93269154D01*
X146840643Y-93418375D01*
X146840641Y-93418380D01*
X146785494Y-93584802D01*
X146785493Y-93584809D01*
X146775000Y-93687513D01*
X146775000Y-93825000D01*
X148468002Y-93825000D01*
X148535041Y-93844685D01*
X148580796Y-93897489D01*
X148592002Y-93949000D01*
X148592002Y-94201000D01*
X148572317Y-94268039D01*
X148519513Y-94313794D01*
X148468002Y-94325000D01*
X148250000Y-94325000D01*
X148250000Y-95162499D01*
X148468002Y-95162499D01*
X148535041Y-95182184D01*
X148580796Y-95234988D01*
X148592002Y-95286499D01*
X148592002Y-95788500D01*
X148572317Y-95855539D01*
X148519513Y-95901294D01*
X148468002Y-95912500D01*
X148250000Y-95912500D01*
X148250000Y-96750000D01*
X148468002Y-96750000D01*
X148535041Y-96769685D01*
X148580796Y-96822489D01*
X148592002Y-96874000D01*
X148592002Y-97126000D01*
X148572317Y-97193039D01*
X148519513Y-97238794D01*
X148468002Y-97250000D01*
X146775001Y-97250000D01*
X146775001Y-97387486D01*
X146785494Y-97490197D01*
X146840641Y-97656619D01*
X146840643Y-97656624D01*
X146932684Y-97805845D01*
X147056655Y-97929816D01*
X147056659Y-97929819D01*
X147059656Y-97931668D01*
X147061279Y-97933472D01*
X147062323Y-97934298D01*
X147062181Y-97934476D01*
X147106381Y-97983616D01*
X147117602Y-98052579D01*
X147089759Y-98116661D01*
X147059661Y-98142741D01*
X147056349Y-98144783D01*
X147056343Y-98144788D01*
X146932289Y-98268842D01*
X146932288Y-98268844D01*
X146909452Y-98305868D01*
X146888031Y-98340597D01*
X146880443Y-98347421D01*
X146876205Y-98356703D01*
X146854905Y-98370391D01*
X146836083Y-98387321D01*
X146824447Y-98389965D01*
X146817427Y-98394477D01*
X146782492Y-98399500D01*
X146542520Y-98399500D01*
X146475481Y-98379815D01*
X146473628Y-98378601D01*
X146454186Y-98365610D01*
X146454172Y-98365602D01*
X146308501Y-98305264D01*
X146308489Y-98305261D01*
X146153845Y-98274500D01*
X146153842Y-98274500D01*
X145996158Y-98274500D01*
X145996155Y-98274500D01*
X145841510Y-98305261D01*
X145841498Y-98305264D01*
X145695827Y-98365602D01*
X145695814Y-98365609D01*
X145564711Y-98453210D01*
X145564707Y-98453213D01*
X145453213Y-98564707D01*
X145453210Y-98564711D01*
X145365609Y-98695814D01*
X145365602Y-98695827D01*
X145305264Y-98841498D01*
X145305261Y-98841510D01*
X145274500Y-98996153D01*
X142459147Y-98996153D01*
X142647063Y-98808236D01*
X142708386Y-98774752D01*
X142710491Y-98774313D01*
X142733497Y-98769737D01*
X142879179Y-98709394D01*
X143010289Y-98621789D01*
X143121789Y-98510289D01*
X143209394Y-98379179D01*
X143209634Y-98378601D01*
X143240011Y-98305263D01*
X143269737Y-98233497D01*
X143300500Y-98078842D01*
X143300500Y-97921158D01*
X143300500Y-97921155D01*
X143300499Y-97921153D01*
X143290643Y-97871602D01*
X143269737Y-97766503D01*
X143265189Y-97755523D01*
X143209397Y-97620827D01*
X143209390Y-97620814D01*
X143121789Y-97489711D01*
X143121786Y-97489707D01*
X143010292Y-97378213D01*
X143010288Y-97378210D01*
X142879185Y-97290609D01*
X142879172Y-97290602D01*
X142733501Y-97230264D01*
X142733489Y-97230261D01*
X142578845Y-97199500D01*
X142578842Y-97199500D01*
X142421158Y-97199500D01*
X142421155Y-97199500D01*
X142266510Y-97230261D01*
X142266498Y-97230264D01*
X142120827Y-97290602D01*
X142120814Y-97290609D01*
X141989711Y-97378210D01*
X141989707Y-97378213D01*
X141878213Y-97489707D01*
X141878210Y-97489711D01*
X141850233Y-97531582D01*
X141796620Y-97576387D01*
X141727295Y-97585094D01*
X141682036Y-97568231D01*
X141656834Y-97552686D01*
X141490297Y-97497501D01*
X141490295Y-97497500D01*
X141387510Y-97487000D01*
X140612498Y-97487000D01*
X140612480Y-97487001D01*
X140509703Y-97497500D01*
X140509700Y-97497501D01*
X140343168Y-97552685D01*
X140343163Y-97552687D01*
X140193842Y-97644789D01*
X140069788Y-97768843D01*
X140069783Y-97768849D01*
X140067741Y-97772161D01*
X140065747Y-97773953D01*
X140065307Y-97774511D01*
X140065211Y-97774435D01*
X140015791Y-97818883D01*
X139946828Y-97830102D01*
X139882747Y-97802255D01*
X139856668Y-97772156D01*
X139854819Y-97769159D01*
X139854816Y-97769155D01*
X139730845Y-97645184D01*
X139581624Y-97553143D01*
X139581619Y-97553141D01*
X139415197Y-97497994D01*
X139415190Y-97497993D01*
X139312486Y-97487500D01*
X139175000Y-97487500D01*
X138675000Y-97487500D01*
X138537527Y-97487500D01*
X138537512Y-97487501D01*
X138434802Y-97497994D01*
X138268380Y-97553141D01*
X138268375Y-97553143D01*
X138119154Y-97645184D01*
X137995184Y-97769154D01*
X137903143Y-97918375D01*
X137903141Y-97918380D01*
X137847994Y-98084802D01*
X137847993Y-98084809D01*
X137837500Y-98187513D01*
X101000500Y-98187513D01*
X101000500Y-96612513D01*
X146775000Y-96612513D01*
X146775000Y-96750000D01*
X147750000Y-96750000D01*
X147750000Y-95912500D01*
X147475029Y-95912500D01*
X147475012Y-95912501D01*
X147372302Y-95922994D01*
X147205880Y-95978141D01*
X147205875Y-95978143D01*
X147056654Y-96070184D01*
X146932684Y-96194154D01*
X146840643Y-96343375D01*
X146840641Y-96343380D01*
X146785494Y-96509802D01*
X146785493Y-96509809D01*
X146775000Y-96612513D01*
X101000500Y-96612513D01*
X101000500Y-94462486D01*
X146775001Y-94462486D01*
X146785494Y-94565197D01*
X146840641Y-94731619D01*
X146840643Y-94731624D01*
X146932684Y-94880845D01*
X147056654Y-95004815D01*
X147205875Y-95096856D01*
X147205880Y-95096858D01*
X147372302Y-95152005D01*
X147372309Y-95152006D01*
X147475019Y-95162499D01*
X147749999Y-95162499D01*
X147750000Y-95162498D01*
X147750000Y-94325000D01*
X146775001Y-94325000D01*
X146775001Y-94462486D01*
X101000500Y-94462486D01*
X101000500Y-89399986D01*
X110800001Y-89399986D01*
X110810494Y-89502697D01*
X110865641Y-89669119D01*
X110865643Y-89669124D01*
X110957684Y-89818345D01*
X111081654Y-89942315D01*
X111230875Y-90034356D01*
X111230880Y-90034358D01*
X111397302Y-90089505D01*
X111397309Y-90089506D01*
X111500019Y-90099999D01*
X111749999Y-90099999D01*
X112250000Y-90099999D01*
X112499972Y-90099999D01*
X112499986Y-90099998D01*
X112602697Y-90089505D01*
X112769119Y-90034358D01*
X112769124Y-90034356D01*
X112918345Y-89942315D01*
X113042315Y-89818345D01*
X113134356Y-89669124D01*
X113134358Y-89669119D01*
X113189505Y-89502697D01*
X113189506Y-89502690D01*
X113199999Y-89399986D01*
X113800001Y-89399986D01*
X113810494Y-89502697D01*
X113865641Y-89669119D01*
X113865643Y-89669124D01*
X113957684Y-89818345D01*
X114081654Y-89942315D01*
X114230875Y-90034356D01*
X114230880Y-90034358D01*
X114397302Y-90089505D01*
X114397309Y-90089506D01*
X114500019Y-90099999D01*
X114749999Y-90099999D01*
X115250000Y-90099999D01*
X115499972Y-90099999D01*
X115499986Y-90099998D01*
X115602697Y-90089505D01*
X115769119Y-90034358D01*
X115769124Y-90034356D01*
X115918345Y-89942315D01*
X116042315Y-89818345D01*
X116134356Y-89669124D01*
X116134358Y-89669119D01*
X116189505Y-89502697D01*
X116189506Y-89502690D01*
X116199999Y-89399986D01*
X116800001Y-89399986D01*
X116810494Y-89502697D01*
X116865641Y-89669119D01*
X116865643Y-89669124D01*
X116957684Y-89818345D01*
X117081654Y-89942315D01*
X117230875Y-90034356D01*
X117230880Y-90034358D01*
X117397302Y-90089505D01*
X117397309Y-90089506D01*
X117500019Y-90099999D01*
X117749999Y-90099999D01*
X118250000Y-90099999D01*
X118499972Y-90099999D01*
X118499986Y-90099998D01*
X118602697Y-90089505D01*
X118769119Y-90034358D01*
X118769124Y-90034356D01*
X118918345Y-89942315D01*
X119042315Y-89818345D01*
X119134356Y-89669124D01*
X119134358Y-89669119D01*
X119189505Y-89502697D01*
X119189506Y-89502690D01*
X119199999Y-89399986D01*
X119800001Y-89399986D01*
X119810494Y-89502697D01*
X119865641Y-89669119D01*
X119865643Y-89669124D01*
X119957684Y-89818345D01*
X120081654Y-89942315D01*
X120230875Y-90034356D01*
X120230880Y-90034358D01*
X120397302Y-90089505D01*
X120397309Y-90089506D01*
X120500019Y-90099999D01*
X120749999Y-90099999D01*
X121250000Y-90099999D01*
X121499972Y-90099999D01*
X121499986Y-90099998D01*
X121602697Y-90089505D01*
X121769119Y-90034358D01*
X121769124Y-90034356D01*
X121918345Y-89942315D01*
X122042315Y-89818345D01*
X122134356Y-89669124D01*
X122134358Y-89669119D01*
X122189505Y-89502697D01*
X122189506Y-89502690D01*
X122199999Y-89399986D01*
X122800001Y-89399986D01*
X122810494Y-89502697D01*
X122865641Y-89669119D01*
X122865643Y-89669124D01*
X122957684Y-89818345D01*
X123081654Y-89942315D01*
X123230875Y-90034356D01*
X123230880Y-90034358D01*
X123397302Y-90089505D01*
X123397309Y-90089506D01*
X123500019Y-90099999D01*
X123749999Y-90099999D01*
X124250000Y-90099999D01*
X124499972Y-90099999D01*
X124499986Y-90099998D01*
X124602697Y-90089505D01*
X124769119Y-90034358D01*
X124769124Y-90034356D01*
X124918345Y-89942315D01*
X125042315Y-89818345D01*
X125134356Y-89669124D01*
X125134358Y-89669119D01*
X125189505Y-89502697D01*
X125189506Y-89502690D01*
X125199999Y-89399986D01*
X125800001Y-89399986D01*
X125810494Y-89502697D01*
X125865641Y-89669119D01*
X125865643Y-89669124D01*
X125957684Y-89818345D01*
X126081654Y-89942315D01*
X126230875Y-90034356D01*
X126230880Y-90034358D01*
X126397302Y-90089505D01*
X126397309Y-90089506D01*
X126500019Y-90099999D01*
X126749999Y-90099999D01*
X127250000Y-90099999D01*
X127499972Y-90099999D01*
X127499986Y-90099998D01*
X127602697Y-90089505D01*
X127769119Y-90034358D01*
X127769124Y-90034356D01*
X127918345Y-89942315D01*
X128042315Y-89818345D01*
X128134356Y-89669124D01*
X128134358Y-89669119D01*
X128189505Y-89502697D01*
X128189506Y-89502690D01*
X128199999Y-89399986D01*
X128800001Y-89399986D01*
X128810494Y-89502697D01*
X128865641Y-89669119D01*
X128865643Y-89669124D01*
X128957684Y-89818345D01*
X129081654Y-89942315D01*
X129230875Y-90034356D01*
X129230880Y-90034358D01*
X129397302Y-90089505D01*
X129397309Y-90089506D01*
X129500019Y-90099999D01*
X129749999Y-90099999D01*
X130250000Y-90099999D01*
X130499972Y-90099999D01*
X130499986Y-90099998D01*
X130602697Y-90089505D01*
X130769119Y-90034358D01*
X130769124Y-90034356D01*
X130918345Y-89942315D01*
X131042315Y-89818345D01*
X131134356Y-89669124D01*
X131134358Y-89669119D01*
X131189505Y-89502697D01*
X131189506Y-89502690D01*
X131199999Y-89399986D01*
X131800001Y-89399986D01*
X131810494Y-89502697D01*
X131865641Y-89669119D01*
X131865643Y-89669124D01*
X131957684Y-89818345D01*
X132081654Y-89942315D01*
X132230875Y-90034356D01*
X132230880Y-90034358D01*
X132397302Y-90089505D01*
X132397309Y-90089506D01*
X132500019Y-90099999D01*
X132749999Y-90099999D01*
X133250000Y-90099999D01*
X133499972Y-90099999D01*
X133499986Y-90099998D01*
X133602697Y-90089505D01*
X133769119Y-90034358D01*
X133769124Y-90034356D01*
X133918345Y-89942315D01*
X134042315Y-89818345D01*
X134134356Y-89669124D01*
X134134358Y-89669119D01*
X134189505Y-89502697D01*
X134189506Y-89502690D01*
X134199999Y-89399986D01*
X134200000Y-89399973D01*
X134200000Y-89250000D01*
X133250000Y-89250000D01*
X133250000Y-90099999D01*
X132749999Y-90099999D01*
X132750000Y-90099998D01*
X132750000Y-89250000D01*
X131800001Y-89250000D01*
X131800001Y-89399986D01*
X131199999Y-89399986D01*
X131200000Y-89399973D01*
X131200000Y-89250000D01*
X130250000Y-89250000D01*
X130250000Y-90099999D01*
X129749999Y-90099999D01*
X129750000Y-90099998D01*
X129750000Y-89250000D01*
X128800001Y-89250000D01*
X128800001Y-89399986D01*
X128199999Y-89399986D01*
X128200000Y-89399973D01*
X128200000Y-89250000D01*
X127250000Y-89250000D01*
X127250000Y-90099999D01*
X126749999Y-90099999D01*
X126750000Y-90099998D01*
X126750000Y-89250000D01*
X125800001Y-89250000D01*
X125800001Y-89399986D01*
X125199999Y-89399986D01*
X125200000Y-89399973D01*
X125200000Y-89250000D01*
X124250000Y-89250000D01*
X124250000Y-90099999D01*
X123749999Y-90099999D01*
X123750000Y-90099998D01*
X123750000Y-89250000D01*
X122800001Y-89250000D01*
X122800001Y-89399986D01*
X122199999Y-89399986D01*
X122200000Y-89399973D01*
X122200000Y-89250000D01*
X121250000Y-89250000D01*
X121250000Y-90099999D01*
X120749999Y-90099999D01*
X120750000Y-90099998D01*
X120750000Y-89250000D01*
X119800001Y-89250000D01*
X119800001Y-89399986D01*
X119199999Y-89399986D01*
X119200000Y-89399973D01*
X119200000Y-89250000D01*
X118250000Y-89250000D01*
X118250000Y-90099999D01*
X117749999Y-90099999D01*
X117750000Y-90099998D01*
X117750000Y-89250000D01*
X116800001Y-89250000D01*
X116800001Y-89399986D01*
X116199999Y-89399986D01*
X116200000Y-89399973D01*
X116200000Y-89250000D01*
X115250000Y-89250000D01*
X115250000Y-90099999D01*
X114749999Y-90099999D01*
X114750000Y-90099998D01*
X114750000Y-89250000D01*
X113800001Y-89250000D01*
X113800001Y-89399986D01*
X113199999Y-89399986D01*
X113200000Y-89399973D01*
X113200000Y-89250000D01*
X112250000Y-89250000D01*
X112250000Y-90099999D01*
X111749999Y-90099999D01*
X111750000Y-90099998D01*
X111750000Y-89250000D01*
X110800001Y-89250000D01*
X110800001Y-89399986D01*
X101000500Y-89399986D01*
X101000500Y-86599983D01*
X110799500Y-86599983D01*
X110799500Y-87400001D01*
X110799501Y-87400019D01*
X110810000Y-87502796D01*
X110810001Y-87502799D01*
X110865185Y-87669331D01*
X110865187Y-87669336D01*
X110957289Y-87818657D01*
X111051304Y-87912672D01*
X111084789Y-87973995D01*
X111079805Y-88043687D01*
X111051305Y-88088034D01*
X110957682Y-88181657D01*
X110865643Y-88330875D01*
X110865641Y-88330880D01*
X110810494Y-88497302D01*
X110810493Y-88497309D01*
X110800000Y-88600013D01*
X110800000Y-88750000D01*
X113199999Y-88750000D01*
X113199999Y-88600028D01*
X113199998Y-88600013D01*
X113189505Y-88497302D01*
X113134358Y-88330880D01*
X113134356Y-88330875D01*
X113042315Y-88181654D01*
X112948695Y-88088034D01*
X112915210Y-88026711D01*
X112920194Y-87957019D01*
X112948691Y-87912676D01*
X113042712Y-87818656D01*
X113134814Y-87669334D01*
X113189999Y-87502797D01*
X113200500Y-87400009D01*
X113200499Y-86599992D01*
X113200498Y-86599983D01*
X113799500Y-86599983D01*
X113799500Y-87400001D01*
X113799501Y-87400019D01*
X113810000Y-87502796D01*
X113810001Y-87502799D01*
X113865185Y-87669331D01*
X113865187Y-87669336D01*
X113957289Y-87818657D01*
X114051304Y-87912672D01*
X114084789Y-87973995D01*
X114079805Y-88043687D01*
X114051305Y-88088034D01*
X113957682Y-88181657D01*
X113865643Y-88330875D01*
X113865641Y-88330880D01*
X113810494Y-88497302D01*
X113810493Y-88497309D01*
X113800000Y-88600013D01*
X113800000Y-88750000D01*
X116199999Y-88750000D01*
X116199999Y-88600028D01*
X116199998Y-88600013D01*
X116189505Y-88497302D01*
X116134358Y-88330880D01*
X116134356Y-88330875D01*
X116042315Y-88181654D01*
X115948695Y-88088034D01*
X115915210Y-88026711D01*
X115920194Y-87957019D01*
X115948691Y-87912676D01*
X116042712Y-87818656D01*
X116134814Y-87669334D01*
X116189999Y-87502797D01*
X116200500Y-87400009D01*
X116200499Y-86599992D01*
X116200498Y-86599983D01*
X116799500Y-86599983D01*
X116799500Y-87400001D01*
X116799501Y-87400019D01*
X116810000Y-87502796D01*
X116810001Y-87502799D01*
X116865185Y-87669331D01*
X116865187Y-87669336D01*
X116957289Y-87818657D01*
X117051304Y-87912672D01*
X117084789Y-87973995D01*
X117079805Y-88043687D01*
X117051305Y-88088034D01*
X116957682Y-88181657D01*
X116865643Y-88330875D01*
X116865641Y-88330880D01*
X116810494Y-88497302D01*
X116810493Y-88497309D01*
X116800000Y-88600013D01*
X116800000Y-88750000D01*
X119199999Y-88750000D01*
X119199999Y-88600028D01*
X119199998Y-88600013D01*
X119189505Y-88497302D01*
X119134358Y-88330880D01*
X119134356Y-88330875D01*
X119042315Y-88181654D01*
X118948695Y-88088034D01*
X118915210Y-88026711D01*
X118920194Y-87957019D01*
X118948691Y-87912676D01*
X119042712Y-87818656D01*
X119134814Y-87669334D01*
X119189999Y-87502797D01*
X119200500Y-87400009D01*
X119200499Y-86599992D01*
X119200498Y-86599983D01*
X119799500Y-86599983D01*
X119799500Y-87400001D01*
X119799501Y-87400019D01*
X119810000Y-87502796D01*
X119810001Y-87502799D01*
X119865185Y-87669331D01*
X119865187Y-87669336D01*
X119957289Y-87818657D01*
X120051304Y-87912672D01*
X120084789Y-87973995D01*
X120079805Y-88043687D01*
X120051305Y-88088034D01*
X119957682Y-88181657D01*
X119865643Y-88330875D01*
X119865641Y-88330880D01*
X119810494Y-88497302D01*
X119810493Y-88497309D01*
X119800000Y-88600013D01*
X119800000Y-88750000D01*
X122199999Y-88750000D01*
X122199999Y-88600028D01*
X122199998Y-88600013D01*
X122189505Y-88497302D01*
X122134358Y-88330880D01*
X122134356Y-88330875D01*
X122042315Y-88181654D01*
X121948695Y-88088034D01*
X121915210Y-88026711D01*
X121920194Y-87957019D01*
X121948691Y-87912676D01*
X122042712Y-87818656D01*
X122134814Y-87669334D01*
X122189999Y-87502797D01*
X122200500Y-87400009D01*
X122200499Y-86599992D01*
X122200498Y-86599983D01*
X122799500Y-86599983D01*
X122799500Y-87400001D01*
X122799501Y-87400019D01*
X122810000Y-87502796D01*
X122810001Y-87502799D01*
X122865185Y-87669331D01*
X122865187Y-87669336D01*
X122957289Y-87818657D01*
X123051304Y-87912672D01*
X123084789Y-87973995D01*
X123079805Y-88043687D01*
X123051305Y-88088034D01*
X122957682Y-88181657D01*
X122865643Y-88330875D01*
X122865641Y-88330880D01*
X122810494Y-88497302D01*
X122810493Y-88497309D01*
X122800000Y-88600013D01*
X122800000Y-88750000D01*
X125199999Y-88750000D01*
X125199999Y-88600028D01*
X125199998Y-88600013D01*
X125189505Y-88497302D01*
X125134358Y-88330880D01*
X125134356Y-88330875D01*
X125042315Y-88181654D01*
X124948695Y-88088034D01*
X124915210Y-88026711D01*
X124920194Y-87957019D01*
X124948691Y-87912676D01*
X125042712Y-87818656D01*
X125134814Y-87669334D01*
X125189999Y-87502797D01*
X125200500Y-87400009D01*
X125200499Y-86599992D01*
X125200498Y-86599983D01*
X125799500Y-86599983D01*
X125799500Y-87400001D01*
X125799501Y-87400019D01*
X125810000Y-87502796D01*
X125810001Y-87502799D01*
X125865185Y-87669331D01*
X125865187Y-87669336D01*
X125957289Y-87818657D01*
X126051304Y-87912672D01*
X126084789Y-87973995D01*
X126079805Y-88043687D01*
X126051305Y-88088034D01*
X125957682Y-88181657D01*
X125865643Y-88330875D01*
X125865641Y-88330880D01*
X125810494Y-88497302D01*
X125810493Y-88497309D01*
X125800000Y-88600013D01*
X125800000Y-88750000D01*
X128199999Y-88750000D01*
X128199999Y-88600028D01*
X128199998Y-88600013D01*
X128189505Y-88497302D01*
X128134358Y-88330880D01*
X128134356Y-88330875D01*
X128042315Y-88181654D01*
X127948695Y-88088034D01*
X127915210Y-88026711D01*
X127920194Y-87957019D01*
X127948691Y-87912676D01*
X128042712Y-87818656D01*
X128134814Y-87669334D01*
X128189999Y-87502797D01*
X128200500Y-87400009D01*
X128200499Y-86599992D01*
X128200498Y-86599983D01*
X128799500Y-86599983D01*
X128799500Y-87400001D01*
X128799501Y-87400019D01*
X128810000Y-87502796D01*
X128810001Y-87502799D01*
X128865185Y-87669331D01*
X128865187Y-87669336D01*
X128957289Y-87818657D01*
X129051304Y-87912672D01*
X129084789Y-87973995D01*
X129079805Y-88043687D01*
X129051305Y-88088034D01*
X128957682Y-88181657D01*
X128865643Y-88330875D01*
X128865641Y-88330880D01*
X128810494Y-88497302D01*
X128810493Y-88497309D01*
X128800000Y-88600013D01*
X128800000Y-88750000D01*
X131199999Y-88750000D01*
X131199999Y-88600028D01*
X131199998Y-88600013D01*
X131189505Y-88497302D01*
X131134358Y-88330880D01*
X131134356Y-88330875D01*
X131042315Y-88181654D01*
X130948695Y-88088034D01*
X130915210Y-88026711D01*
X130920194Y-87957019D01*
X130948691Y-87912676D01*
X131042712Y-87818656D01*
X131134814Y-87669334D01*
X131189999Y-87502797D01*
X131200500Y-87400009D01*
X131200499Y-86599992D01*
X131200498Y-86599983D01*
X131799500Y-86599983D01*
X131799500Y-87400001D01*
X131799501Y-87400019D01*
X131810000Y-87502796D01*
X131810001Y-87502799D01*
X131865185Y-87669331D01*
X131865187Y-87669336D01*
X131957289Y-87818657D01*
X132051304Y-87912672D01*
X132084789Y-87973995D01*
X132079805Y-88043687D01*
X132051305Y-88088034D01*
X131957682Y-88181657D01*
X131865643Y-88330875D01*
X131865641Y-88330880D01*
X131810494Y-88497302D01*
X131810493Y-88497309D01*
X131800000Y-88600013D01*
X131800000Y-88750000D01*
X134199999Y-88750000D01*
X134199999Y-88600028D01*
X134199998Y-88600013D01*
X134189505Y-88497302D01*
X134134358Y-88330880D01*
X134134356Y-88330875D01*
X134042315Y-88181654D01*
X133948695Y-88088034D01*
X133915210Y-88026711D01*
X133920194Y-87957019D01*
X133948691Y-87912676D01*
X134042712Y-87818656D01*
X134134814Y-87669334D01*
X134189999Y-87502797D01*
X134200500Y-87400009D01*
X134200499Y-86599992D01*
X134194117Y-86537513D01*
X146765000Y-86537513D01*
X146765000Y-86675000D01*
X147740000Y-86675000D01*
X148240000Y-86675000D01*
X150250000Y-86675000D01*
X150750000Y-86675000D01*
X151724999Y-86675000D01*
X151724999Y-86537528D01*
X151724998Y-86537513D01*
X151714505Y-86434802D01*
X151659358Y-86268380D01*
X151659356Y-86268375D01*
X151567315Y-86119154D01*
X151443345Y-85995184D01*
X151294124Y-85903143D01*
X151294119Y-85903141D01*
X151127697Y-85847994D01*
X151127690Y-85847993D01*
X151024986Y-85837500D01*
X150750000Y-85837500D01*
X150750000Y-86675000D01*
X150250000Y-86675000D01*
X150250000Y-85837500D01*
X149975029Y-85837500D01*
X149975012Y-85837501D01*
X149872302Y-85847994D01*
X149705880Y-85903141D01*
X149705875Y-85903143D01*
X149556654Y-85995184D01*
X149432684Y-86119154D01*
X149350539Y-86252333D01*
X149298591Y-86299057D01*
X149229628Y-86310280D01*
X149165546Y-86282436D01*
X149139461Y-86252333D01*
X149057315Y-86119154D01*
X148933345Y-85995184D01*
X148784124Y-85903143D01*
X148784119Y-85903141D01*
X148617697Y-85847994D01*
X148617690Y-85847993D01*
X148514986Y-85837500D01*
X148240000Y-85837500D01*
X148240000Y-86675000D01*
X147740000Y-86675000D01*
X147740000Y-85837500D01*
X147465029Y-85837500D01*
X147465012Y-85837501D01*
X147362302Y-85847994D01*
X147195880Y-85903141D01*
X147195875Y-85903143D01*
X147046654Y-85995184D01*
X146922684Y-86119154D01*
X146830643Y-86268375D01*
X146830641Y-86268380D01*
X146775494Y-86434802D01*
X146775493Y-86434809D01*
X146765000Y-86537513D01*
X134194117Y-86537513D01*
X134189999Y-86497203D01*
X134134814Y-86330666D01*
X134042712Y-86181344D01*
X133918656Y-86057288D01*
X133769334Y-85965186D01*
X133710493Y-85945688D01*
X133653051Y-85905916D01*
X133626228Y-85841400D01*
X133625500Y-85827983D01*
X133625500Y-85542350D01*
X133645185Y-85475311D01*
X133646398Y-85473459D01*
X133682027Y-85420136D01*
X133709394Y-85379179D01*
X133720048Y-85353459D01*
X133769735Y-85233501D01*
X133769737Y-85233497D01*
X133800500Y-85078842D01*
X133800500Y-84921158D01*
X133800500Y-84921155D01*
X133800499Y-84921153D01*
X133776630Y-84801158D01*
X133769737Y-84766503D01*
X133720030Y-84646498D01*
X133709397Y-84620827D01*
X133709390Y-84620814D01*
X133621789Y-84489711D01*
X133621786Y-84489707D01*
X133510292Y-84378213D01*
X133510288Y-84378210D01*
X133379185Y-84290609D01*
X133379172Y-84290602D01*
X133233501Y-84230264D01*
X133233489Y-84230261D01*
X133078845Y-84199500D01*
X133078842Y-84199500D01*
X132921158Y-84199500D01*
X132921155Y-84199500D01*
X132766510Y-84230261D01*
X132766498Y-84230264D01*
X132620827Y-84290602D01*
X132620814Y-84290609D01*
X132489711Y-84378210D01*
X132489707Y-84378213D01*
X132378213Y-84489707D01*
X132378210Y-84489711D01*
X132290609Y-84620814D01*
X132290602Y-84620827D01*
X132230264Y-84766498D01*
X132230261Y-84766510D01*
X132199500Y-84921153D01*
X132199500Y-85078846D01*
X132230261Y-85233489D01*
X132230264Y-85233501D01*
X132290602Y-85379172D01*
X132290609Y-85379184D01*
X132353602Y-85473459D01*
X132374480Y-85540136D01*
X132374500Y-85542350D01*
X132374500Y-85827983D01*
X132354815Y-85895022D01*
X132302011Y-85940777D01*
X132289510Y-85945686D01*
X132254501Y-85957288D01*
X132230666Y-85965186D01*
X132230663Y-85965187D01*
X132081342Y-86057289D01*
X131957289Y-86181342D01*
X131865187Y-86330663D01*
X131865186Y-86330666D01*
X131810001Y-86497203D01*
X131810001Y-86497204D01*
X131810000Y-86497204D01*
X131799500Y-86599983D01*
X131200498Y-86599983D01*
X131189999Y-86497203D01*
X131134814Y-86330666D01*
X131042712Y-86181344D01*
X130918656Y-86057288D01*
X130769334Y-85965186D01*
X130710493Y-85945688D01*
X130653051Y-85905916D01*
X130626228Y-85841400D01*
X130625500Y-85827983D01*
X130625500Y-85542350D01*
X130645185Y-85475311D01*
X130646398Y-85473459D01*
X130682027Y-85420136D01*
X130709394Y-85379179D01*
X130720048Y-85353459D01*
X130769735Y-85233501D01*
X130769737Y-85233497D01*
X130800500Y-85078842D01*
X130800500Y-84921158D01*
X130800500Y-84921155D01*
X130800499Y-84921153D01*
X130776630Y-84801158D01*
X130769737Y-84766503D01*
X130720030Y-84646498D01*
X130709397Y-84620827D01*
X130709390Y-84620814D01*
X130621789Y-84489711D01*
X130621786Y-84489707D01*
X130510292Y-84378213D01*
X130510288Y-84378210D01*
X130379185Y-84290609D01*
X130379172Y-84290602D01*
X130233501Y-84230264D01*
X130233489Y-84230261D01*
X130078845Y-84199500D01*
X130078842Y-84199500D01*
X129921158Y-84199500D01*
X129921155Y-84199500D01*
X129766510Y-84230261D01*
X129766498Y-84230264D01*
X129620827Y-84290602D01*
X129620814Y-84290609D01*
X129489711Y-84378210D01*
X129489707Y-84378213D01*
X129378213Y-84489707D01*
X129378210Y-84489711D01*
X129290609Y-84620814D01*
X129290602Y-84620827D01*
X129230264Y-84766498D01*
X129230261Y-84766510D01*
X129199500Y-84921153D01*
X129199500Y-85078846D01*
X129230261Y-85233489D01*
X129230264Y-85233501D01*
X129290602Y-85379172D01*
X129290609Y-85379184D01*
X129353602Y-85473459D01*
X129374480Y-85540136D01*
X129374500Y-85542350D01*
X129374500Y-85827983D01*
X129354815Y-85895022D01*
X129302011Y-85940777D01*
X129289510Y-85945686D01*
X129254501Y-85957288D01*
X129230666Y-85965186D01*
X129230663Y-85965187D01*
X129081342Y-86057289D01*
X128957289Y-86181342D01*
X128865187Y-86330663D01*
X128865186Y-86330666D01*
X128810001Y-86497203D01*
X128810001Y-86497204D01*
X128810000Y-86497204D01*
X128799500Y-86599983D01*
X128200498Y-86599983D01*
X128189999Y-86497203D01*
X128134814Y-86330666D01*
X128042712Y-86181344D01*
X127918656Y-86057288D01*
X127769334Y-85965186D01*
X127710493Y-85945688D01*
X127653051Y-85905916D01*
X127626228Y-85841400D01*
X127625500Y-85827983D01*
X127625500Y-85542350D01*
X127645185Y-85475311D01*
X127646398Y-85473459D01*
X127682027Y-85420136D01*
X127709394Y-85379179D01*
X127720048Y-85353459D01*
X127769735Y-85233501D01*
X127769737Y-85233497D01*
X127800500Y-85078842D01*
X127800500Y-84921158D01*
X127800500Y-84921155D01*
X127800499Y-84921153D01*
X127776630Y-84801158D01*
X127769737Y-84766503D01*
X127720030Y-84646498D01*
X127709397Y-84620827D01*
X127709390Y-84620814D01*
X127621789Y-84489711D01*
X127621786Y-84489707D01*
X127510292Y-84378213D01*
X127510288Y-84378210D01*
X127379185Y-84290609D01*
X127379172Y-84290602D01*
X127233501Y-84230264D01*
X127233489Y-84230261D01*
X127078845Y-84199500D01*
X127078842Y-84199500D01*
X126921158Y-84199500D01*
X126921155Y-84199500D01*
X126766510Y-84230261D01*
X126766498Y-84230264D01*
X126620827Y-84290602D01*
X126620814Y-84290609D01*
X126489711Y-84378210D01*
X126489707Y-84378213D01*
X126378213Y-84489707D01*
X126378210Y-84489711D01*
X126290609Y-84620814D01*
X126290602Y-84620827D01*
X126230264Y-84766498D01*
X126230261Y-84766510D01*
X126199500Y-84921153D01*
X126199500Y-85078846D01*
X126230261Y-85233489D01*
X126230264Y-85233501D01*
X126290602Y-85379172D01*
X126290609Y-85379184D01*
X126353602Y-85473459D01*
X126374480Y-85540136D01*
X126374500Y-85542350D01*
X126374500Y-85827983D01*
X126354815Y-85895022D01*
X126302011Y-85940777D01*
X126289510Y-85945686D01*
X126254501Y-85957288D01*
X126230666Y-85965186D01*
X126230663Y-85965187D01*
X126081342Y-86057289D01*
X125957289Y-86181342D01*
X125865187Y-86330663D01*
X125865186Y-86330666D01*
X125810001Y-86497203D01*
X125810001Y-86497204D01*
X125810000Y-86497204D01*
X125799500Y-86599983D01*
X125200498Y-86599983D01*
X125189999Y-86497203D01*
X125134814Y-86330666D01*
X125042712Y-86181344D01*
X124918656Y-86057288D01*
X124769334Y-85965186D01*
X124602797Y-85910001D01*
X124602795Y-85910000D01*
X124596371Y-85907872D01*
X124596819Y-85906519D01*
X124542105Y-85876874D01*
X124508420Y-85815661D01*
X124505500Y-85788908D01*
X124505500Y-85422350D01*
X124525185Y-85355311D01*
X124526398Y-85353459D01*
X124526809Y-85352843D01*
X124589394Y-85259179D01*
X124649737Y-85113497D01*
X124680500Y-84958842D01*
X124680500Y-84801158D01*
X124680500Y-84801155D01*
X124680499Y-84801153D01*
X124674250Y-84769737D01*
X124649737Y-84646503D01*
X124635303Y-84611655D01*
X124589397Y-84500827D01*
X124589390Y-84500814D01*
X124501789Y-84369711D01*
X124501786Y-84369707D01*
X124390292Y-84258213D01*
X124390288Y-84258210D01*
X124259185Y-84170609D01*
X124259172Y-84170602D01*
X124113501Y-84110264D01*
X124113489Y-84110261D01*
X123958845Y-84079500D01*
X123958842Y-84079500D01*
X123801158Y-84079500D01*
X123801155Y-84079500D01*
X123646510Y-84110261D01*
X123646498Y-84110264D01*
X123500827Y-84170602D01*
X123500814Y-84170609D01*
X123369711Y-84258210D01*
X123369707Y-84258213D01*
X123258213Y-84369707D01*
X123258210Y-84369711D01*
X123170609Y-84500814D01*
X123170602Y-84500827D01*
X123110264Y-84646498D01*
X123110261Y-84646510D01*
X123079500Y-84801153D01*
X123079500Y-84958846D01*
X123110261Y-85113489D01*
X123110264Y-85113501D01*
X123170602Y-85259172D01*
X123170609Y-85259184D01*
X123233602Y-85353459D01*
X123254480Y-85420136D01*
X123254500Y-85422350D01*
X123254500Y-85881278D01*
X123234815Y-85948317D01*
X123195598Y-85986815D01*
X123123728Y-86031145D01*
X123081342Y-86057289D01*
X122957289Y-86181342D01*
X122865187Y-86330663D01*
X122865186Y-86330666D01*
X122810001Y-86497203D01*
X122810001Y-86497204D01*
X122810000Y-86497204D01*
X122799500Y-86599983D01*
X122200498Y-86599983D01*
X122189999Y-86497203D01*
X122134814Y-86330666D01*
X122042712Y-86181344D01*
X121918656Y-86057288D01*
X121769334Y-85965186D01*
X121710493Y-85945688D01*
X121653051Y-85905916D01*
X121626228Y-85841400D01*
X121625500Y-85827983D01*
X121625500Y-85542350D01*
X121645185Y-85475311D01*
X121646398Y-85473459D01*
X121682027Y-85420136D01*
X121709394Y-85379179D01*
X121720048Y-85353459D01*
X121769735Y-85233501D01*
X121769737Y-85233497D01*
X121800500Y-85078842D01*
X121800500Y-84921158D01*
X121800500Y-84921155D01*
X121800499Y-84921153D01*
X121776630Y-84801158D01*
X121769737Y-84766503D01*
X121720030Y-84646498D01*
X121709397Y-84620827D01*
X121709390Y-84620814D01*
X121621789Y-84489711D01*
X121621786Y-84489707D01*
X121510292Y-84378213D01*
X121510288Y-84378210D01*
X121379185Y-84290609D01*
X121379172Y-84290602D01*
X121233501Y-84230264D01*
X121233489Y-84230261D01*
X121078845Y-84199500D01*
X121078842Y-84199500D01*
X120921158Y-84199500D01*
X120921155Y-84199500D01*
X120766510Y-84230261D01*
X120766498Y-84230264D01*
X120620827Y-84290602D01*
X120620814Y-84290609D01*
X120489711Y-84378210D01*
X120489707Y-84378213D01*
X120378213Y-84489707D01*
X120378210Y-84489711D01*
X120290609Y-84620814D01*
X120290602Y-84620827D01*
X120230264Y-84766498D01*
X120230261Y-84766510D01*
X120199500Y-84921153D01*
X120199500Y-85078846D01*
X120230261Y-85233489D01*
X120230264Y-85233501D01*
X120290602Y-85379172D01*
X120290609Y-85379184D01*
X120353602Y-85473459D01*
X120374480Y-85540136D01*
X120374500Y-85542350D01*
X120374500Y-85827983D01*
X120354815Y-85895022D01*
X120302011Y-85940777D01*
X120289510Y-85945686D01*
X120254501Y-85957288D01*
X120230666Y-85965186D01*
X120230663Y-85965187D01*
X120081342Y-86057289D01*
X119957289Y-86181342D01*
X119865187Y-86330663D01*
X119865186Y-86330666D01*
X119810001Y-86497203D01*
X119810001Y-86497204D01*
X119810000Y-86497204D01*
X119799500Y-86599983D01*
X119200498Y-86599983D01*
X119189999Y-86497203D01*
X119134814Y-86330666D01*
X119042712Y-86181344D01*
X118918656Y-86057288D01*
X118769334Y-85965186D01*
X118710493Y-85945688D01*
X118653051Y-85905916D01*
X118626228Y-85841400D01*
X118625500Y-85827983D01*
X118625500Y-85542350D01*
X118645185Y-85475311D01*
X118646398Y-85473459D01*
X118682027Y-85420136D01*
X118709394Y-85379179D01*
X118720048Y-85353459D01*
X118769735Y-85233501D01*
X118769737Y-85233497D01*
X118800500Y-85078842D01*
X118800500Y-84921158D01*
X118800500Y-84921155D01*
X118800499Y-84921153D01*
X118776630Y-84801158D01*
X118769737Y-84766503D01*
X118720030Y-84646498D01*
X118709397Y-84620827D01*
X118709390Y-84620814D01*
X118621789Y-84489711D01*
X118621786Y-84489707D01*
X118510292Y-84378213D01*
X118510288Y-84378210D01*
X118379185Y-84290609D01*
X118379172Y-84290602D01*
X118233501Y-84230264D01*
X118233489Y-84230261D01*
X118078845Y-84199500D01*
X118078842Y-84199500D01*
X117921158Y-84199500D01*
X117921155Y-84199500D01*
X117766510Y-84230261D01*
X117766498Y-84230264D01*
X117620827Y-84290602D01*
X117620814Y-84290609D01*
X117489711Y-84378210D01*
X117489707Y-84378213D01*
X117378213Y-84489707D01*
X117378210Y-84489711D01*
X117290609Y-84620814D01*
X117290602Y-84620827D01*
X117230264Y-84766498D01*
X117230261Y-84766510D01*
X117199500Y-84921153D01*
X117199500Y-85078846D01*
X117230261Y-85233489D01*
X117230264Y-85233501D01*
X117290602Y-85379172D01*
X117290609Y-85379184D01*
X117353602Y-85473459D01*
X117374480Y-85540136D01*
X117374500Y-85542350D01*
X117374500Y-85827983D01*
X117354815Y-85895022D01*
X117302011Y-85940777D01*
X117289510Y-85945686D01*
X117254501Y-85957288D01*
X117230666Y-85965186D01*
X117230663Y-85965187D01*
X117081342Y-86057289D01*
X116957289Y-86181342D01*
X116865187Y-86330663D01*
X116865186Y-86330666D01*
X116810001Y-86497203D01*
X116810001Y-86497204D01*
X116810000Y-86497204D01*
X116799500Y-86599983D01*
X116200498Y-86599983D01*
X116189999Y-86497203D01*
X116134814Y-86330666D01*
X116042712Y-86181344D01*
X115918656Y-86057288D01*
X115769334Y-85965186D01*
X115710493Y-85945688D01*
X115653051Y-85905916D01*
X115626228Y-85841400D01*
X115625500Y-85827983D01*
X115625500Y-85542350D01*
X115645185Y-85475311D01*
X115646398Y-85473459D01*
X115682027Y-85420136D01*
X115709394Y-85379179D01*
X115720048Y-85353459D01*
X115769735Y-85233501D01*
X115769737Y-85233497D01*
X115800500Y-85078842D01*
X115800500Y-84921158D01*
X115800500Y-84921155D01*
X115800499Y-84921153D01*
X115776630Y-84801158D01*
X115769737Y-84766503D01*
X115720030Y-84646498D01*
X115709397Y-84620827D01*
X115709390Y-84620814D01*
X115621789Y-84489711D01*
X115621786Y-84489707D01*
X115510292Y-84378213D01*
X115510288Y-84378210D01*
X115379185Y-84290609D01*
X115379172Y-84290602D01*
X115233501Y-84230264D01*
X115233489Y-84230261D01*
X115078845Y-84199500D01*
X115078842Y-84199500D01*
X114921158Y-84199500D01*
X114921155Y-84199500D01*
X114766510Y-84230261D01*
X114766498Y-84230264D01*
X114620827Y-84290602D01*
X114620814Y-84290609D01*
X114489711Y-84378210D01*
X114489707Y-84378213D01*
X114378213Y-84489707D01*
X114378210Y-84489711D01*
X114290609Y-84620814D01*
X114290602Y-84620827D01*
X114230264Y-84766498D01*
X114230261Y-84766510D01*
X114199500Y-84921153D01*
X114199500Y-85078846D01*
X114230261Y-85233489D01*
X114230264Y-85233501D01*
X114290602Y-85379172D01*
X114290609Y-85379184D01*
X114353602Y-85473459D01*
X114374480Y-85540136D01*
X114374500Y-85542350D01*
X114374500Y-85827983D01*
X114354815Y-85895022D01*
X114302011Y-85940777D01*
X114289510Y-85945686D01*
X114254501Y-85957288D01*
X114230666Y-85965186D01*
X114230663Y-85965187D01*
X114081342Y-86057289D01*
X113957289Y-86181342D01*
X113865187Y-86330663D01*
X113865186Y-86330666D01*
X113810001Y-86497203D01*
X113810001Y-86497204D01*
X113810000Y-86497204D01*
X113799500Y-86599983D01*
X113200498Y-86599983D01*
X113189999Y-86497203D01*
X113134814Y-86330666D01*
X113042712Y-86181344D01*
X112918656Y-86057288D01*
X112769334Y-85965186D01*
X112710493Y-85945688D01*
X112653051Y-85905916D01*
X112626228Y-85841400D01*
X112625500Y-85827983D01*
X112625500Y-85542350D01*
X112645185Y-85475311D01*
X112646398Y-85473459D01*
X112682027Y-85420136D01*
X112709394Y-85379179D01*
X112720048Y-85353459D01*
X112769735Y-85233501D01*
X112769737Y-85233497D01*
X112800500Y-85078842D01*
X112800500Y-84921158D01*
X112800500Y-84921155D01*
X112800499Y-84921153D01*
X112776630Y-84801158D01*
X112769737Y-84766503D01*
X112720030Y-84646498D01*
X112709397Y-84620827D01*
X112709390Y-84620814D01*
X112621789Y-84489711D01*
X112621786Y-84489707D01*
X112510292Y-84378213D01*
X112510288Y-84378210D01*
X112379185Y-84290609D01*
X112379172Y-84290602D01*
X112233501Y-84230264D01*
X112233489Y-84230261D01*
X112078845Y-84199500D01*
X112078842Y-84199500D01*
X111921158Y-84199500D01*
X111921155Y-84199500D01*
X111766510Y-84230261D01*
X111766498Y-84230264D01*
X111620827Y-84290602D01*
X111620814Y-84290609D01*
X111489711Y-84378210D01*
X111489707Y-84378213D01*
X111378213Y-84489707D01*
X111378210Y-84489711D01*
X111290609Y-84620814D01*
X111290602Y-84620827D01*
X111230264Y-84766498D01*
X111230261Y-84766510D01*
X111199500Y-84921153D01*
X111199500Y-85078846D01*
X111230261Y-85233489D01*
X111230264Y-85233501D01*
X111290602Y-85379172D01*
X111290609Y-85379184D01*
X111353602Y-85473459D01*
X111374480Y-85540136D01*
X111374500Y-85542350D01*
X111374500Y-85827983D01*
X111354815Y-85895022D01*
X111302011Y-85940777D01*
X111289510Y-85945686D01*
X111254501Y-85957288D01*
X111230666Y-85965186D01*
X111230663Y-85965187D01*
X111081342Y-86057289D01*
X110957289Y-86181342D01*
X110865187Y-86330663D01*
X110865186Y-86330666D01*
X110810001Y-86497203D01*
X110810001Y-86497204D01*
X110810000Y-86497204D01*
X110799500Y-86599983D01*
X101000500Y-86599983D01*
X101000500Y-83112483D01*
X141274500Y-83112483D01*
X141274500Y-83887501D01*
X141274501Y-83887519D01*
X141285000Y-83990296D01*
X141285001Y-83990299D01*
X141340185Y-84156831D01*
X141340187Y-84156836D01*
X141348682Y-84170609D01*
X141432288Y-84306156D01*
X141556344Y-84430212D01*
X141705666Y-84522314D01*
X141872203Y-84577499D01*
X141974991Y-84588000D01*
X143025008Y-84587999D01*
X143025016Y-84587998D01*
X143025019Y-84587998D01*
X143081302Y-84582248D01*
X143127797Y-84577499D01*
X143294334Y-84522314D01*
X143443656Y-84430212D01*
X143567712Y-84306156D01*
X143611970Y-84234402D01*
X143619556Y-84227578D01*
X143623795Y-84218297D01*
X143645094Y-84204608D01*
X143663917Y-84187679D01*
X143675552Y-84185034D01*
X143682573Y-84180523D01*
X143717508Y-84175500D01*
X143782492Y-84175500D01*
X143849531Y-84195185D01*
X143888029Y-84234401D01*
X143932288Y-84306156D01*
X144056344Y-84430212D01*
X144205666Y-84522314D01*
X144205667Y-84522314D01*
X144211813Y-84526105D01*
X144210800Y-84527746D01*
X144255905Y-84567454D01*
X144275062Y-84634645D01*
X144265627Y-84681124D01*
X144230264Y-84766498D01*
X144230261Y-84766510D01*
X144199500Y-84921153D01*
X144199500Y-85078846D01*
X144230261Y-85233489D01*
X144230264Y-85233501D01*
X144290602Y-85379172D01*
X144290609Y-85379185D01*
X144378210Y-85510288D01*
X144378213Y-85510292D01*
X144489707Y-85621786D01*
X144489711Y-85621789D01*
X144620814Y-85709390D01*
X144620827Y-85709397D01*
X144766498Y-85769735D01*
X144766503Y-85769737D01*
X144921153Y-85800499D01*
X144921156Y-85800500D01*
X144921158Y-85800500D01*
X145078844Y-85800500D01*
X145078845Y-85800499D01*
X145233497Y-85769737D01*
X145379179Y-85709394D01*
X145510289Y-85621789D01*
X145621789Y-85510289D01*
X145709394Y-85379179D01*
X145720048Y-85353459D01*
X145769735Y-85233501D01*
X145769737Y-85233497D01*
X145800500Y-85078842D01*
X145800500Y-84921158D01*
X145800500Y-84921155D01*
X145800499Y-84921153D01*
X145776630Y-84801158D01*
X145769737Y-84766503D01*
X145734371Y-84681123D01*
X145726903Y-84611655D01*
X145758178Y-84549176D01*
X145788721Y-84526971D01*
X145788187Y-84526105D01*
X145794332Y-84522314D01*
X145794334Y-84522314D01*
X145943656Y-84430212D01*
X146067712Y-84306156D01*
X146159814Y-84156834D01*
X146214999Y-83990297D01*
X146225500Y-83887509D01*
X146225499Y-83112492D01*
X146214999Y-83009703D01*
X146159814Y-82843166D01*
X146067712Y-82693844D01*
X145943656Y-82569788D01*
X145940342Y-82567743D01*
X145938546Y-82565748D01*
X145937989Y-82565307D01*
X145938064Y-82565211D01*
X145893618Y-82515797D01*
X145882397Y-82446834D01*
X145910240Y-82382752D01*
X145940348Y-82356665D01*
X145943342Y-82354818D01*
X146067315Y-82230845D01*
X146159356Y-82081624D01*
X146159357Y-82081620D01*
X146168355Y-82054467D01*
X146208127Y-81997021D01*
X146272642Y-81970196D01*
X146341418Y-81982510D01*
X146372548Y-82007336D01*
X146373903Y-82005982D01*
X146489707Y-82121786D01*
X146489711Y-82121789D01*
X146620814Y-82209390D01*
X146620827Y-82209397D01*
X146766498Y-82269735D01*
X146766503Y-82269737D01*
X146921153Y-82300499D01*
X146921156Y-82300500D01*
X146921158Y-82300500D01*
X146944548Y-82300500D01*
X147011587Y-82320185D01*
X147032229Y-82336819D01*
X147964205Y-83268795D01*
X147997690Y-83330118D01*
X147998141Y-83332285D01*
X148020261Y-83443489D01*
X148020264Y-83443501D01*
X148080602Y-83589172D01*
X148080609Y-83589185D01*
X148168210Y-83720288D01*
X148168213Y-83720292D01*
X148279707Y-83831786D01*
X148279711Y-83831789D01*
X148410814Y-83919390D01*
X148410827Y-83919397D01*
X148556498Y-83979735D01*
X148556503Y-83979737D01*
X148711153Y-84010499D01*
X148711156Y-84010500D01*
X148711158Y-84010500D01*
X148868844Y-84010500D01*
X148868845Y-84010499D01*
X149023497Y-83979737D01*
X149136166Y-83933067D01*
X149169172Y-83919397D01*
X149169172Y-83919396D01*
X149169179Y-83919394D01*
X149300289Y-83831789D01*
X149411789Y-83720289D01*
X149499394Y-83589179D01*
X149559737Y-83443497D01*
X149590500Y-83288842D01*
X149590500Y-83131158D01*
X149590500Y-83131155D01*
X149590499Y-83131153D01*
X149559738Y-82976510D01*
X149559737Y-82976503D01*
X149545673Y-82942549D01*
X149499397Y-82830827D01*
X149499390Y-82830814D01*
X149411789Y-82699711D01*
X149411786Y-82699707D01*
X149300292Y-82588213D01*
X149300288Y-82588210D01*
X149169185Y-82500609D01*
X149169172Y-82500602D01*
X149023501Y-82440264D01*
X149023489Y-82440261D01*
X148912285Y-82418141D01*
X148850374Y-82385756D01*
X148848795Y-82384205D01*
X147805930Y-81341340D01*
X147772445Y-81280017D01*
X147772005Y-81277909D01*
X147769737Y-81266503D01*
X147731836Y-81175000D01*
X147709397Y-81120827D01*
X147709390Y-81120814D01*
X147621789Y-80989711D01*
X147621786Y-80989707D01*
X147510292Y-80878213D01*
X147510288Y-80878210D01*
X147379185Y-80790609D01*
X147379172Y-80790602D01*
X147233501Y-80730264D01*
X147233489Y-80730261D01*
X147078845Y-80699500D01*
X147078842Y-80699500D01*
X146921158Y-80699500D01*
X146921155Y-80699500D01*
X146766510Y-80730261D01*
X146766498Y-80730264D01*
X146620827Y-80790602D01*
X146620814Y-80790609D01*
X146489711Y-80878210D01*
X146411069Y-80956852D01*
X146349745Y-80990336D01*
X146280054Y-80985352D01*
X146224120Y-80943480D01*
X146205682Y-80908174D01*
X146159358Y-80768380D01*
X146159356Y-80768375D01*
X146067315Y-80619154D01*
X145943345Y-80495184D01*
X145794124Y-80403143D01*
X145794119Y-80403141D01*
X145627697Y-80347994D01*
X145627690Y-80347993D01*
X145524986Y-80337500D01*
X145250000Y-80337500D01*
X145250000Y-81301000D01*
X145230315Y-81368039D01*
X145177511Y-81413794D01*
X145126000Y-81425000D01*
X145000000Y-81425000D01*
X145000000Y-81551000D01*
X144980315Y-81618039D01*
X144927511Y-81663794D01*
X144876000Y-81675000D01*
X141275001Y-81675000D01*
X141275001Y-81812486D01*
X141285494Y-81915197D01*
X141340641Y-82081619D01*
X141340643Y-82081624D01*
X141432684Y-82230845D01*
X141556655Y-82354816D01*
X141556659Y-82354819D01*
X141559656Y-82356668D01*
X141561279Y-82358472D01*
X141562323Y-82359298D01*
X141562181Y-82359476D01*
X141606381Y-82408616D01*
X141617602Y-82477579D01*
X141589759Y-82541661D01*
X141559661Y-82567741D01*
X141556349Y-82569783D01*
X141556343Y-82569788D01*
X141432289Y-82693842D01*
X141340187Y-82843163D01*
X141340185Y-82843168D01*
X141337769Y-82850460D01*
X141285001Y-83009703D01*
X141285001Y-83009704D01*
X141285000Y-83009704D01*
X141274500Y-83112483D01*
X101000500Y-83112483D01*
X101000500Y-78702135D01*
X102749500Y-78702135D01*
X102749500Y-81297870D01*
X102749501Y-81297876D01*
X102755908Y-81357483D01*
X102806202Y-81492328D01*
X102806206Y-81492335D01*
X102892452Y-81607544D01*
X102892455Y-81607547D01*
X103007664Y-81693793D01*
X103007671Y-81693797D01*
X103142517Y-81744091D01*
X103142516Y-81744091D01*
X103149444Y-81744835D01*
X103202127Y-81750500D01*
X105797872Y-81750499D01*
X105857483Y-81744091D01*
X105992331Y-81693796D01*
X106107546Y-81607546D01*
X106193796Y-81492331D01*
X106244091Y-81357483D01*
X106250500Y-81297873D01*
X106250500Y-81037513D01*
X141275000Y-81037513D01*
X141275000Y-81175000D01*
X142250000Y-81175000D01*
X142750000Y-81175000D01*
X144750000Y-81175000D01*
X144750000Y-80337500D01*
X144475029Y-80337500D01*
X144475012Y-80337501D01*
X144372302Y-80347994D01*
X144205880Y-80403141D01*
X144205875Y-80403143D01*
X144056654Y-80495184D01*
X143932683Y-80619155D01*
X143932680Y-80619159D01*
X143855538Y-80744226D01*
X143803590Y-80790951D01*
X143734628Y-80802172D01*
X143670546Y-80774329D01*
X143644462Y-80744226D01*
X143567319Y-80619159D01*
X143567316Y-80619155D01*
X143443345Y-80495184D01*
X143294124Y-80403143D01*
X143294119Y-80403141D01*
X143127697Y-80347994D01*
X143127690Y-80347993D01*
X143024986Y-80337500D01*
X142750000Y-80337500D01*
X142750000Y-81175000D01*
X142250000Y-81175000D01*
X142250000Y-80337500D01*
X141975029Y-80337500D01*
X141975012Y-80337501D01*
X141872302Y-80347994D01*
X141705880Y-80403141D01*
X141705875Y-80403143D01*
X141556654Y-80495184D01*
X141432684Y-80619154D01*
X141340643Y-80768375D01*
X141340641Y-80768380D01*
X141285494Y-80934802D01*
X141285493Y-80934809D01*
X141275000Y-81037513D01*
X106250500Y-81037513D01*
X106250499Y-78702128D01*
X106244091Y-78642517D01*
X106228704Y-78601263D01*
X106193797Y-78507671D01*
X106193793Y-78507664D01*
X106107547Y-78392455D01*
X106107544Y-78392452D01*
X105992335Y-78306206D01*
X105992328Y-78306202D01*
X105857482Y-78255908D01*
X105857483Y-78255908D01*
X105797883Y-78249501D01*
X105797881Y-78249500D01*
X105797873Y-78249500D01*
X105797864Y-78249500D01*
X103202129Y-78249500D01*
X103202123Y-78249501D01*
X103142516Y-78255908D01*
X103007671Y-78306202D01*
X103007664Y-78306206D01*
X102892455Y-78392452D01*
X102892452Y-78392455D01*
X102806206Y-78507664D01*
X102806202Y-78507671D01*
X102755908Y-78642517D01*
X102749501Y-78702116D01*
X102749501Y-78702123D01*
X102749500Y-78702135D01*
X101000500Y-78702135D01*
X101000500Y-76899986D01*
X112300001Y-76899986D01*
X112310494Y-77002697D01*
X112365641Y-77169119D01*
X112365643Y-77169124D01*
X112457684Y-77318345D01*
X112581654Y-77442315D01*
X112730875Y-77534356D01*
X112730880Y-77534358D01*
X112897302Y-77589505D01*
X112897309Y-77589506D01*
X113000019Y-77599999D01*
X113249999Y-77599999D01*
X113750000Y-77599999D01*
X113999972Y-77599999D01*
X113999986Y-77599998D01*
X114102697Y-77589505D01*
X114269119Y-77534358D01*
X114269124Y-77534356D01*
X114418345Y-77442315D01*
X114542315Y-77318345D01*
X114634356Y-77169124D01*
X114637408Y-77162579D01*
X114640255Y-77163906D01*
X114671914Y-77118027D01*
X114736387Y-77091102D01*
X114805182Y-77103309D01*
X114856457Y-77150771D01*
X114861997Y-77162856D01*
X114862592Y-77162579D01*
X114865643Y-77169124D01*
X114957684Y-77318345D01*
X115081654Y-77442315D01*
X115230875Y-77534356D01*
X115230880Y-77534358D01*
X115397302Y-77589505D01*
X115397309Y-77589506D01*
X115500019Y-77599999D01*
X115749999Y-77599999D01*
X116250000Y-77599999D01*
X116499972Y-77599999D01*
X116499986Y-77599998D01*
X116602697Y-77589505D01*
X116769119Y-77534358D01*
X116769124Y-77534356D01*
X116918345Y-77442315D01*
X117042315Y-77318345D01*
X117134356Y-77169124D01*
X117134358Y-77169119D01*
X117189505Y-77002697D01*
X117189506Y-77002689D01*
X117197428Y-76925147D01*
X117197428Y-76925145D01*
X117445428Y-76925145D01*
X117453351Y-77002697D01*
X117508498Y-77169119D01*
X117508500Y-77169124D01*
X117600541Y-77318345D01*
X117724511Y-77442315D01*
X117873732Y-77534356D01*
X117873737Y-77534358D01*
X118040159Y-77589505D01*
X118040166Y-77589506D01*
X118142876Y-77599999D01*
X118392856Y-77599999D01*
X118892857Y-77599999D01*
X119142829Y-77599999D01*
X119142843Y-77599998D01*
X119245554Y-77589505D01*
X119411976Y-77534358D01*
X119411981Y-77534356D01*
X119561202Y-77442315D01*
X119685172Y-77318345D01*
X119777213Y-77169124D01*
X119777216Y-77169117D01*
X119810865Y-77067571D01*
X119850637Y-77010126D01*
X119915153Y-76983302D01*
X119983929Y-76995617D01*
X120035129Y-77043159D01*
X120046277Y-77067570D01*
X120079927Y-77169119D01*
X120079929Y-77169124D01*
X120171970Y-77318345D01*
X120295940Y-77442315D01*
X120445161Y-77534356D01*
X120445166Y-77534358D01*
X120611588Y-77589505D01*
X120611595Y-77589506D01*
X120714305Y-77599999D01*
X120964285Y-77599999D01*
X121464286Y-77599999D01*
X121714258Y-77599999D01*
X121714272Y-77599998D01*
X121816983Y-77589505D01*
X121983405Y-77534358D01*
X121983410Y-77534356D01*
X122132631Y-77442315D01*
X122256601Y-77318345D01*
X122348642Y-77169124D01*
X122348645Y-77169117D01*
X122382293Y-77067573D01*
X122422065Y-77010128D01*
X122486580Y-76983304D01*
X122555356Y-76995619D01*
X122606557Y-77043161D01*
X122617705Y-77067571D01*
X122651356Y-77169121D01*
X122651357Y-77169124D01*
X122743398Y-77318345D01*
X122867368Y-77442315D01*
X123016589Y-77534356D01*
X123016594Y-77534358D01*
X123183016Y-77589505D01*
X123183023Y-77589506D01*
X123285733Y-77599999D01*
X123535713Y-77599999D01*
X124035714Y-77599999D01*
X124285686Y-77599999D01*
X124285700Y-77599998D01*
X124388411Y-77589505D01*
X124554833Y-77534358D01*
X124554838Y-77534356D01*
X124704059Y-77442315D01*
X124828029Y-77318345D01*
X124920070Y-77169124D01*
X124920073Y-77169117D01*
X124953722Y-77067571D01*
X124993494Y-77010126D01*
X125058010Y-76983302D01*
X125126786Y-76995617D01*
X125177986Y-77043159D01*
X125189134Y-77067570D01*
X125222784Y-77169119D01*
X125222786Y-77169124D01*
X125314827Y-77318345D01*
X125438797Y-77442315D01*
X125588018Y-77534356D01*
X125588023Y-77534358D01*
X125754445Y-77589505D01*
X125754452Y-77589506D01*
X125857162Y-77599999D01*
X126107142Y-77599999D01*
X126607143Y-77599999D01*
X126857115Y-77599999D01*
X126857129Y-77599998D01*
X126959840Y-77589505D01*
X127126262Y-77534358D01*
X127126267Y-77534356D01*
X127275488Y-77442315D01*
X127399458Y-77318345D01*
X127491499Y-77169124D01*
X127491502Y-77169117D01*
X127525150Y-77067573D01*
X127564922Y-77010128D01*
X127629437Y-76983304D01*
X127698213Y-76995619D01*
X127749414Y-77043161D01*
X127760562Y-77067571D01*
X127794213Y-77169121D01*
X127794214Y-77169124D01*
X127886255Y-77318345D01*
X128010225Y-77442315D01*
X128159446Y-77534356D01*
X128159451Y-77534358D01*
X128325873Y-77589505D01*
X128325880Y-77589506D01*
X128428590Y-77599999D01*
X128678570Y-77599999D01*
X129178571Y-77599999D01*
X129428543Y-77599999D01*
X129428557Y-77599998D01*
X129531268Y-77589505D01*
X129697690Y-77534358D01*
X129697695Y-77534356D01*
X129846916Y-77442315D01*
X129970886Y-77318345D01*
X130062927Y-77169124D01*
X130062930Y-77169117D01*
X130096579Y-77067571D01*
X130136351Y-77010126D01*
X130200867Y-76983302D01*
X130269643Y-76995617D01*
X130320843Y-77043159D01*
X130331991Y-77067570D01*
X130365641Y-77169119D01*
X130365643Y-77169124D01*
X130457684Y-77318345D01*
X130581654Y-77442315D01*
X130730875Y-77534356D01*
X130730880Y-77534358D01*
X130897302Y-77589505D01*
X130897309Y-77589506D01*
X131000019Y-77599999D01*
X131249999Y-77599999D01*
X131750000Y-77599999D01*
X131999972Y-77599999D01*
X131999986Y-77599998D01*
X132102697Y-77589505D01*
X132269119Y-77534358D01*
X132269124Y-77534356D01*
X132418345Y-77442315D01*
X132542315Y-77318345D01*
X132634356Y-77169124D01*
X132634358Y-77169119D01*
X132689505Y-77002697D01*
X132689506Y-77002690D01*
X132699999Y-76899986D01*
X132700000Y-76899973D01*
X132700000Y-76750000D01*
X131750000Y-76750000D01*
X131750000Y-77599999D01*
X131249999Y-77599999D01*
X131250000Y-77599998D01*
X131250000Y-76750000D01*
X130298367Y-76750000D01*
X130240644Y-76781519D01*
X130170952Y-76776535D01*
X130129664Y-76750000D01*
X129178571Y-76750000D01*
X129178571Y-77599999D01*
X128678570Y-77599999D01*
X128678571Y-77599998D01*
X128678571Y-76750000D01*
X127726938Y-76750000D01*
X127669213Y-76781519D01*
X127599522Y-76776533D01*
X127558237Y-76750000D01*
X126607143Y-76750000D01*
X126607143Y-77599999D01*
X126107142Y-77599999D01*
X126107143Y-77599998D01*
X126107143Y-76750000D01*
X125155510Y-76750000D01*
X125097787Y-76781519D01*
X125028095Y-76776535D01*
X124986807Y-76750000D01*
X124035714Y-76750000D01*
X124035714Y-77599999D01*
X123535713Y-77599999D01*
X123535714Y-77599998D01*
X123535714Y-76750000D01*
X122584081Y-76750000D01*
X122526356Y-76781519D01*
X122456665Y-76776533D01*
X122415380Y-76750000D01*
X121464286Y-76750000D01*
X121464286Y-77599999D01*
X120964285Y-77599999D01*
X120964286Y-77599998D01*
X120964286Y-76750000D01*
X120012653Y-76750000D01*
X119954930Y-76781519D01*
X119885238Y-76776535D01*
X119843950Y-76750000D01*
X118892857Y-76750000D01*
X118892857Y-77599999D01*
X118392856Y-77599999D01*
X118392857Y-77599998D01*
X118392857Y-76750000D01*
X117445429Y-76750000D01*
X117445428Y-76925145D01*
X117197428Y-76925145D01*
X117197429Y-76750000D01*
X116250000Y-76750000D01*
X116250000Y-77599999D01*
X115749999Y-77599999D01*
X115750000Y-77599998D01*
X115750000Y-76750000D01*
X113750000Y-76750000D01*
X113750000Y-77599999D01*
X113249999Y-77599999D01*
X113250000Y-77599998D01*
X113250000Y-76750000D01*
X112300001Y-76750000D01*
X112300001Y-76899986D01*
X101000500Y-76899986D01*
X101000500Y-74099983D01*
X112299500Y-74099983D01*
X112299500Y-74900001D01*
X112299501Y-74900019D01*
X112310000Y-75002796D01*
X112310001Y-75002799D01*
X112365185Y-75169331D01*
X112365187Y-75169336D01*
X112457289Y-75318657D01*
X112551304Y-75412672D01*
X112584789Y-75473995D01*
X112579805Y-75543687D01*
X112551305Y-75588034D01*
X112457682Y-75681657D01*
X112365643Y-75830875D01*
X112365641Y-75830880D01*
X112310494Y-75997302D01*
X112310493Y-75997309D01*
X112300000Y-76100013D01*
X112300000Y-76250000D01*
X117197428Y-76250000D01*
X117197428Y-76074852D01*
X117189505Y-75997302D01*
X117134358Y-75830880D01*
X117134356Y-75830875D01*
X117042315Y-75681654D01*
X116948695Y-75588034D01*
X116915210Y-75526711D01*
X116920194Y-75457019D01*
X116948691Y-75412676D01*
X117042712Y-75318656D01*
X117134814Y-75169334D01*
X117189999Y-75002797D01*
X117198070Y-74923785D01*
X117224465Y-74859096D01*
X117281646Y-74818944D01*
X117351457Y-74816080D01*
X117411734Y-74851413D01*
X117443339Y-74913726D01*
X117444786Y-74923786D01*
X117452858Y-75002797D01*
X117452858Y-75002799D01*
X117508042Y-75169331D01*
X117508044Y-75169336D01*
X117600146Y-75318657D01*
X117694161Y-75412672D01*
X117727646Y-75473995D01*
X117722662Y-75543687D01*
X117694162Y-75588034D01*
X117600539Y-75681657D01*
X117508500Y-75830875D01*
X117508498Y-75830880D01*
X117453351Y-75997302D01*
X117453350Y-75997309D01*
X117445428Y-76074854D01*
X117445428Y-76250000D01*
X119844490Y-76250000D01*
X119902213Y-76218481D01*
X119971905Y-76223465D01*
X120013193Y-76250000D01*
X122415918Y-76250000D01*
X122473639Y-76218481D01*
X122543331Y-76223465D01*
X122584621Y-76250000D01*
X124987347Y-76250000D01*
X125045070Y-76218481D01*
X125114762Y-76223465D01*
X125156050Y-76250000D01*
X127558775Y-76250000D01*
X127616496Y-76218481D01*
X127686188Y-76223465D01*
X127727478Y-76250000D01*
X130130204Y-76250000D01*
X130187927Y-76218481D01*
X130257619Y-76223465D01*
X130298907Y-76250000D01*
X132699999Y-76250000D01*
X132699999Y-76100028D01*
X132699998Y-76100013D01*
X132689505Y-75997302D01*
X132634358Y-75830880D01*
X132634356Y-75830875D01*
X132542315Y-75681654D01*
X132448695Y-75588034D01*
X132415210Y-75526711D01*
X132420194Y-75457019D01*
X132448691Y-75412676D01*
X132542712Y-75318656D01*
X132634814Y-75169334D01*
X132689999Y-75002797D01*
X132700500Y-74900009D01*
X132700499Y-74099992D01*
X132699097Y-74086272D01*
X132689999Y-73997203D01*
X132689998Y-73997200D01*
X132687044Y-73988286D01*
X132634814Y-73830666D01*
X132542712Y-73681344D01*
X132418656Y-73557288D01*
X132418655Y-73557287D01*
X132323081Y-73498337D01*
X132323079Y-73498336D01*
X132269334Y-73465186D01*
X132203940Y-73443516D01*
X132197667Y-73440630D01*
X132176325Y-73422031D01*
X132153051Y-73405916D01*
X132150332Y-73399377D01*
X132144994Y-73394725D01*
X132144700Y-73393713D01*
X143649500Y-73393713D01*
X143649500Y-73606287D01*
X143682754Y-73816243D01*
X143747369Y-74015108D01*
X143748444Y-74018414D01*
X143844951Y-74207820D01*
X143969890Y-74379786D01*
X144120213Y-74530109D01*
X144292179Y-74655048D01*
X144292181Y-74655049D01*
X144292184Y-74655051D01*
X144481588Y-74751557D01*
X144683757Y-74817246D01*
X144893713Y-74850500D01*
X144893714Y-74850500D01*
X145106286Y-74850500D01*
X145106287Y-74850500D01*
X145316243Y-74817246D01*
X145331837Y-74812178D01*
X145401676Y-74810182D01*
X145457837Y-74842428D01*
X149838181Y-79222771D01*
X149871666Y-79284094D01*
X149874500Y-79310452D01*
X149874500Y-82186611D01*
X149898535Y-82307444D01*
X149898540Y-82307461D01*
X149945685Y-82421280D01*
X149945687Y-82421283D01*
X149945688Y-82421286D01*
X149979915Y-82472509D01*
X150014142Y-82523733D01*
X150101267Y-82610858D01*
X150101269Y-82610859D01*
X150111232Y-82620822D01*
X150838181Y-83347771D01*
X150871666Y-83409094D01*
X150874500Y-83435452D01*
X150874500Y-83457650D01*
X150854815Y-83524689D01*
X150853602Y-83526541D01*
X150790609Y-83620815D01*
X150790602Y-83620828D01*
X150730264Y-83766498D01*
X150730261Y-83766510D01*
X150699500Y-83921153D01*
X150699500Y-84078846D01*
X150730261Y-84233489D01*
X150730264Y-84233501D01*
X150790602Y-84379172D01*
X150790609Y-84379185D01*
X150878210Y-84510288D01*
X150878213Y-84510292D01*
X150989707Y-84621786D01*
X150989711Y-84621789D01*
X151120814Y-84709390D01*
X151120827Y-84709397D01*
X151258683Y-84766498D01*
X151266503Y-84769737D01*
X151421153Y-84800499D01*
X151421156Y-84800500D01*
X151421158Y-84800500D01*
X151578844Y-84800500D01*
X151578845Y-84800499D01*
X151733497Y-84769737D01*
X151879179Y-84709394D01*
X152010289Y-84621789D01*
X152121789Y-84510289D01*
X152209394Y-84379179D01*
X152269737Y-84233497D01*
X152300500Y-84078842D01*
X152300500Y-83921158D01*
X152300500Y-83921155D01*
X152300499Y-83921153D01*
X152293807Y-83887509D01*
X152269737Y-83766503D01*
X152209394Y-83620821D01*
X152146397Y-83526539D01*
X152125520Y-83459863D01*
X152125500Y-83457650D01*
X152125500Y-83192741D01*
X152125501Y-83192720D01*
X152125501Y-83063391D01*
X152101464Y-82942554D01*
X152101463Y-82942553D01*
X152101463Y-82942549D01*
X152084410Y-82901380D01*
X152063319Y-82850460D01*
X152054312Y-82828715D01*
X152054310Y-82828712D01*
X152054308Y-82828708D01*
X151985858Y-82726267D01*
X151985855Y-82726263D01*
X151161819Y-81902227D01*
X151128334Y-81840904D01*
X151125500Y-81814546D01*
X151125500Y-79067741D01*
X151125501Y-79067720D01*
X151125501Y-78938391D01*
X151101464Y-78817555D01*
X151101463Y-78817549D01*
X151054312Y-78703715D01*
X151054311Y-78703713D01*
X151054310Y-78703711D01*
X151053257Y-78702135D01*
X197249500Y-78702135D01*
X197249500Y-81297870D01*
X197249501Y-81297876D01*
X197255908Y-81357483D01*
X197306202Y-81492328D01*
X197306206Y-81492335D01*
X197392452Y-81607544D01*
X197392455Y-81607547D01*
X197507664Y-81693793D01*
X197507671Y-81693797D01*
X197642517Y-81744091D01*
X197642516Y-81744091D01*
X197649444Y-81744835D01*
X197702127Y-81750500D01*
X200297872Y-81750499D01*
X200357483Y-81744091D01*
X200492331Y-81693796D01*
X200607546Y-81607546D01*
X200693796Y-81492331D01*
X200744091Y-81357483D01*
X200750500Y-81297873D01*
X200750499Y-78702128D01*
X200744091Y-78642517D01*
X200728704Y-78601263D01*
X200693797Y-78507671D01*
X200693793Y-78507664D01*
X200607547Y-78392455D01*
X200607544Y-78392452D01*
X200492335Y-78306206D01*
X200492328Y-78306202D01*
X200357482Y-78255908D01*
X200357483Y-78255908D01*
X200297883Y-78249501D01*
X200297881Y-78249500D01*
X200297873Y-78249500D01*
X200297864Y-78249500D01*
X197702129Y-78249500D01*
X197702123Y-78249501D01*
X197642516Y-78255908D01*
X197507671Y-78306202D01*
X197507664Y-78306206D01*
X197392455Y-78392452D01*
X197392452Y-78392455D01*
X197306206Y-78507664D01*
X197306202Y-78507671D01*
X197255908Y-78642517D01*
X197249501Y-78702116D01*
X197249501Y-78702123D01*
X197249500Y-78702135D01*
X151053257Y-78702135D01*
X150985858Y-78601267D01*
X150985855Y-78601263D01*
X147446771Y-75062181D01*
X147413286Y-75000858D01*
X147418270Y-74931166D01*
X147460142Y-74875233D01*
X147525606Y-74850816D01*
X147534452Y-74850500D01*
X147646286Y-74850500D01*
X147646287Y-74850500D01*
X147856243Y-74817246D01*
X148058412Y-74751557D01*
X148247816Y-74655051D01*
X148334138Y-74592335D01*
X148419786Y-74530109D01*
X148419788Y-74530106D01*
X148419792Y-74530104D01*
X148570104Y-74379792D01*
X148570106Y-74379788D01*
X148570109Y-74379786D01*
X148693902Y-74209397D01*
X148695051Y-74207816D01*
X148699514Y-74199054D01*
X148747488Y-74148259D01*
X148815308Y-74131463D01*
X148881444Y-74153999D01*
X148920486Y-74199056D01*
X148924951Y-74207820D01*
X149049890Y-74379786D01*
X149200213Y-74530109D01*
X149372179Y-74655048D01*
X149372181Y-74655049D01*
X149372184Y-74655051D01*
X149561588Y-74751557D01*
X149763757Y-74817246D01*
X149973713Y-74850500D01*
X149973714Y-74850500D01*
X150186286Y-74850500D01*
X150186287Y-74850500D01*
X150396243Y-74817246D01*
X150598412Y-74751557D01*
X150787816Y-74655051D01*
X150874138Y-74592335D01*
X150959786Y-74530109D01*
X150959788Y-74530106D01*
X150959792Y-74530104D01*
X151110104Y-74379792D01*
X151110106Y-74379788D01*
X151110109Y-74379786D01*
X151233902Y-74209397D01*
X151235051Y-74207816D01*
X151239514Y-74199054D01*
X151287488Y-74148259D01*
X151355308Y-74131463D01*
X151421444Y-74153999D01*
X151460486Y-74199056D01*
X151464951Y-74207820D01*
X151589890Y-74379786D01*
X151740213Y-74530109D01*
X151912179Y-74655048D01*
X151912181Y-74655049D01*
X151912184Y-74655051D01*
X152101588Y-74751557D01*
X152303757Y-74817246D01*
X152513713Y-74850500D01*
X152513714Y-74850500D01*
X152726286Y-74850500D01*
X152726287Y-74850500D01*
X152936243Y-74817246D01*
X153138412Y-74751557D01*
X153327816Y-74655051D01*
X153414138Y-74592335D01*
X153499786Y-74530109D01*
X153499788Y-74530106D01*
X153499792Y-74530104D01*
X153650104Y-74379792D01*
X153650106Y-74379788D01*
X153650109Y-74379786D01*
X153730063Y-74269737D01*
X153775051Y-74207816D01*
X153779793Y-74198508D01*
X153827763Y-74147711D01*
X153895583Y-74130911D01*
X153961719Y-74153445D01*
X154000763Y-74198500D01*
X154005373Y-74207547D01*
X154044728Y-74261716D01*
X154677037Y-73629408D01*
X154694075Y-73692993D01*
X154759901Y-73807007D01*
X154852993Y-73900099D01*
X154967007Y-73965925D01*
X155030590Y-73982962D01*
X154398282Y-74615269D01*
X154398282Y-74615270D01*
X154452449Y-74654624D01*
X154641782Y-74751095D01*
X154843870Y-74816757D01*
X155053754Y-74850000D01*
X155266246Y-74850000D01*
X155476127Y-74816757D01*
X155476130Y-74816757D01*
X155678217Y-74751095D01*
X155867554Y-74654622D01*
X155921716Y-74615270D01*
X155921717Y-74615270D01*
X155289408Y-73982962D01*
X155352993Y-73965925D01*
X155467007Y-73900099D01*
X155560099Y-73807007D01*
X155625925Y-73692993D01*
X155642962Y-73629408D01*
X156313181Y-74299628D01*
X156346666Y-74360951D01*
X156349500Y-74387300D01*
X156349500Y-74397865D01*
X156349501Y-74397876D01*
X156355908Y-74457483D01*
X156406202Y-74592328D01*
X156406206Y-74592335D01*
X156492452Y-74707544D01*
X156492455Y-74707547D01*
X156607664Y-74793793D01*
X156607671Y-74793797D01*
X156742517Y-74844091D01*
X156742516Y-74844091D01*
X156749444Y-74844835D01*
X156802127Y-74850500D01*
X158597872Y-74850499D01*
X158657483Y-74844091D01*
X158792331Y-74793796D01*
X158907546Y-74707546D01*
X158993796Y-74592331D01*
X159044091Y-74457483D01*
X159050500Y-74397873D01*
X159050499Y-73421153D01*
X163199500Y-73421153D01*
X163199500Y-73578846D01*
X163230261Y-73733489D01*
X163230264Y-73733501D01*
X163290602Y-73879172D01*
X163290609Y-73879185D01*
X163378210Y-74010288D01*
X163378213Y-74010292D01*
X163489707Y-74121786D01*
X163489711Y-74121789D01*
X163620814Y-74209390D01*
X163620827Y-74209397D01*
X163765530Y-74269334D01*
X163766503Y-74269737D01*
X163916774Y-74299628D01*
X163921153Y-74300499D01*
X163921156Y-74300500D01*
X163921158Y-74300500D01*
X164078844Y-74300500D01*
X164078845Y-74300499D01*
X164233497Y-74269737D01*
X164379179Y-74209394D01*
X164473459Y-74146398D01*
X164540136Y-74125520D01*
X164542350Y-74125500D01*
X165327983Y-74125500D01*
X165395022Y-74145185D01*
X165440777Y-74197989D01*
X165445686Y-74210489D01*
X165465186Y-74269333D01*
X165465187Y-74269336D01*
X165465435Y-74269738D01*
X165557288Y-74418656D01*
X165681344Y-74542712D01*
X165830666Y-74634814D01*
X165997203Y-74689999D01*
X166099991Y-74700500D01*
X166900008Y-74700499D01*
X166900016Y-74700498D01*
X166900019Y-74700498D01*
X166956302Y-74694748D01*
X167002797Y-74689999D01*
X167169334Y-74634814D01*
X167318656Y-74542712D01*
X167412675Y-74448692D01*
X167473994Y-74415210D01*
X167543686Y-74420194D01*
X167588034Y-74448695D01*
X167681654Y-74542315D01*
X167830875Y-74634356D01*
X167830880Y-74634358D01*
X167997302Y-74689505D01*
X167997309Y-74689506D01*
X168100019Y-74699999D01*
X168249999Y-74699999D01*
X168750000Y-74699999D01*
X168899972Y-74699999D01*
X168899986Y-74699998D01*
X169002697Y-74689505D01*
X169169119Y-74634358D01*
X169169124Y-74634356D01*
X169318345Y-74542315D01*
X169442315Y-74418345D01*
X169534356Y-74269124D01*
X169534358Y-74269119D01*
X169589505Y-74102697D01*
X169589506Y-74102690D01*
X169599999Y-73999986D01*
X169600000Y-73999973D01*
X169600000Y-73750000D01*
X168750000Y-73750000D01*
X168750000Y-74699999D01*
X168249999Y-74699999D01*
X168250000Y-74699998D01*
X168250000Y-73421153D01*
X172699500Y-73421153D01*
X172699500Y-73578846D01*
X172730261Y-73733489D01*
X172730264Y-73733501D01*
X172790602Y-73879172D01*
X172790609Y-73879185D01*
X172878210Y-74010288D01*
X172878213Y-74010292D01*
X172989707Y-74121786D01*
X172989711Y-74121789D01*
X173120814Y-74209390D01*
X173120827Y-74209397D01*
X173265530Y-74269334D01*
X173266503Y-74269737D01*
X173416774Y-74299628D01*
X173421153Y-74300499D01*
X173421156Y-74300500D01*
X173421158Y-74300500D01*
X173578844Y-74300500D01*
X173578845Y-74300499D01*
X173733497Y-74269737D01*
X173879179Y-74209394D01*
X173973459Y-74146398D01*
X174040136Y-74125520D01*
X174042350Y-74125500D01*
X174827983Y-74125500D01*
X174895022Y-74145185D01*
X174940777Y-74197989D01*
X174945686Y-74210489D01*
X174965186Y-74269333D01*
X174965187Y-74269336D01*
X174965435Y-74269738D01*
X175057288Y-74418656D01*
X175181344Y-74542712D01*
X175330666Y-74634814D01*
X175497203Y-74689999D01*
X175599991Y-74700500D01*
X176400008Y-74700499D01*
X176400016Y-74700498D01*
X176400019Y-74700498D01*
X176456302Y-74694748D01*
X176502797Y-74689999D01*
X176669334Y-74634814D01*
X176818656Y-74542712D01*
X176912675Y-74448692D01*
X176973994Y-74415210D01*
X177043686Y-74420194D01*
X177088034Y-74448695D01*
X177181654Y-74542315D01*
X177330875Y-74634356D01*
X177330880Y-74634358D01*
X177497302Y-74689505D01*
X177497309Y-74689506D01*
X177600019Y-74699999D01*
X177749999Y-74699999D01*
X178250000Y-74699999D01*
X178399972Y-74699999D01*
X178399986Y-74699998D01*
X178502697Y-74689505D01*
X178669119Y-74634358D01*
X178669124Y-74634356D01*
X178818345Y-74542315D01*
X178942315Y-74418345D01*
X179034356Y-74269124D01*
X179034358Y-74269119D01*
X179089505Y-74102697D01*
X179089506Y-74102690D01*
X179099999Y-73999986D01*
X179100000Y-73999973D01*
X179100000Y-73750000D01*
X178250000Y-73750000D01*
X178250000Y-74699999D01*
X177749999Y-74699999D01*
X177750000Y-74699998D01*
X177750000Y-73250000D01*
X178250000Y-73250000D01*
X179099999Y-73250000D01*
X179099999Y-73000028D01*
X179099998Y-73000013D01*
X179089505Y-72897302D01*
X179034358Y-72730880D01*
X179034356Y-72730875D01*
X178942315Y-72581654D01*
X178818345Y-72457684D01*
X178669124Y-72365643D01*
X178669119Y-72365641D01*
X178502697Y-72310494D01*
X178502690Y-72310493D01*
X178399986Y-72300000D01*
X178250000Y-72300000D01*
X178250000Y-73250000D01*
X177750000Y-73250000D01*
X177750000Y-72300000D01*
X177600027Y-72300000D01*
X177600012Y-72300001D01*
X177497302Y-72310494D01*
X177330880Y-72365641D01*
X177330875Y-72365643D01*
X177181657Y-72457682D01*
X177088034Y-72551305D01*
X177026710Y-72584789D01*
X176957019Y-72579805D01*
X176912672Y-72551304D01*
X176818657Y-72457289D01*
X176818656Y-72457288D01*
X176669334Y-72365186D01*
X176502797Y-72310001D01*
X176502795Y-72310000D01*
X176400010Y-72299500D01*
X175599998Y-72299500D01*
X175599980Y-72299501D01*
X175497203Y-72310000D01*
X175497200Y-72310001D01*
X175330668Y-72365185D01*
X175330663Y-72365187D01*
X175181342Y-72457289D01*
X175057289Y-72581342D01*
X174965187Y-72730663D01*
X174965186Y-72730666D01*
X174945689Y-72789505D01*
X174905916Y-72846949D01*
X174841400Y-72873772D01*
X174827983Y-72874500D01*
X174042350Y-72874500D01*
X173975311Y-72854815D01*
X173973459Y-72853602D01*
X173879184Y-72790609D01*
X173879172Y-72790602D01*
X173733501Y-72730264D01*
X173733489Y-72730261D01*
X173578845Y-72699500D01*
X173578842Y-72699500D01*
X173421158Y-72699500D01*
X173421155Y-72699500D01*
X173266510Y-72730261D01*
X173266498Y-72730264D01*
X173120827Y-72790602D01*
X173120814Y-72790609D01*
X172989711Y-72878210D01*
X172989707Y-72878213D01*
X172878213Y-72989707D01*
X172878210Y-72989711D01*
X172790609Y-73120814D01*
X172790602Y-73120827D01*
X172730264Y-73266498D01*
X172730261Y-73266510D01*
X172699500Y-73421153D01*
X168250000Y-73421153D01*
X168250000Y-73250000D01*
X168750000Y-73250000D01*
X169599999Y-73250000D01*
X169599999Y-73000028D01*
X169599998Y-73000013D01*
X169589505Y-72897302D01*
X169534358Y-72730880D01*
X169534356Y-72730875D01*
X169442315Y-72581654D01*
X169318345Y-72457684D01*
X169169124Y-72365643D01*
X169169119Y-72365641D01*
X169002697Y-72310494D01*
X169002690Y-72310493D01*
X168899986Y-72300000D01*
X168750000Y-72300000D01*
X168750000Y-73250000D01*
X168250000Y-73250000D01*
X168250000Y-72300000D01*
X168100027Y-72300000D01*
X168100012Y-72300001D01*
X167997302Y-72310494D01*
X167830880Y-72365641D01*
X167830875Y-72365643D01*
X167681657Y-72457682D01*
X167588034Y-72551305D01*
X167526710Y-72584789D01*
X167457019Y-72579805D01*
X167412672Y-72551304D01*
X167318657Y-72457289D01*
X167318656Y-72457288D01*
X167169334Y-72365186D01*
X167002797Y-72310001D01*
X167002795Y-72310000D01*
X166900010Y-72299500D01*
X166099998Y-72299500D01*
X166099980Y-72299501D01*
X165997203Y-72310000D01*
X165997200Y-72310001D01*
X165830668Y-72365185D01*
X165830663Y-72365187D01*
X165681342Y-72457289D01*
X165557289Y-72581342D01*
X165465187Y-72730663D01*
X165465186Y-72730666D01*
X165445689Y-72789505D01*
X165405916Y-72846949D01*
X165341400Y-72873772D01*
X165327983Y-72874500D01*
X164542350Y-72874500D01*
X164475311Y-72854815D01*
X164473459Y-72853602D01*
X164379184Y-72790609D01*
X164379172Y-72790602D01*
X164233501Y-72730264D01*
X164233489Y-72730261D01*
X164078845Y-72699500D01*
X164078842Y-72699500D01*
X163921158Y-72699500D01*
X163921155Y-72699500D01*
X163766510Y-72730261D01*
X163766498Y-72730264D01*
X163620827Y-72790602D01*
X163620814Y-72790609D01*
X163489711Y-72878210D01*
X163489707Y-72878213D01*
X163378213Y-72989707D01*
X163378210Y-72989711D01*
X163290609Y-73120814D01*
X163290602Y-73120827D01*
X163230264Y-73266498D01*
X163230261Y-73266510D01*
X163199500Y-73421153D01*
X159050499Y-73421153D01*
X159050499Y-72602128D01*
X159044091Y-72542517D01*
X159012450Y-72457684D01*
X158993797Y-72407671D01*
X158993793Y-72407664D01*
X158907547Y-72292455D01*
X158907544Y-72292452D01*
X158792335Y-72206206D01*
X158792328Y-72206202D01*
X158657482Y-72155908D01*
X158657483Y-72155908D01*
X158597883Y-72149501D01*
X158597881Y-72149500D01*
X158597873Y-72149500D01*
X158597864Y-72149500D01*
X156802129Y-72149500D01*
X156802123Y-72149501D01*
X156742516Y-72155908D01*
X156607671Y-72206202D01*
X156607664Y-72206206D01*
X156492455Y-72292452D01*
X156492452Y-72292455D01*
X156406206Y-72407664D01*
X156406202Y-72407671D01*
X156355908Y-72542517D01*
X156351734Y-72581344D01*
X156349501Y-72602123D01*
X156349500Y-72602135D01*
X156349500Y-72612690D01*
X156329815Y-72679729D01*
X156313181Y-72700371D01*
X155642962Y-73370590D01*
X155625925Y-73307007D01*
X155560099Y-73192993D01*
X155467007Y-73099901D01*
X155352993Y-73034075D01*
X155289409Y-73017037D01*
X155921716Y-72384728D01*
X155867550Y-72345375D01*
X155678217Y-72248904D01*
X155476129Y-72183242D01*
X155266246Y-72150000D01*
X155053754Y-72150000D01*
X154843872Y-72183242D01*
X154843869Y-72183242D01*
X154641782Y-72248904D01*
X154452439Y-72345380D01*
X154398282Y-72384727D01*
X154398282Y-72384728D01*
X155030591Y-73017037D01*
X154967007Y-73034075D01*
X154852993Y-73099901D01*
X154759901Y-73192993D01*
X154694075Y-73307007D01*
X154677037Y-73370591D01*
X154044728Y-72738282D01*
X154044727Y-72738282D01*
X154005380Y-72792440D01*
X154005376Y-72792446D01*
X154000760Y-72801505D01*
X153952781Y-72852297D01*
X153884959Y-72869087D01*
X153818826Y-72846543D01*
X153779794Y-72801493D01*
X153775051Y-72792184D01*
X153775049Y-72792181D01*
X153775048Y-72792179D01*
X153650109Y-72620213D01*
X153499786Y-72469890D01*
X153327820Y-72344951D01*
X153138414Y-72248444D01*
X153138413Y-72248443D01*
X153138412Y-72248443D01*
X152936243Y-72182754D01*
X152936241Y-72182753D01*
X152936240Y-72182753D01*
X152774957Y-72157208D01*
X152726287Y-72149500D01*
X152513713Y-72149500D01*
X152465042Y-72157208D01*
X152303760Y-72182753D01*
X152101585Y-72248444D01*
X151912179Y-72344951D01*
X151740213Y-72469890D01*
X151589890Y-72620213D01*
X151464949Y-72792182D01*
X151460484Y-72800946D01*
X151412509Y-72851742D01*
X151344688Y-72868536D01*
X151278553Y-72845998D01*
X151239516Y-72800946D01*
X151235050Y-72792182D01*
X151110109Y-72620213D01*
X150959786Y-72469890D01*
X150787820Y-72344951D01*
X150598414Y-72248444D01*
X150598413Y-72248443D01*
X150598412Y-72248443D01*
X150396243Y-72182754D01*
X150396241Y-72182753D01*
X150396240Y-72182753D01*
X150234957Y-72157208D01*
X150186287Y-72149500D01*
X149973713Y-72149500D01*
X149925042Y-72157208D01*
X149763760Y-72182753D01*
X149561585Y-72248444D01*
X149372179Y-72344951D01*
X149200213Y-72469890D01*
X149049890Y-72620213D01*
X148924949Y-72792182D01*
X148920484Y-72800946D01*
X148872509Y-72851742D01*
X148804688Y-72868536D01*
X148738553Y-72845998D01*
X148699516Y-72800946D01*
X148695050Y-72792182D01*
X148570109Y-72620213D01*
X148419786Y-72469890D01*
X148247820Y-72344951D01*
X148058414Y-72248444D01*
X148058413Y-72248443D01*
X148058412Y-72248443D01*
X147856243Y-72182754D01*
X147856241Y-72182753D01*
X147856240Y-72182753D01*
X147694957Y-72157208D01*
X147646287Y-72149500D01*
X147433713Y-72149500D01*
X147385042Y-72157208D01*
X147223760Y-72182753D01*
X147021585Y-72248444D01*
X146832179Y-72344951D01*
X146660213Y-72469890D01*
X146509890Y-72620213D01*
X146384949Y-72792182D01*
X146380484Y-72800946D01*
X146332509Y-72851742D01*
X146264688Y-72868536D01*
X146198553Y-72845998D01*
X146159516Y-72800946D01*
X146155050Y-72792182D01*
X146030109Y-72620213D01*
X145879786Y-72469890D01*
X145707820Y-72344951D01*
X145518414Y-72248444D01*
X145518413Y-72248443D01*
X145518412Y-72248443D01*
X145316243Y-72182754D01*
X145316241Y-72182753D01*
X145316240Y-72182753D01*
X145154957Y-72157208D01*
X145106287Y-72149500D01*
X144893713Y-72149500D01*
X144845042Y-72157208D01*
X144683760Y-72182753D01*
X144481585Y-72248444D01*
X144292179Y-72344951D01*
X144120213Y-72469890D01*
X143969890Y-72620213D01*
X143844951Y-72792179D01*
X143748444Y-72981585D01*
X143682753Y-73183760D01*
X143653645Y-73367541D01*
X143649500Y-73393713D01*
X132144700Y-73393713D01*
X132137096Y-73367541D01*
X132126228Y-73341400D01*
X132125500Y-73327983D01*
X132125500Y-73042350D01*
X132145185Y-72975311D01*
X132146398Y-72973459D01*
X132146809Y-72972843D01*
X132209394Y-72879179D01*
X132213803Y-72868536D01*
X132245430Y-72792179D01*
X132269737Y-72733497D01*
X132300500Y-72578842D01*
X132300500Y-72421158D01*
X132300500Y-72421155D01*
X132300499Y-72421153D01*
X132297816Y-72407664D01*
X132269737Y-72266503D01*
X132262256Y-72248443D01*
X132209397Y-72120827D01*
X132209390Y-72120814D01*
X132121789Y-71989711D01*
X132121786Y-71989707D01*
X132010292Y-71878213D01*
X132010288Y-71878210D01*
X131879185Y-71790609D01*
X131879172Y-71790602D01*
X131733501Y-71730264D01*
X131733489Y-71730261D01*
X131578845Y-71699500D01*
X131578842Y-71699500D01*
X131421158Y-71699500D01*
X131421155Y-71699500D01*
X131266510Y-71730261D01*
X131266498Y-71730264D01*
X131120827Y-71790602D01*
X131120814Y-71790609D01*
X130989711Y-71878210D01*
X130989707Y-71878213D01*
X130878213Y-71989707D01*
X130878210Y-71989711D01*
X130790609Y-72120814D01*
X130790602Y-72120827D01*
X130730264Y-72266498D01*
X130730261Y-72266510D01*
X130699500Y-72421153D01*
X130699500Y-72578846D01*
X130730261Y-72733489D01*
X130730264Y-72733501D01*
X130790602Y-72879172D01*
X130790609Y-72879184D01*
X130853602Y-72973459D01*
X130874480Y-73040136D01*
X130874500Y-73042350D01*
X130874500Y-73327983D01*
X130854815Y-73395022D01*
X130802011Y-73440777D01*
X130789510Y-73445686D01*
X130730666Y-73465186D01*
X130730663Y-73465187D01*
X130581342Y-73557289D01*
X130457289Y-73681342D01*
X130365187Y-73830663D01*
X130365186Y-73830666D01*
X130331991Y-73930841D01*
X130292218Y-73988286D01*
X130227701Y-74015108D01*
X130158926Y-74002793D01*
X130107726Y-73955249D01*
X130096580Y-73930843D01*
X130063385Y-73830666D01*
X129971283Y-73681344D01*
X129847227Y-73557288D01*
X129697905Y-73465186D01*
X129639064Y-73445688D01*
X129581622Y-73405916D01*
X129554799Y-73341400D01*
X129554071Y-73327983D01*
X129554071Y-73042350D01*
X129573756Y-72975311D01*
X129574969Y-72973459D01*
X129575380Y-72972843D01*
X129637965Y-72879179D01*
X129642374Y-72868536D01*
X129674001Y-72792179D01*
X129698308Y-72733497D01*
X129729071Y-72578842D01*
X129729071Y-72421158D01*
X129729071Y-72421155D01*
X129729070Y-72421153D01*
X129726387Y-72407664D01*
X129698308Y-72266503D01*
X129690827Y-72248443D01*
X129637968Y-72120827D01*
X129637961Y-72120814D01*
X129550360Y-71989711D01*
X129550357Y-71989707D01*
X129438863Y-71878213D01*
X129438859Y-71878210D01*
X129307756Y-71790609D01*
X129307743Y-71790602D01*
X129162072Y-71730264D01*
X129162060Y-71730261D01*
X129007416Y-71699500D01*
X129007413Y-71699500D01*
X128849729Y-71699500D01*
X128849726Y-71699500D01*
X128695081Y-71730261D01*
X128695069Y-71730264D01*
X128549398Y-71790602D01*
X128549385Y-71790609D01*
X128418282Y-71878210D01*
X128418278Y-71878213D01*
X128306784Y-71989707D01*
X128306781Y-71989711D01*
X128219180Y-72120814D01*
X128219173Y-72120827D01*
X128158835Y-72266498D01*
X128158832Y-72266510D01*
X128128071Y-72421153D01*
X128128071Y-72578846D01*
X128158832Y-72733489D01*
X128158835Y-72733501D01*
X128219173Y-72879172D01*
X128219180Y-72879184D01*
X128282173Y-72973459D01*
X128303051Y-73040136D01*
X128303071Y-73042350D01*
X128303071Y-73327983D01*
X128283386Y-73395022D01*
X128230582Y-73440777D01*
X128218081Y-73445686D01*
X128159237Y-73465186D01*
X128159234Y-73465187D01*
X128009913Y-73557289D01*
X127885860Y-73681342D01*
X127793758Y-73830663D01*
X127793756Y-73830668D01*
X127760563Y-73930839D01*
X127720790Y-73988284D01*
X127656274Y-74015107D01*
X127587498Y-74002792D01*
X127536299Y-73955249D01*
X127525151Y-73930839D01*
X127514965Y-73900099D01*
X127491957Y-73830666D01*
X127399855Y-73681344D01*
X127275799Y-73557288D01*
X127126477Y-73465186D01*
X127067636Y-73445688D01*
X127010194Y-73405916D01*
X126983371Y-73341400D01*
X126982643Y-73327983D01*
X126982643Y-73042350D01*
X127002328Y-72975311D01*
X127003541Y-72973459D01*
X127003952Y-72972843D01*
X127066537Y-72879179D01*
X127070946Y-72868536D01*
X127102573Y-72792179D01*
X127126880Y-72733497D01*
X127157643Y-72578842D01*
X127157643Y-72421158D01*
X127157643Y-72421155D01*
X127157642Y-72421153D01*
X127154959Y-72407664D01*
X127126880Y-72266503D01*
X127119399Y-72248443D01*
X127066540Y-72120827D01*
X127066533Y-72120814D01*
X126978932Y-71989711D01*
X126978929Y-71989707D01*
X126867435Y-71878213D01*
X126867431Y-71878210D01*
X126736328Y-71790609D01*
X126736315Y-71790602D01*
X126590644Y-71730264D01*
X126590632Y-71730261D01*
X126435988Y-71699500D01*
X126435985Y-71699500D01*
X126278301Y-71699500D01*
X126278298Y-71699500D01*
X126123653Y-71730261D01*
X126123641Y-71730264D01*
X125977970Y-71790602D01*
X125977957Y-71790609D01*
X125846854Y-71878210D01*
X125846850Y-71878213D01*
X125735356Y-71989707D01*
X125735353Y-71989711D01*
X125647752Y-72120814D01*
X125647745Y-72120827D01*
X125587407Y-72266498D01*
X125587404Y-72266510D01*
X125556643Y-72421153D01*
X125556643Y-72578846D01*
X125587404Y-72733489D01*
X125587407Y-72733501D01*
X125647745Y-72879172D01*
X125647752Y-72879184D01*
X125710745Y-72973459D01*
X125731623Y-73040136D01*
X125731643Y-73042350D01*
X125731643Y-73327983D01*
X125711958Y-73395022D01*
X125659154Y-73440777D01*
X125646653Y-73445686D01*
X125587809Y-73465186D01*
X125587806Y-73465187D01*
X125438485Y-73557289D01*
X125314432Y-73681342D01*
X125222330Y-73830663D01*
X125222329Y-73830666D01*
X125189134Y-73930841D01*
X125149361Y-73988286D01*
X125084844Y-74015108D01*
X125016069Y-74002793D01*
X124964869Y-73955249D01*
X124953723Y-73930843D01*
X124920528Y-73830666D01*
X124828426Y-73681344D01*
X124704370Y-73557288D01*
X124555048Y-73465186D01*
X124496207Y-73445688D01*
X124438765Y-73405916D01*
X124411942Y-73341400D01*
X124411214Y-73327983D01*
X124411214Y-73042350D01*
X124430899Y-72975311D01*
X124432112Y-72973459D01*
X124432523Y-72972843D01*
X124495108Y-72879179D01*
X124499517Y-72868536D01*
X124531144Y-72792179D01*
X124555451Y-72733497D01*
X124586214Y-72578842D01*
X124586214Y-72421158D01*
X124586214Y-72421155D01*
X124586213Y-72421153D01*
X124583530Y-72407664D01*
X124555451Y-72266503D01*
X124547970Y-72248443D01*
X124495111Y-72120827D01*
X124495104Y-72120814D01*
X124407503Y-71989711D01*
X124407500Y-71989707D01*
X124296006Y-71878213D01*
X124296002Y-71878210D01*
X124164899Y-71790609D01*
X124164886Y-71790602D01*
X124019215Y-71730264D01*
X124019203Y-71730261D01*
X123864559Y-71699500D01*
X123864556Y-71699500D01*
X123706872Y-71699500D01*
X123706869Y-71699500D01*
X123552224Y-71730261D01*
X123552212Y-71730264D01*
X123406541Y-71790602D01*
X123406528Y-71790609D01*
X123275425Y-71878210D01*
X123275421Y-71878213D01*
X123163927Y-71989707D01*
X123163924Y-71989711D01*
X123076323Y-72120814D01*
X123076316Y-72120827D01*
X123015978Y-72266498D01*
X123015975Y-72266510D01*
X122985214Y-72421153D01*
X122985214Y-72578846D01*
X123015975Y-72733489D01*
X123015978Y-72733501D01*
X123076316Y-72879172D01*
X123076323Y-72879184D01*
X123139316Y-72973459D01*
X123160194Y-73040136D01*
X123160214Y-73042350D01*
X123160214Y-73327983D01*
X123140529Y-73395022D01*
X123087725Y-73440777D01*
X123075224Y-73445686D01*
X123016380Y-73465186D01*
X123016377Y-73465187D01*
X122867056Y-73557289D01*
X122743003Y-73681342D01*
X122650901Y-73830663D01*
X122650899Y-73830668D01*
X122617706Y-73930839D01*
X122577933Y-73988284D01*
X122513417Y-74015107D01*
X122444641Y-74002792D01*
X122393442Y-73955249D01*
X122382294Y-73930839D01*
X122372108Y-73900099D01*
X122349100Y-73830666D01*
X122256998Y-73681344D01*
X122132942Y-73557288D01*
X121983620Y-73465186D01*
X121924779Y-73445688D01*
X121867337Y-73405916D01*
X121840514Y-73341400D01*
X121839786Y-73327983D01*
X121839786Y-73042350D01*
X121859471Y-72975311D01*
X121860684Y-72973459D01*
X121861095Y-72972843D01*
X121923680Y-72879179D01*
X121928089Y-72868536D01*
X121959716Y-72792179D01*
X121984023Y-72733497D01*
X122014786Y-72578842D01*
X122014786Y-72421158D01*
X122014786Y-72421155D01*
X122014785Y-72421153D01*
X122012102Y-72407664D01*
X121984023Y-72266503D01*
X121976542Y-72248443D01*
X121923683Y-72120827D01*
X121923676Y-72120814D01*
X121836075Y-71989711D01*
X121836072Y-71989707D01*
X121724578Y-71878213D01*
X121724574Y-71878210D01*
X121593471Y-71790609D01*
X121593458Y-71790602D01*
X121447787Y-71730264D01*
X121447775Y-71730261D01*
X121293131Y-71699500D01*
X121293128Y-71699500D01*
X121135444Y-71699500D01*
X121135441Y-71699500D01*
X120980796Y-71730261D01*
X120980784Y-71730264D01*
X120835113Y-71790602D01*
X120835100Y-71790609D01*
X120703997Y-71878210D01*
X120703993Y-71878213D01*
X120592499Y-71989707D01*
X120592496Y-71989711D01*
X120504895Y-72120814D01*
X120504888Y-72120827D01*
X120444550Y-72266498D01*
X120444547Y-72266510D01*
X120413786Y-72421153D01*
X120413786Y-72578846D01*
X120444547Y-72733489D01*
X120444550Y-72733501D01*
X120504888Y-72879172D01*
X120504895Y-72879184D01*
X120567888Y-72973459D01*
X120588766Y-73040136D01*
X120588786Y-73042350D01*
X120588786Y-73327983D01*
X120569101Y-73395022D01*
X120516297Y-73440777D01*
X120503796Y-73445686D01*
X120444952Y-73465186D01*
X120444949Y-73465187D01*
X120295628Y-73557289D01*
X120171575Y-73681342D01*
X120079473Y-73830663D01*
X120079472Y-73830666D01*
X120046277Y-73930841D01*
X120006504Y-73988286D01*
X119941987Y-74015108D01*
X119873212Y-74002793D01*
X119822012Y-73955249D01*
X119810866Y-73930843D01*
X119777671Y-73830666D01*
X119685569Y-73681344D01*
X119561513Y-73557288D01*
X119412191Y-73465186D01*
X119353350Y-73445688D01*
X119295908Y-73405916D01*
X119269085Y-73341400D01*
X119268357Y-73327983D01*
X119268357Y-73042350D01*
X119288042Y-72975311D01*
X119289255Y-72973459D01*
X119289666Y-72972843D01*
X119352251Y-72879179D01*
X119356660Y-72868536D01*
X119388287Y-72792179D01*
X119412594Y-72733497D01*
X119443357Y-72578842D01*
X119443357Y-72421158D01*
X119443357Y-72421155D01*
X119443356Y-72421153D01*
X119440673Y-72407664D01*
X119412594Y-72266503D01*
X119405113Y-72248443D01*
X119352254Y-72120827D01*
X119352247Y-72120814D01*
X119264646Y-71989711D01*
X119264643Y-71989707D01*
X119153149Y-71878213D01*
X119153145Y-71878210D01*
X119022042Y-71790609D01*
X119022029Y-71790602D01*
X118876358Y-71730264D01*
X118876346Y-71730261D01*
X118721702Y-71699500D01*
X118721699Y-71699500D01*
X118564015Y-71699500D01*
X118564012Y-71699500D01*
X118409367Y-71730261D01*
X118409355Y-71730264D01*
X118263684Y-71790602D01*
X118263671Y-71790609D01*
X118132568Y-71878210D01*
X118132564Y-71878213D01*
X118021070Y-71989707D01*
X118021067Y-71989711D01*
X117933466Y-72120814D01*
X117933459Y-72120827D01*
X117873121Y-72266498D01*
X117873118Y-72266510D01*
X117842357Y-72421153D01*
X117842357Y-72578846D01*
X117873118Y-72733489D01*
X117873121Y-72733501D01*
X117933459Y-72879172D01*
X117933466Y-72879184D01*
X117996459Y-72973459D01*
X118017337Y-73040136D01*
X118017357Y-73042350D01*
X118017357Y-73327983D01*
X117997672Y-73395022D01*
X117944868Y-73440777D01*
X117932367Y-73445686D01*
X117873523Y-73465186D01*
X117873520Y-73465187D01*
X117724199Y-73557289D01*
X117600146Y-73681342D01*
X117508044Y-73830663D01*
X117508042Y-73830668D01*
X117491970Y-73879172D01*
X117452859Y-73997202D01*
X117452858Y-73997204D01*
X117452857Y-73997205D01*
X117444786Y-74076213D01*
X117418390Y-74140904D01*
X117361209Y-74181056D01*
X117291398Y-74183919D01*
X117231121Y-74148585D01*
X117199516Y-74086272D01*
X117198070Y-74076212D01*
X117196908Y-74064838D01*
X117189999Y-73997203D01*
X117134814Y-73830666D01*
X117042712Y-73681344D01*
X116918656Y-73557288D01*
X116769334Y-73465186D01*
X116710493Y-73445688D01*
X116653051Y-73405916D01*
X116626228Y-73341400D01*
X116625500Y-73327983D01*
X116625500Y-73042350D01*
X116645185Y-72975311D01*
X116646398Y-72973459D01*
X116646809Y-72972843D01*
X116709394Y-72879179D01*
X116713803Y-72868536D01*
X116745430Y-72792179D01*
X116769737Y-72733497D01*
X116800500Y-72578842D01*
X116800500Y-72421158D01*
X116800500Y-72421155D01*
X116800499Y-72421153D01*
X116797816Y-72407664D01*
X116769737Y-72266503D01*
X116762256Y-72248443D01*
X116709397Y-72120827D01*
X116709390Y-72120814D01*
X116621789Y-71989711D01*
X116621786Y-71989707D01*
X116510292Y-71878213D01*
X116510288Y-71878210D01*
X116379185Y-71790609D01*
X116379172Y-71790602D01*
X116233501Y-71730264D01*
X116233489Y-71730261D01*
X116078845Y-71699500D01*
X116078842Y-71699500D01*
X115921158Y-71699500D01*
X115921155Y-71699500D01*
X115766510Y-71730261D01*
X115766498Y-71730264D01*
X115620827Y-71790602D01*
X115620814Y-71790609D01*
X115489711Y-71878210D01*
X115489707Y-71878213D01*
X115378213Y-71989707D01*
X115378210Y-71989711D01*
X115290609Y-72120814D01*
X115290602Y-72120827D01*
X115230264Y-72266498D01*
X115230261Y-72266510D01*
X115199500Y-72421153D01*
X115199500Y-72578846D01*
X115230261Y-72733489D01*
X115230264Y-72733501D01*
X115290602Y-72879172D01*
X115290609Y-72879184D01*
X115353602Y-72973459D01*
X115374480Y-73040136D01*
X115374500Y-73042350D01*
X115374500Y-73327983D01*
X115354815Y-73395022D01*
X115302011Y-73440777D01*
X115289510Y-73445686D01*
X115230666Y-73465186D01*
X115230663Y-73465187D01*
X115081342Y-73557289D01*
X114957289Y-73681342D01*
X114865183Y-73830670D01*
X114862383Y-73836677D01*
X114816212Y-73889117D01*
X114749019Y-73908271D01*
X114682138Y-73888057D01*
X114637617Y-73836677D01*
X114634816Y-73830670D01*
X114634812Y-73830663D01*
X114542712Y-73681344D01*
X114418656Y-73557288D01*
X114269334Y-73465186D01*
X114210493Y-73445688D01*
X114153051Y-73405916D01*
X114126228Y-73341400D01*
X114125500Y-73327983D01*
X114125500Y-73042350D01*
X114145185Y-72975311D01*
X114146398Y-72973459D01*
X114146809Y-72972843D01*
X114209394Y-72879179D01*
X114213803Y-72868536D01*
X114245430Y-72792179D01*
X114269737Y-72733497D01*
X114300500Y-72578842D01*
X114300500Y-72421158D01*
X114300500Y-72421155D01*
X114300499Y-72421153D01*
X114297816Y-72407664D01*
X114269737Y-72266503D01*
X114262256Y-72248443D01*
X114209397Y-72120827D01*
X114209390Y-72120814D01*
X114121789Y-71989711D01*
X114121786Y-71989707D01*
X114010292Y-71878213D01*
X114010288Y-71878210D01*
X113879185Y-71790609D01*
X113879172Y-71790602D01*
X113733501Y-71730264D01*
X113733489Y-71730261D01*
X113578845Y-71699500D01*
X113578842Y-71699500D01*
X113421158Y-71699500D01*
X113421155Y-71699500D01*
X113266510Y-71730261D01*
X113266498Y-71730264D01*
X113120827Y-71790602D01*
X113120814Y-71790609D01*
X112989711Y-71878210D01*
X112989707Y-71878213D01*
X112878213Y-71989707D01*
X112878210Y-71989711D01*
X112790609Y-72120814D01*
X112790602Y-72120827D01*
X112730264Y-72266498D01*
X112730261Y-72266510D01*
X112699500Y-72421153D01*
X112699500Y-72578846D01*
X112730261Y-72733489D01*
X112730264Y-72733501D01*
X112790602Y-72879172D01*
X112790609Y-72879184D01*
X112853602Y-72973459D01*
X112874480Y-73040136D01*
X112874500Y-73042350D01*
X112874500Y-73327983D01*
X112854815Y-73395022D01*
X112802011Y-73440777D01*
X112789510Y-73445686D01*
X112730666Y-73465186D01*
X112730663Y-73465187D01*
X112581342Y-73557289D01*
X112457289Y-73681342D01*
X112365187Y-73830663D01*
X112365185Y-73830668D01*
X112349113Y-73879172D01*
X112310001Y-73997203D01*
X112310001Y-73997204D01*
X112310000Y-73997204D01*
X112299500Y-74099983D01*
X101000500Y-74099983D01*
X101000500Y-70759696D01*
X101002883Y-70735505D01*
X101014219Y-70678517D01*
X101032729Y-70633826D01*
X101059524Y-70593724D01*
X101093724Y-70559524D01*
X101133826Y-70532729D01*
X101178514Y-70514219D01*
X101235515Y-70502881D01*
X101259697Y-70500500D01*
X201240303Y-70500500D01*
X201264493Y-70502882D01*
G37*
%TD.AperFunction*%
%TD*%
M02*
