M48
; DRILL file {KiCad 9.0.5} date 2026-02-11T19:47:52-0600
; FORMAT={-:-/ absolute / metric / decimal}
; #@! TF.CreationDate,2026-02-11T19:47:52-06:00
; #@! TF.GenerationSoftware,Kicad,Pcbnew,9.0.5
; #@! TF.FileFunction,Plated,1,2,PTH
FMAT,2
METRIC
; #@! TA.AperFunction,Plated,PTH,ViaDrill
T1C0.300
; #@! TA.AperFunction,Plated,PTH,ComponentDrill
T2C1.000
; #@! TA.AperFunction,Plated,PTH,ComponentDrill
T3C1.200
; #@! TA.AperFunction,Plated,PTH,ComponentDrill
T4C2.200
%
G90
G05
T1
X103.54Y-75.58
X103.54Y-78.12
X103.54Y-83.2
X103.54Y-85.74
X103.54Y-88.28
X103.54Y-90.82
X103.54Y-93.36
X103.54Y-95.9
X103.54Y-98.44
X103.54Y-100.98
X103.54Y-103.52
X103.54Y-106.06
X103.54Y-108.6
X103.54Y-113.68
X106.08Y-73.04
X106.08Y-78.12
X106.08Y-83.2
X106.08Y-85.74
X106.08Y-88.28
X106.08Y-90.82
X106.08Y-93.36
X106.08Y-95.9
X106.08Y-98.44
X106.08Y-100.98
X106.08Y-103.52
X106.08Y-106.06
X106.08Y-108.6
X106.08Y-113.68
X106.08Y-116.22
X106.08Y-118.76
X108.62Y-75.58
X108.62Y-78.12
X108.62Y-80.66
X108.62Y-83.2
X108.62Y-85.74
X108.62Y-88.28
X108.62Y-90.82
X108.62Y-93.36
X108.62Y-95.9
X108.62Y-98.44
X108.62Y-100.98
X108.62Y-103.52
X108.62Y-106.06
X108.62Y-108.6
X108.62Y-111.14
X108.62Y-113.68
X108.62Y-116.22
X108.62Y-118.76
X111.16Y-73.04
X111.16Y-75.58
X111.16Y-78.12
X111.16Y-80.66
X111.16Y-83.2
X111.16Y-90.82
X111.16Y-93.36
X111.16Y-95.9
X111.16Y-98.44
X111.16Y-100.98
X111.16Y-103.52
X111.16Y-106.06
X111.16Y-108.6
X111.16Y-111.14
X111.16Y-113.68
X111.16Y-116.22
X111.16Y-118.76
X112.0Y-85.0
X113.5Y-72.5
X113.7Y-85.74
X113.7Y-88.28
X113.7Y-95.9
X113.7Y-98.44
X113.7Y-100.98
X113.7Y-103.52
X113.7Y-106.06
X113.7Y-108.6
X113.7Y-111.14
X113.7Y-113.68
X113.7Y-116.22
X113.7Y-118.76
X115.0Y-85.0
X116.0Y-72.5
X116.24Y-85.74
X116.24Y-95.9
X116.24Y-98.44
X116.24Y-100.98
X116.24Y-103.52
X116.24Y-106.06
X116.24Y-108.6
X116.24Y-111.14
X116.24Y-113.68
X116.24Y-116.22
X116.24Y-118.76
X118.0Y-85.0
X118.643Y-72.5
X118.78Y-95.9
X118.78Y-98.44
X118.78Y-100.98
X118.78Y-103.52
X118.78Y-106.06
X118.78Y-108.6
X118.78Y-111.14
X118.78Y-113.68
X118.78Y-116.22
X118.78Y-118.76
X121.0Y-85.0
X121.214Y-72.5
X121.32Y-95.9
X121.32Y-98.44
X121.32Y-100.98
X121.32Y-103.52
X121.32Y-106.06
X121.32Y-108.6
X121.32Y-111.14
X121.32Y-113.68
X121.32Y-116.22
X121.32Y-118.76
X123.786Y-72.5
X123.86Y-98.44
X123.86Y-100.98
X123.86Y-103.52
X123.86Y-106.06
X123.86Y-108.6
X123.86Y-111.14
X123.86Y-113.68
X123.86Y-116.22
X123.86Y-118.76
X123.88Y-84.88
X126.357Y-72.5
X126.4Y-98.44
X126.4Y-100.98
X126.4Y-103.52
X126.4Y-106.06
X126.4Y-108.6
X126.4Y-111.14
X126.4Y-113.68
X126.4Y-116.22
X126.4Y-118.76
X127.0Y-85.0
X128.929Y-72.5
X128.94Y-85.74
X128.94Y-98.44
X128.94Y-100.98
X128.94Y-103.52
X128.94Y-108.6
X128.94Y-111.14
X128.94Y-113.68
X128.94Y-116.22
X128.94Y-118.76
X130.0Y-85.0
X131.48Y-85.74
X131.48Y-88.28
X131.48Y-98.44
X131.48Y-100.98
X131.48Y-103.52
X131.48Y-108.6
X131.48Y-111.14
X131.48Y-113.68
X131.48Y-116.22
X131.48Y-118.76
X131.5Y-72.5
X133.0Y-85.0
X133.0Y-106.5
X134.02Y-73.04
X134.02Y-75.58
X134.02Y-83.2
X134.02Y-85.74
X134.02Y-90.82
X134.02Y-98.44
X134.02Y-100.98
X134.02Y-103.52
X134.02Y-108.6
X134.02Y-113.68
X134.02Y-116.22
X134.02Y-118.76
X136.56Y-73.04
X136.56Y-75.58
X136.56Y-85.74
X136.56Y-88.28
X136.56Y-90.82
X136.56Y-98.44
X136.56Y-100.98
X136.56Y-103.52
X136.56Y-108.6
X136.56Y-113.68
X136.56Y-116.22
X136.56Y-118.76
X139.1Y-73.04
X139.1Y-75.58
X139.1Y-78.12
X139.1Y-88.28
X139.1Y-90.82
X139.1Y-103.52
X139.1Y-108.6
X139.1Y-113.68
X139.1Y-116.22
X139.1Y-118.76
X141.64Y-73.04
X141.64Y-75.58
X141.64Y-78.12
X141.64Y-90.82
X141.64Y-103.52
X141.64Y-108.6
X141.64Y-113.68
X141.64Y-116.22
X141.64Y-118.76
X142.5Y-98.0
X144.18Y-75.58
X144.18Y-78.12
X144.18Y-100.98
X144.18Y-113.68
X144.18Y-116.22
X144.18Y-118.76
X145.0Y-85.0
X146.075Y-99.075
X146.5Y-89.0
X146.5Y-92.0
X146.72Y-78.12
X146.72Y-90.82
X146.72Y-93.36
X146.72Y-95.9
X146.72Y-103.52
X146.72Y-106.06
X146.72Y-108.6
X146.72Y-111.14
X146.72Y-118.76
X147.0Y-81.5
X148.0Y-113.0
X148.79Y-83.21
X149.26Y-90.82
X149.26Y-103.52
X149.26Y-106.06
X149.26Y-111.14
X149.26Y-118.76
X151.5Y-84.0
X151.8Y-75.58
X151.8Y-78.12
X151.8Y-90.82
X151.8Y-93.36
X151.8Y-95.9
X151.8Y-103.52
X151.8Y-111.14
X151.8Y-118.76
X154.34Y-75.58
X154.34Y-78.12
X154.34Y-80.66
X154.34Y-83.2
X154.34Y-93.36
X154.34Y-98.44
X154.34Y-103.52
X154.34Y-106.06
X154.34Y-108.6
X154.34Y-111.14
X154.34Y-113.68
X154.34Y-116.22
X154.34Y-118.76
X156.0Y-87.0
X156.0Y-99.0
X156.88Y-75.58
X156.88Y-80.66
X156.88Y-93.36
X156.88Y-108.6
X156.88Y-111.14
X156.88Y-113.68
X156.88Y-116.22
X156.88Y-118.76
X159.42Y-75.58
X159.42Y-78.12
X159.42Y-83.2
X159.42Y-108.6
X159.42Y-111.14
X159.42Y-113.68
X159.42Y-116.22
X159.42Y-118.76
X161.96Y-73.04
X161.96Y-75.58
X161.96Y-80.66
X161.96Y-106.06
X161.96Y-108.6
X161.96Y-111.14
X161.96Y-113.68
X161.96Y-116.22
X161.96Y-118.76
X164.0Y-73.5
X164.0Y-115.0
X164.5Y-78.12
X164.5Y-83.2
X164.5Y-103.52
X164.5Y-118.76
X167.04Y-80.66
X167.04Y-83.2
X167.04Y-98.44
X167.04Y-100.98
X167.04Y-103.52
X167.04Y-116.22
X167.04Y-118.76
X169.58Y-78.12
X169.58Y-80.66
X169.58Y-98.44
X169.58Y-100.98
X169.58Y-106.06
X169.58Y-108.6
X169.58Y-113.68
X169.58Y-116.22
X169.58Y-118.76
X172.12Y-103.52
X172.12Y-106.06
X172.12Y-118.76
X173.5Y-73.5
X174.66Y-78.12
X174.66Y-80.66
X174.66Y-103.52
X174.66Y-111.14
X174.66Y-118.76
X177.2Y-78.12
X177.2Y-80.66
X177.2Y-98.44
X177.2Y-106.06
X177.2Y-111.14
X177.2Y-113.68
X177.2Y-116.22
X177.2Y-118.76
X179.74Y-73.04
X179.74Y-78.12
X179.74Y-80.66
X179.74Y-100.98
X179.74Y-108.6
X179.74Y-118.76
X182.28Y-73.04
X182.28Y-78.12
X182.28Y-80.66
X182.28Y-83.2
X182.28Y-85.74
X182.28Y-98.44
X182.28Y-100.98
X182.28Y-103.52
X182.28Y-116.22
X182.28Y-118.76
X182.5Y-107.5
X184.82Y-73.04
X184.82Y-75.58
X184.82Y-80.66
X184.82Y-83.2
X184.82Y-95.9
X184.82Y-98.44
X184.82Y-100.98
X184.82Y-103.52
X184.82Y-106.06
X184.82Y-108.6
X184.82Y-113.68
X184.82Y-116.22
X184.82Y-118.76
X187.36Y-73.04
X187.36Y-75.58
X187.36Y-78.12
X187.36Y-95.9
X187.36Y-100.98
X187.36Y-103.52
X187.36Y-106.06
X187.36Y-118.76
X189.9Y-73.04
X189.9Y-75.58
X189.9Y-78.12
X189.9Y-80.66
X189.9Y-88.28
X189.9Y-90.82
X189.9Y-93.36
X189.9Y-100.98
X189.9Y-103.52
X189.9Y-106.06
X189.9Y-111.14
X189.9Y-118.76
X192.44Y-73.04
X192.44Y-75.58
X192.44Y-78.12
X192.44Y-80.66
X192.44Y-88.28
X192.44Y-90.82
X192.44Y-98.44
X192.44Y-100.98
X192.44Y-111.14
X192.44Y-113.68
X192.44Y-116.22
X192.44Y-118.76
X194.98Y-73.04
X194.98Y-75.58
X194.98Y-78.12
X194.98Y-80.66
X194.98Y-95.9
X194.98Y-98.44
X194.98Y-103.52
X194.98Y-106.06
X194.98Y-116.22
X194.98Y-118.76
X197.52Y-75.58
X197.52Y-78.12
X197.52Y-83.2
X197.52Y-85.74
X197.52Y-88.28
X197.52Y-90.82
X197.52Y-93.36
X197.52Y-95.9
X197.52Y-100.98
X197.52Y-103.52
X197.52Y-106.06
X197.52Y-108.6
X197.52Y-113.68
X200.06Y-75.58
X200.06Y-78.12
X200.06Y-83.2
X200.06Y-85.74
X200.06Y-88.28
X200.06Y-90.82
X200.06Y-93.36
X200.06Y-95.9
X200.06Y-98.44
X200.06Y-100.98
X200.06Y-103.52
X200.06Y-106.06
X200.06Y-108.6
X200.06Y-113.68
T2
X145.0Y-73.5
X147.54Y-73.5
X150.08Y-73.5
X152.62Y-73.5
X155.16Y-73.5
X157.7Y-73.5
T3
X104.5Y-80.0
X104.5Y-111.0
X199.0Y-80.0
X199.0Y-111.0
T4
X103.5Y-73.0
X103.5Y-117.5
X199.0Y-73.0
X199.0Y-117.5
M30
